<svg width="28" height="10.2" viewBox="0 0 28 10.2" fill="none" xmlns="http://www.w3.org/2000/svg">
    <path d="m15.414 3.586 2.837 2.837c1.384 1.383 2.075 2.075 2.883 2.57a8.001 8.001 0 0 0 2.312.958c.92.22 1.9.22 3.856.22H.698c1.957 0 2.935 0 3.856-.22a8 8 0 0 0 2.312-.958c.808-.495 1.5-1.187 2.883-2.57l2.837-2.837a2 2 0 0 1 2.828 0z" fill="#fff"/>
    <path d="M.698 7.172c2.004 0 2.844-.007 3.622-.194a7 7 0 0 0 2.024-.838c.683-.418 1.28-1.007 2.698-2.424L11.879.879a3 3 0 0 1 4.242 0l2.837 2.837c1.417 1.417 2.015 2.006 2.698 2.424a7 7 0 0 0 2.024.838c.778.187 1.618.194 3.622.194H28v3h-.698c-1.957 0-2.935 0-3.856-.221a8.001 8.001 0 0 1-2.312-.958c-.808-.495-1.5-1.187-2.883-2.57l-2.837-2.837a2 2 0 0 0-2.828 0L9.749 6.423c-1.384 1.383-2.075 2.075-2.883 2.57a8 8 0 0 1-2.312.958c-.92.22-1.9.22-3.856.22H0v-3h.698z" fill="#0129BD"/>
</svg>
