<svg id="e3GxMu1SsEe1" xmlns="http://www.w3.org/2000/svg" xmlns:xlink="http://www.w3.org/1999/xlink" viewBox="0 0 217 217" shape-rendering="geometricPrecision" text-rendering="geometricPrecision">
<style><![CDATA[
#e3GxMu1SsEe2_tr {animation: e3GxMu1SsEe2_tr__tr 4000ms linear infinite normal forwards}@keyframes e3GxMu1SsEe2_tr__tr { 0% {transform: translate(109.734871px,108.369074px) rotate(-104.753277deg)} 100% {transform: translate(109.734871px,108.369074px) rotate(-464.753277deg)}} #e3GxMu1SsEe16_tr {animation: e3GxMu1SsEe16_tr__tr 4000ms linear infinite normal forwards}@keyframes e3GxMu1SsEe16_tr__tr { 0% {transform: translate(229.03857px,99.82252px) rotate(0deg);animation-timing-function: cubic-bezier(0.42,0,1,1)} 5% {transform: translate(229.03857px,99.82252px) rotate(7.994988deg)} 10% {transform: translate(229.03857px,99.82252px) rotate(-5.049461deg)} 15% {transform: translate(229.03857px,99.82252px) rotate(7.994988deg)} 20% {transform: translate(229.03857px,99.82252px) rotate(-5.049461deg);animation-timing-function: cubic-bezier(0,0,0.58,1)} 30% {transform: translate(229.03857px,99.82252px) rotate(-5.049461deg);animation-timing-function: cubic-bezier(0.42,0,1,1)} 34.75% {transform: translate(229.03857px,99.82252px) rotate(0deg)} 39.75% {transform: translate(229.03857px,99.82252px) rotate(7.994988deg)} 44.75% {transform: translate(229.03857px,99.82252px) rotate(-5.049461deg)} 49.75% {transform: translate(229.03857px,99.82252px) rotate(7.994988deg)} 54.75% {transform: translate(229.03857px,99.82252px) rotate(-5.049461deg);animation-timing-function: cubic-bezier(0,0,0.58,1)} 65.25% {transform: translate(229.03857px,99.82252px) rotate(-5.049461deg);animation-timing-function: cubic-bezier(0.42,0,1,1)} 70% {transform: translate(229.03857px,99.82252px) rotate(0deg)} 75% {transform: translate(229.03857px,99.82252px) rotate(7.994988deg)} 80% {transform: translate(229.03857px,99.82252px) rotate(-5.049461deg)} 85% {transform: translate(229.03857px,99.82252px) rotate(7.994988deg)} 90% {transform: translate(229.03857px,99.82252px) rotate(-5.049461deg)} 100% {transform: translate(229.03857px,99.82252px) rotate(-5.049461deg)}}
]]></style>
<g id="e3GxMu1SsEe2_tr" transform="translate(109.734871,108.369074) rotate(-104.753277)"><g transform="scale(0.57,0.57) translate(-177.458931,-183.051967)"><path d="M109.51,85.66c-2.42.94-4.51,1.03-6.27.25-1.76-.77-3.09-2.35-4.01-4.72L83.75,41.35c-.92-2.37-1-4.44-.22-6.19.77-1.75,2.37-3.1,4.8-4.04l15.16-5.89c9.49-3.69,17.75-4.17,24.78-1.43c7.03,2.73,12.22,8.43,15.59,17.09c1.68,4.33,2.51,8.45,2.48,12.35s-.85,7.51-2.47,10.84-4.03,6.32-7.25,8.96-7.2,4.89-11.94,6.73l-15.17,5.89Zm2.33-14.18l7.43-2.89c2.73-1.06,4.96-2.31,6.69-3.76c1.72-1.44,3-3.06,3.81-4.86s1.16-3.8,1.05-6.02c-.12-2.21-.7-4.66-1.74-7.34-2.08-5.36-4.94-8.81-8.56-10.34s-8.12-1.25-13.48.83L99.6,40l12.24,31.48Z" fill="#0129bd"/><path d="M181.43,72.17c-4.97-.34-9.2-1.5-12.7-3.49s-6.1-4.64-7.82-7.98c-1.71-3.33-2.42-7.18-2.12-11.54.29-4.19,1.46-7.82,3.53-10.87s4.77-5.36,8.13-6.93c3.35-1.57,7.1-2.22,11.24-1.94c3.04.21,5.76.88,8.18,2.01c2.42,1.14,4.45,2.69,6.09,4.66s2.83,4.28,3.56,6.94.99,5.59.77,8.79c-.08,1.1-.43,1.9-1.08,2.38-.64.48-1.63.68-2.95.59l-25.34-1.73.47-6.96l18.38,1.25-1.4.99c.14-2.04-.02-3.72-.49-5.02-.47-1.31-1.21-2.33-2.25-3.07s-2.35-1.16-3.95-1.27c-1.71-.12-3.22.18-4.51.9-1.3.72-2.33,1.83-3.1,3.32-.77,1.5-1.23,3.41-1.39,5.73l-.05.74c-.27,3.92.41,6.78,2.04,8.58s4.26,2.83,7.9,3.08c1.21.08,2.62.03,4.21-.17s3.13-.52,4.6-.98c1.47-.45,2.72-.46,3.75-.04c1.02.43,1.8,1.09,2.32,1.99s.77,1.88.75,2.96-.34,2.11-.96,3.1c-.62.98-1.59,1.71-2.89,2.17-1.99.75-4.09,1.27-6.31,1.57-2.2.32-4.41.39-6.61.24Z" fill="#0129bd"/><path d="M216.87,81.42c-4.95-1.92-8.09-4.66-9.4-8.23-1.32-3.57-.94-8.03,1.15-13.4l12.84-33.12c.88-2.27,2.14-3.77,3.79-4.49c1.65-.73,3.55-.67,5.72.17c2.22.86,3.7,2.12,4.46,3.78.75,1.66.69,3.62-.19,5.89L222.58,64.68c-.74,1.91-.91,3.45-.5,4.61.41,1.17,1.2,1.98,2.39,2.44.36.14.75.25,1.17.32s.87.17,1.35.3c.88.34,1.4.93,1.58,1.77s-.13,2.29-.93,4.36c-.7,1.81-1.59,3.02-2.66,3.64s-2.41.77-4,.45c-.43-.11-1.06-.26-1.87-.46-.82-.2-1.57-.43-2.24-.69Z" fill="#0129bd"/><path d="M244.51,98.74c-3.91-3.08-6.75-6.43-8.51-10.05-1.77-3.61-2.42-7.28-1.95-11s2.05-7.29,4.76-10.73c2.6-3.3,5.62-5.63,9.05-6.98s6.97-1.73,10.62-1.14s7.11,2.17,10.37,4.75c2.39,1.88,4.26,3.98,5.62,6.28c1.35,2.3,2.15,4.73,2.4,7.28.24,2.55-.08,5.13-.98,7.74-.89,2.61-2.34,5.17-4.32,7.69-.69.87-1.43,1.32-2.23,1.36s-1.73-.36-2.77-1.18L246.63,77.03l4.32-5.47l14.47,11.41-1.73.03c1.27-1.61,2.08-3.08,2.43-4.42s.31-2.61-.12-3.8c-.44-1.19-1.28-2.28-2.54-3.28-1.35-1.06-2.76-1.66-4.23-1.8s-2.95.19-4.43,1c-1.48.8-2.94,2.12-4.38,3.94l-.46.59c-2.43,3.08-3.49,5.83-3.17,8.23.32,2.41,1.92,4.74,4.79,7c.96.75,2.15,1.5,3.57,2.24c1.43.74,2.88,1.33,4.35,1.79s2.51,1.15,3.11,2.09c.6.93.87,1.92.79,2.95s-.43,1.99-1.05,2.87c-.63.88-1.47,1.55-2.54,2.01s-2.27.51-3.62.16c-2.07-.5-4.1-1.26-6.09-2.27-1.99-1-3.86-2.19-5.59-3.56Z" fill="#0129bd"/><path d="M257.27,136.73c-1.5-2.65-2.73-5.23-3.67-7.74s-1.56-4.81-1.84-6.87c-.31-1.67-.17-3.05.42-4.15s1.4-1.91,2.44-2.43c1.04-.53,2.11-.77,3.21-.72c1.11.04,2.08.39,2.94,1.06s1.39,1.63,1.6,2.91c.33,2.61.86,4.86,1.58,6.74s1.42,3.43,2.1,4.63c1.66,2.94,3.53,4.79,5.59,5.56s4.39.42,6.99-1.05l4.55-2.58.33.58c-2.43.42-4.91-.11-7.44-1.6s-4.53-3.54-6.01-6.14c-1.8-3.18-2.64-6.36-2.5-9.55.13-3.19,1.15-6.2,3.04-9.02c1.9-2.83,4.63-5.25,8.19-7.26c2.7-1.53,5.34-2.52,7.95-2.98c2.6-.46,5.06-.44,7.38.06s4.45,1.48,6.4,2.96c1.95,1.47,3.59,3.39,4.93,5.75c1.53,2.7,2.27,5.47,2.24,8.32-.04,2.85-.86,5.21-2.48,7.08l-3.37.96l3.18-1.8c2.07-1.17,3.98-1.51,5.73-1c1.75.5,3.2,1.77,4.34,3.79s1.47,3.89.98,5.6-1.78,3.15-3.85,4.33l-24.98,14.16c-6.16,3.49-11.78,4.38-16.85,2.68-5.1-1.75-9.47-5.83-13.12-12.28Zm24.48-13.2c.82,1.44,1.84,2.49,3.06,3.13s2.61.91,4.17.79c1.55-.12,3.2-.67,4.93-1.65c2.6-1.47,4.27-3.25,5-5.31.73-2.07.5-4.17-.7-6.28-.76-1.35-1.77-2.37-3.02-3.06s-2.65-.97-4.19-.82c-1.54.14-3.18.71-4.91,1.69-2.6,1.47-4.27,3.25-5,5.32-.74,2.05-.52,4.12.66,6.19Z" fill="#0129bd"/><path d="M284.52,168.57c-.38-3.13-.14-5.96.72-8.49s2.21-4.59,4.06-6.18c1.84-1.59,4.05-2.54,6.63-2.86c2.97-.36,5.39.12,7.28,1.46c1.89,1.33,3.41,3.65,4.57,6.97c1.16,3.31,2.08,7.8,2.76,13.46l.55,4.53-6.92.84-.55-4.53c-.26-2.14-.63-3.89-1.1-5.26-.47-1.36-1.07-2.34-1.78-2.92s-1.56-.81-2.55-.69c-1.26.15-2.25.73-2.97,1.74-.71,1.01-.97,2.36-.76,4.06.17,1.37.62,2.56,1.35,3.56s1.68,1.76,2.83,2.29s2.44.71,3.87.53l9.56-1.16c1.98-.24,3.32-.92,4.02-2.04s.9-2.91.6-5.38c-.16-1.32-.49-2.78-.99-4.39s-1.26-3.39-2.28-5.32c-.73-1.42-.97-2.67-.71-3.76s.82-1.98,1.68-2.67s1.85-1.09,2.95-1.19c1.1-.11,2.19.12,3.26.69s1.97,1.53,2.69,2.89c1.31,2.52,2.26,4.87,2.86,7.05s1.01,4.21,1.24,6.08c.55,4.5.35,8.3-.58,11.4-.93,3.09-2.64,5.53-5.13,7.31s-5.82,2.92-9.99,3.43l-16.64,2.02c-2.42.29-4.33-.06-5.73-1.06s-2.24-2.6-2.51-4.8c-.27-2.25.15-4.04,1.27-5.38s2.89-2.15,5.31-2.44l2.14-.26-1.09.63c-1.79-.06-3.38-.51-4.76-1.34s-2.53-2.01-3.44-3.51c-.9-1.51-1.47-3.28-1.72-5.31Z" fill="#0129bd"/><path d="M281.86,219.58c.85-4.06,2.18-7.28,3.97-9.64c1.8-2.37,4.09-3.93,6.88-4.71c2.79-.77,6.08-.76,9.87.04l13.24,2.78.58-2.76c.36-1.73,1.1-2.98,2.22-3.73s2.54-.95,4.28-.59c1.73.36,2.95,1.11,3.64,2.25.69,1.13.86,2.57.5,4.3l-.58,2.76l5.04,1.06c2.38.5,4.07,1.5,5.05,3.01s1.23,3.42.74,5.75-1.49,3.98-2.99,4.97c-1.51.98-3.45,1.23-5.83.73l-5.04-1.06-1.4,6.66c-.37,1.79-1.11,3.06-2.2,3.82s-2.51.96-4.24.6-2.96-1.12-3.68-2.26-.9-2.61-.52-4.39l1.4-6.66-12.75-2.68c-2-.42-3.58-.26-4.73.49s-1.94,2.15-2.37,4.21c-.16.76-.23,1.51-.22,2.24.02.74-.04,1.4-.17,2-.13.88-.53,1.53-1.21,1.95s-2.03.42-4.03,0c-1.62-.34-2.94-.87-3.95-1.59s-1.62-1.75-1.85-3.1c-.11-.82-.12-1.89-.04-3.23.09-1.33.22-2.41.39-3.22Z" fill="#0129bd"/><path d="M268.3,249.46c2.52-4.29,5.45-7.56,8.79-9.81c3.34-2.24,6.88-3.39,10.63-3.43c3.75-.05,7.51,1.04,11.28,3.25c3.63,2.13,6.34,4.8,8.15,8.01s2.66,6.66,2.58,10.37c-.09,3.7-1.18,7.34-3.28,10.92-1.54,2.62-3.36,4.76-5.45,6.42-2.1,1.66-4.39,2.78-6.89,3.37s-5.1.62-7.8.09c-2.71-.53-5.44-1.61-8.21-3.23-.96-.56-1.5-1.24-1.65-2.03s.12-1.76.79-2.91l12.85-21.9l6.01,3.53L286.77,268l-.26-1.69c1.77,1.04,3.34,1.64,4.72,1.8c1.38.17,2.63-.05,3.74-.64c1.12-.59,2.08-1.58,2.9-2.97.87-1.48,1.27-2.96,1.21-4.44s-.59-2.9-1.59-4.25c-1-1.36-2.5-2.62-4.51-3.8l-.64-.38c-3.39-1.99-6.25-2.66-8.59-2.01s-4.43,2.55-6.28,5.7c-.62,1.05-1.19,2.33-1.73,3.85-.54,1.51-.93,3.03-1.18,4.55s-.8,2.64-1.64,3.37c-.84.72-1.78,1.12-2.81,1.19s-2.03-.15-2.99-.65-1.74-1.25-2.34-2.24c-.6-1-.82-2.18-.65-3.56.22-2.12.69-4.23,1.41-6.34s1.64-4.12,2.76-6.03Z" fill="#0129bd"/><path d="M220.54,292.55c3.6-2.06,6.88-3.21,9.84-3.44s5.66.44,8.09,2.01s4.61,4.04,6.54,7.4l6.73,11.74l2.45-1.4c1.54-.88,2.96-1.15,4.27-.82s2.4,1.27,3.28,2.81s1.13,2.94.74,4.21-1.35,2.35-2.88,3.23l-2.45,1.4l2.56,4.46c1.21,2.11,1.58,4.04,1.11,5.77-.47,1.74-1.74,3.2-3.8,4.38s-3.96,1.54-5.7,1.07-3.21-1.76-4.42-3.88l-2.56-4.46-5.91,3.38c-1.58.91-3.02,1.21-4.32.9-1.29-.31-2.38-1.24-3.26-2.77-.88-1.54-1.13-2.95-.76-4.25s1.35-2.4,2.94-3.31l5.91-3.38-6.48-11.31c-1.02-1.78-2.19-2.84-3.51-3.2s-2.89-.02-4.72,1.03c-.67.38-1.28.83-1.82,1.33s-1.08.9-1.6,1.21c-.74.49-1.5.62-2.26.39-.77-.23-1.66-1.23-2.68-3.01-.83-1.44-1.3-2.78-1.44-4.01s.23-2.38,1.09-3.44c.54-.62,1.33-1.35,2.39-2.18c1.02-.83,1.91-1.45,2.63-1.86Z" fill="#0129bd"/><path d="M190.94,301.93c4.46-.82,8.51-.69,12.14.39s6.66,3.03,9.09,5.84c2.43,2.82,4.04,6.38,4.83,10.68.6,3.27.62,6.29.06,9.06s-1.65,5.25-3.28,7.44-3.71,4-6.26,5.45-5.51,2.49-8.88,3.11c-4.46.82-8.51.69-12.14-.39s-6.64-3.02-9.04-5.81c-2.4-2.8-3.99-6.37-4.79-10.72-.59-3.21-.6-6.22-.05-9.02.56-2.8,1.63-5.29,3.23-7.47s3.68-4,6.26-5.45c2.56-1.46,5.51-2.5,8.83-3.11Zm1.96,10.7c-1.47.27-2.71.88-3.72,1.82s-1.69,2.22-2.04,3.83-.31,3.61.13,6.01c.67,3.65,1.86,6.14,3.57,7.49c1.71,1.34,3.65,1.82,5.83,1.42c1.47-.27,2.71-.86,3.72-1.78s1.71-2.18,2.09-3.8.34-3.65-.11-6.1c-.66-3.59-1.84-6.08-3.56-7.45-1.71-1.37-3.68-1.85-5.91-1.44Z" fill="#0129bd"/><path d="M128.58,296.4c3.25,1.41,5.65,3.17,7.22,5.26c1.56,2.1,2.35,4.56,2.35,7.4s-.79,6.08-2.38,9.74l-6.95,15.99c-.97,2.23-2.29,3.67-3.95,4.3s-3.59.48-5.77-.47-3.61-2.25-4.28-3.9-.52-3.59.45-5.82l7.11-16.37c.79-1.83,1.01-3.36.64-4.61-.36-1.24-1.36-2.22-2.98-2.92-1.83-.79-3.61-.79-5.35.03-1.74.81-3.08,2.31-4.03,4.49l-6.35,14.62c-.97,2.23-2.29,3.67-3.95,4.3s-3.59.48-5.77-.47-3.61-2.25-4.28-3.9-.52-3.59.45-5.82l10.95-25.2c1.98-4.57,5.16-5.9,9.52-4.01c2.13.93,3.53,2.23,4.19,3.9s.5,3.63-.47,5.86l-1.92,4.41.4-4.26c2.2-2,4.59-3.23,7.16-3.67c2.6-.44,5.25-.07,7.99,1.12Z" fill="#0129bd"/><path d="M88.96,270.97c1.75,1.7,3.39,3.55,4.95,5.57c1.55,2.01,2.74,4.07,3.55,6.17.61,1.36.79,2.58.55,3.66s-.73,1.99-1.49,2.72c-.75.73-1.64,1.21-2.65,1.42s-1.99.11-2.94-.31c-.94-.42-1.7-1.21-2.26-2.38-1.09-2.22-2.17-4.1-3.25-5.65s-2.23-2.92-3.46-4.12c-1.47-1.43-2.72-2.24-3.76-2.44s-1.89.04-2.54.71c-.58.6-.81,1.25-.71,1.98.11.72.48,1.51,1.12,2.36l5.56,7.5c2.04,2.83,3.06,5.58,3.08,8.26s-1.05,5.13-3.21,7.35c-2.01,2.06-4.32,3.27-6.94,3.62s-5.34-.06-8.18-1.24c-2.83-1.17-5.58-3.05-8.24-5.64-1.78-1.74-3.29-3.45-4.5-5.13-1.22-1.69-2.19-3.54-2.92-5.56-.52-1.21-.64-2.32-.34-3.34s.85-1.86,1.64-2.52s1.7-1.09,2.71-1.3c1.02-.21,1.99-.08,2.91.4.93.48,1.71,1.34,2.35,2.58.81,1.79,1.6,3.29,2.38,4.52.78,1.22,1.61,2.26,2.48,3.11c1.63,1.58,2.99,2.48,4.09,2.7s1.98-.01,2.63-.68c.5-.52.74-1.12.71-1.8s-.36-1.45-1-2.3l-5.5-7.55c-2.15-2.87-3.27-5.63-3.34-8.29-.08-2.66.99-5.12,3.19-7.38c3.13-3.21,6.78-4.5,10.95-3.88c4.16.6,8.29,2.9,12.38,6.88Z" fill="#0129bd"/><path d="M53.16,257.89c.74,1.23.93,2.46.57,3.68s-1.2,2.35-2.51,3.4L31.24,280.39c-2.26,1.82-4.54,2.57-6.82,2.27s-4.15-1.67-5.61-4.08c-1.48-2.46-1.81-4.75-.98-6.87.83-2.11,2.57-3.74,5.24-4.9L46,256.3c1.54-.67,2.92-.89,4.16-.66c1.22.22,2.23.97,3,2.25Zm16.85-10.14c1.28,2.13,1.67,4.21,1.14,6.24-.52,2.03-1.83,3.67-3.91,4.92-2.04,1.23-4.06,1.59-6.08,1.09-2.01-.5-3.66-1.82-4.95-3.95-1.34-2.23-1.75-4.33-1.22-6.29.53-1.97,1.81-3.56,3.85-4.79c2.09-1.26,4.13-1.66,6.14-1.23c2.01.44,3.69,1.78,5.03,4.01Z" fill="#0129bd"/></g></g><g id="e3GxMu1SsEe16_tr" transform="translate(229.03857,99.82252) rotate(0)"><g transform="translate(-253.103699,-122.53454)"><path d="M247.653,148.988c-12.872,3.144-26.042,4.927-39.217,6.226-14.32,1.411-29.49,1.824-43.765-.279-5.643-.831-11.733-1.316-17.166-3.143-5.897-1.992-4.644-10.967,1.566-11.268c1.827-.089,3.864.546,5.636.858c3.469.569,6.921,1.052,10.42,1.451c7.474.795,15.025.815,22.53.602c15.3-.442,30.606-2.622,45.562-5.849c3.076-.669,6.157-1.373,9.203-2.188c2.347-.626,4.559-1.073,6.852.105c5.812,2.986,4.8,11.994-1.621,13.485v0Z" fill="#0129bd"/><path d="M94.0479,128.685c1.5372-1.646,4.703-2.424,6.8611-2.475-4.7091-4.114-6.4477-10.979-1.7199-15.713c3.7179-3.727,9.5859-2.382,14.0759-.793c2.511.887,4.838,2.365,7.211,3.576c2.607,1.334,4.559,2.106,5.596.649c4.09-5.58,3.363-14.895,5.055-21.3449c1.466-5.5899,4.762-11.1507,10.281-13.3356c5.971-2.3523,13.515-.1382,13.704,7.2269.106,4.0986-3.567,7.3865-5.325,10.8131-1.689,3.3075-2.968,6.6675-3.349,10.3995-.832,8.159,5.884,13.884,8.055,21.145c1.904-.797,4.47-1.702,6.501-.897c2.592,1.02,3.135,4.001,3.535,6.422.908,5.529.036,11.278-1.607,16.582-1.424,4.585-3.418,9.65-6.919,13.086-3.94,3.856-9.753,3.901-11.761-2.031-5.346,3.791-10.501,4.901-16.833,3.619-3.232-.655-7.191-1.448-10.502-1.499-3.287-.05-6.586-.144-9.842-.629-5.397-.803-11.9111-3.084-14.7399-8.315-1.5982-2.953-.9242-9.991,3.4356-12.075-4.591-4.425-6.3009-9.474-1.6984-14.415l-.0144.004Z" fill="#fff"/><path d="M115.058,131.673c-5.23-.414-10.013-2.515-14.557-5.432.138-.006.281-.021.405-.023-3.1436-2.757-4.9462-6.734-4.3985-10.48c2.2102,8.972,14.8285,12.293,20.4615,12.18-.668,1.242-1.767,2.382-1.916,3.764l.005-.009Z" fill="#d1d6d0" fill-opacity="0.3"/><path d="M122.531,159.018c2.306-.37,8.019,2.133,14.062-.153c10.583-3.984,17.346-13.747,15.218-28.288-1.093-7.496-9.889-12.648-11.802-20.396-2.084-12.8152,15.376-18.2617,11.661-30.2441c1.976,1.3245,3.337,3.4808,3.415,6.5476.105,4.0986-3.568,7.3865-5.326,10.813-1.689,3.3075-2.968,6.6675-3.349,10.4005-.586,5.804,2.634,10.379,5.329,15.141c1.1,1.932,2.102,3.905,2.731,5.994c1.904-.798,4.47-1.702,6.501-.897c1.336.527,2.131,1.586,2.637,2.808-2.337-.53-4.529.554-6.523.956c3.559,9.115-1.514,20.551-3.511,25.896.647,2.441,2.176,3.458,4.734,3.626-.692,1.008-1.461,1.959-2.314,2.8-3.939,3.856-9.752,3.901-11.76-2.031-5.346,3.791-10.502,4.901-16.834,3.619-3.231-.655-7.191-1.448-10.501-1.499-3.287-.05-6.586-.144-9.842-.629-5.397-.803-11.9112-3.084-14.7401-8.314-.9099-1.688-1.0699-4.717-.2405-7.383c1.1228,8.186,16.4776,13.465,30.4546,11.233v0Z" fill="#d1d6d0" fill-opacity="0.3"/><path d="M111.942,113.037c-.736-1.183-1.446-2.963-.939-4.053.78.217,1.538.472,2.264.719c2.51.887,4.838,2.365,7.21,3.576c2.607,1.334,4.56,2.106,5.597.649.424-.587.79-1.22,1.119-1.874-1.034,2.278-1.248,2.351-2.505,3.766-1.946,1.887-10.126,1.41-12.746-2.783v0Z" fill="#d1d6d0"/><path d="M91.6057,132.853c3.0906,8.147,14.1033,13.698,21.1653,13.505-.324,2.321-1.239,4.265-1.481,4.345-5.851-1.628-10.845-3.362-16.0628-7.316.1726-.109.34-.208.5257-.296-3.2979-3.189-5.0962-6.687-4.1472-10.238v0Z" fill="#d1d6d0" fill-opacity="0.3"/><path d="M93.6486,128.551c1.5531-1.672,4.165-2.636,6.3471-2.686-4.7486-4.173-6.0075-10.724-1.2334-15.517c3.7587-3.776,9.7207-2.892,14.2767-1.289c2.543.893,4.875,2.301,7.275,3.527c2.644,1.355,4.643,2.301,5.69.826c4.142-5.648,2.926-14.8166,4.648-21.3597c1.484-5.6648,5.265-11.1537,10.857-13.358c6.034-2.377,13.686-.1375,13.869,7.3223.103,4.1459-3.083,7.5437-4.867,11.0162-1.71,3.3442-3.153,6.8182-3.537,10.5972-.842,8.263,5.704,13.412,7.912,20.756c1.924-.81,4.328-1.625,6.391-.812c2.621,1.035,3.231,4.471,3.639,6.921.918,5.596.041,11.416-1.629,16.789-1.447,4.647-3.464,9.771-7,13.248-3.981,3.905-10.223,4.143-12.266-1.857-5.409,3.839-10.274,4.762-16.695,3.465-3.265-.661-7.281-1.462-10.629-1.511-3.335-.053-6.671-.144-9.96-.636-5.463-.817-12.0022-3.393-14.8558-8.687-1.6151-2.988-1.3191-10.134,3.0894-12.238-4.6539-4.486-5.9708-9.517-1.3129-14.511l-.0091-.006Zm59.7094,37.006c9.844-4.717,17.215-42.724,1.642-36.775c2.209,7.81,1.338,16.63-2.351,23.824-1.877,3.676-4.473,6.9-7.74,9.444c1.411,3.935,4.606,5.351,8.449,3.507v0ZM96.9919,143.085c4.2741,3.299,8.9111,5.377,14.2461,7.135.145-.356.558-1.305,1.17-2.089-.372,1.364-.716,5.606-.784,6.02-.784-1.016-1.003-2.035-.75-3.174-3.769-.867-7.081-2.082-10.263-3.882-1.5249-.856-3.0193-1.743-4.3668-2.864-1.5963-1.325-2.9731,2.077-3.4805,3.57-2.359,7.032,1.6942,10.926,7.7363,13.473c3.524,1.483,7.691,2.213,11.461,2.211c4.211-.003,8.442.384,12.596,1.008c4.032.603,12.375,2.556,20.07-4.307c9.961-8.883,12.06-20.041,9.205-30.928-.41-1.558-.6-1.949-1.212-3.305-1.16-2.567-2.718-4.935-4.212-7.327-3.084-4.937-3.6-11.059-1.733-16.54c1.966-5.7779,14.637-20.4132,1.09-22.9734-5.107-.9665-9.788,2.3511-12.695,6.3259-3.837,5.2482-4.356,12.6325-5.074,18.8135-.532,4.587-1.624,11.31-6.912,12.65-1.866.477-3.867.276-5.697-.242-.653-.182-5.038-1.637-5.171-2.827c1.451.434,7.901,3.693,11.096,1.487-6.35-2.797-21.15-11.856-25.4451-1.365-1.6011,3.896-.5562,8.317,2.5991,11.032c4.166,3.592,8.539,4.453,14.315,6.062.44-1.079,1.248-2.669,2.108-3.078-.266.715-1.517,3.921-1.455,7.86-.603-.544-1.131-2.978-.938-3.821-10.609-2.882-12.25-4.172-13.936-5.342-1.5404.274-3.6167.776-4.9454,1.636-6.3377,4.11-3.5083,10.993,1.3643,14.761l.013.02Z" fill="none" stroke="#0129bd" stroke-width="2" stroke-linejoin="round"/><path d="M132.202,135.698c2.141,1.237,7.292,3.476,10.766,2.546" fill="none" stroke="#0129bd" stroke-width="3" stroke-linecap="round"/><path d="M129.074,144.293c2.142,1.236,7.9,2.848,13.804-.596" fill="none" stroke="#0129bd" stroke-width="3" stroke-linecap="round"/><path d="M127.855,152.766c3.018,1.131,11.173-.279,13.945-2.961" fill="none" stroke="#0129bd" stroke-width="3" stroke-linecap="round"/></g></g></svg>
