<svg width="28" height="13" viewBox="0 0 28 13" fill="none" xmlns="http://www.w3.org/2000/svg">
<path d="M15.4142 3.5253L18.251 6.31421C19.6346 7.67448 20.3264 8.35462 21.1337 8.84101C21.8495 9.27224 22.6299 9.59002 23.4461 9.78269C24.3668 10 25.3452 10 27.3019 10L0.698067 10C2.65479 10 3.63316 10 4.55386 9.78269C5.37015 9.59002 6.1505 9.27224 6.86628 8.84101C7.67361 8.35462 8.36542 7.67448 9.74903 6.31421L12.5858 3.5253C13.3668 2.75743 14.6332 2.75743 15.4142 3.5253Z" fill="white"/>
<rect x="0" y="9.5" width="28" height="4" fill="white"/>

<path d="M0.698066 7C2.70239 7 3.54156 7.04429 4.32041 6.86046C5.03466 6.69187 5.71748 6.41381 6.34378 6.03649C7.02672 5.62504 7.62466 5.04613 9.04193 3.65276L11.8787 0.863857C13.0503 -0.287953 14.9497 -0.287949 16.1213 0.863858L18.9581 3.65276C20.3753 5.04613 20.9733 5.62504 21.6562 6.03649C22.2825 6.41381 22.9653 6.69187 23.6796 6.86046C24.4584 7.04429 25.2976 7 27.3019 7L28 7L28 10L27.3019 10C25.3452 10 24.3668 10 23.4461 9.78269C22.6299 9.59002 21.8495 9.27224 21.1337 8.84101C20.3264 8.35462 19.6346 7.67448 18.251 6.3142L15.4142 3.5253C14.6332 2.75743 13.3668 2.75743 12.5858 3.5253L9.74903 6.31421C8.36542 7.67448 7.67361 8.35462 6.86628 8.84101C6.1505 9.27224 5.37014 9.59002 4.55386 9.78269C3.63316 10 2.65479 10 0.698067 10L0 10L-2.62268e-07 7L0.698066 7Z" fill="#0129BD"/>
</svg>
