<svg width="170" height="110" viewBox="0 0 170 110" fill="none" xmlns="http://www.w3.org/2000/svg">
    <path d="M10.477 81.486c4.176-.805 7.528-.259 10.058 1.64 2.53 1.9 3.793 4.947 3.793 9.138 0 1.354-.126 2.69-.382 4.014a18.35 18.35 0 0 1-1.264 3.965 15.291 15.291 0 0 1-2.207 3.572c-.884 1.058-2.007 1.994-3.373 2.799-1.365.808-2.904 1.378-4.616 1.708l-7.908 1.528c-1.633.317-2.805.131-3.513-.556C.355 108.609 0 107.19 0 105.043V88.245c0-3.157 1.525-5.032 4.578-5.621l5.899-1.138zM9.27 103.528a7.762 7.762 0 0 0 1.828-.57c.523-.246 1.016-.609 1.486-1.083a5.569 5.569 0 0 0 1.145-1.752c.295-.693.529-1.556.702-2.584.174-1.029.262-2.219.262-3.572 0-1.512-.135-2.767-.402-3.763s-.655-1.716-1.164-2.164c-.51-.444-1.066-.723-1.666-.832-.603-.109-1.332-.093-2.188.044v16.276H9.27zM37.174 103.793c-3.267.63-5.962.316-8.09-.947-2.128-1.261-3.193-3.337-3.193-6.23 0-3.13 1.048-5.806 3.152-8.03 2.1-2.224 4.811-3.656 8.13-4.295 3.133-.606 5.426-.496 6.888.322 1.46.819 2.189 2.186 2.189 4.096 0 .37-.047.74-.14 1.102a4.934 4.934 0 0 1-.441 1.1 4.76 4.76 0 0 1-.804 1.07 8.617 8.617 0 0 1-1.145.976c-.43.309-.939.579-1.525.813-.59.232-1.22.415-1.889.543l-5.662 1.133c.267.797.749 1.375 1.445 1.73.697.357 1.58.43 2.651.224a16.869 16.869 0 0 0 3.535-1.12 11.31 11.31 0 0 0 1.665-.957c.603-.406 1.038-.638 1.305-.69.454-.088.81-.022 1.065.193.253.216.383.524.383.923 0 .477-.215 1.097-.642 1.855-.429.759-1.024 1.55-1.786 2.374-.763.824-1.773 1.596-3.03 2.317a13.188 13.188 0 0 1-4.061 1.498zm-2.73-10.855 3.01-.622c.403-.076.697-.374.884-.887.135-.37.201-.862.201-1.47 0-1.673-.509-2.41-1.525-2.213-.374.073-.743.34-1.104.81-.36.467-.677 1.091-.944 1.875-.27.78-.443 1.615-.523 2.507zM64.84 93.2c.777-.15 1.38-.158 1.806-.03.427.131.724.38.884.745.16.369.242.895.242 1.586 0 .875-.3 1.511-.903 1.904-.603.396-1.665.74-3.193 1.034l-11.845 2.287c-.91.175-1.748.025-2.51-.45-.763-.478-1.145-1.217-1.145-2.227 0-1.113.146-2.01.44-2.693.295-.68.964-1.637 2.007-2.876l5.26-6.508-2.931.565c-1.445.278-2.489.281-3.133.008-.641-.273-.963-.862-.963-1.765 0-.983.225-1.681.682-2.101.455-.42 1.404-.77 2.852-1.048l12.206-2.355c.99-.19 1.772-.07 2.348.363.575.434.864 1.127.864 2.082 0 .903-.121 1.615-.36 2.14-.243.523-.87 1.454-1.889 2.79l-6.064 7.619 5.346-1.07zM78.858 76.245c2.488-.48 4.564-.377 6.224.31 1.66.688 2.488 1.63 2.488 2.822 0 .344-.148.693-.44 1.04-.295.349-.67.567-1.123.654-.402.077-.843.025-1.324-.16a10.762 10.762 0 0 1-1.366-.634c-.43-.234-.99-.42-1.687-.55a5.85 5.85 0 0 0-2.208.026c-1.043.202-1.566.623-1.566 1.258 0 .45.267.759.804.92.534.16 1.318.29 2.348.382 1.03.093 1.814.221 2.348.382 2.007.382 3.386.944 4.134 1.689.75.745 1.124 1.847 1.124 3.304 0 .718-.202 1.466-.603 2.246-.402.78-1.005 1.56-1.806 2.338-.804.778-1.894 1.493-3.273 2.145-1.38.65-2.951 1.146-4.718 1.487-3.452.666-6.037.382-7.75-.851-.83-.608-1.243-1.326-1.243-2.147 0-.505.168-.934.5-1.291.337-.358.81-.595 1.427-.712.616-.118 1.552 0 2.81.352 1.258.354 2.422.428 3.493.22 1.473-.283 2.208-.785 2.208-1.5 0-.371-.388-.595-1.164-.671a86.471 86.471 0 0 0-3.053-.227c-1.258-.076-2.263-.28-3.012-.614-1.178-.275-2-.747-2.469-1.413-.468-.666-.702-1.542-.702-2.63 0-1.859.89-3.548 2.67-5.073 1.784-1.517 4.09-2.554 6.929-3.102zM112.337 83.075c.696-.134 1.131-.385 1.305-.75.173-.366.261-1 .261-1.903l.041-7.132c0-1.22.347-2.183 1.044-2.887.696-.704 1.874-1.217 3.534-1.54.724-.138 1.31-.174 1.767-.1.455.07.851.254 1.184.548.336.295.589.789.763 1.485.173.695.3 1.547.382 2.554.08 1.007.121 2.305.121 3.896 0 1.408-.22 2.729-.663 3.968-.441 1.238-1.005 2.284-1.687 3.132a12.66 12.66 0 0 1-2.39 2.273c-.911.669-1.819 1.187-2.731 1.56-.911.375-1.819.65-2.73.828-2.169.417-4.162.128-5.982-.876-1.795 1.7-3.774 2.758-5.943 3.176-.911.174-1.814.25-2.711.224a9.251 9.251 0 0 1-2.731-.508 7.41 7.41 0 0 1-2.428-1.342c-.696-.582-1.263-1.408-1.707-2.478-.44-1.07-.663-2.306-.663-3.714 0-2.627.121-4.592.36-5.899.243-1.307.642-2.26 1.206-2.86.562-.6 1.446-1.015 2.651-1.247 1.123-.218 2.02-.256 2.69-.12.668.137 1.145.429 1.425.879.281.45.422 1.086.422 1.91l.04 7.078c0 .398.006.682.02.851.014.17.047.377.1.617.052.243.134.399.241.472.108.074.254.131.441.175.187.043.427.035.724-.02 1.071-.207 1.698-.632 1.888-1.279-.242-1.544-.36-3.234-.36-5.064 0-1.54.052-2.75.159-3.632.108-.882.342-1.624.702-2.227.361-.6.81-1.031 1.346-1.293.534-.262 1.3-.489 2.288-.682.883-.17 1.58-.227 2.086-.164.51.06.923.327 1.245.794.322.47.534 1.124.641 1.965.107.843.16 2.032.16 3.571 0 1.859-.108 3.602-.322 5.237.192.545.795.72 1.811.524zM131.936 85.503c-2.114.409-3.868-.11-5.261-1.553-1.393-1.444-2.089-3.65-2.089-6.622 0-3.026.688-5.567 2.067-7.624 1.379-2.058 3.138-3.294 5.28-3.706 2.169-.417 4.176-.049 6.023 1.105.724-1.465 1.888-2.354 3.493-2.663 1.445-.278 2.571-.183 3.372.284.804.47 1.206 1.539 1.206 3.212v10.347c0 1.59-.336 2.764-1.005 3.517-.669.753-1.847 1.29-3.534 1.618-1.768.341-2.932.076-3.494-.8-1.709 1.474-3.73 2.434-6.058 2.885zm5.458-14.468c-.454-.682-1.043-.952-1.767-.813-.696.134-1.258.748-1.687 1.84-.43 1.09-.642 2.286-.642 3.588 0 1.22.201 2.27.603 3.146.402.878.964 1.247 1.687 1.107.749-.144 1.352-.619 1.806-1.424v-7.444zM157.189 82.696c0 2.15-.361 3.752-1.085 4.808s-1.833 1.727-3.333 2.016c-1.5.29-2.596.085-3.292-.62-.697-.7-1.044-2.114-1.044-4.237l-.08-16.781c0-1.645.402-2.93 1.206-3.856.804-.925 1.875-1.517 3.213-1.773 1.043-.202 1.888-.238 2.529-.11.642.129 1.123.533 1.445 1.215 1.848-1.79 3.829-2.887 5.944-3.296 2.141-.412 3.895.136 5.26 1.65 1.365 1.515 2.048 3.799 2.048 6.85 0 2.97-.696 5.446-2.087 7.427-1.392 1.98-3.146 3.173-5.26 3.582-2.034.393-3.854.295-5.461-.3v3.425h-.003zm0-8.08c.454.655 1.057.912 1.806.767.724-.14 1.285-.726 1.687-1.757.402-1.032.603-2.159.603-3.381 0-1.299-.215-2.412-.641-3.34-.43-.925-.991-1.32-1.688-1.187-.724.14-1.313.639-1.767 1.495v7.403zM7.832 61.791s-9.61-20.082 1.013-31.504c9.474-10.19 10.608-7.64 15.618-19.368 2.106-4.934 6.29-8.732 11.46-10.287 4.933-1.485 11.44-.803 15.36 6.99 1.076 2.142 1.745 4.459 2.034 6.836.196 1.61.364 3.757.267 5.926-.228 5.198-4.883 7.711-9.334 6.325-7.014-2.185-13.364-4.581-25.746 6.131 0 0-4.76 4.857-3.714 13.971.35 3.045 1.308 5.992 2.775 8.694l3.92 6.936-4.143 4.046c0-.002-2.392-8.759-9.51-4.696z" fill="#0129BD"/>
    <path d="M18.036 63.458c-1.412-2.906-4.963-4.104-7.878-2.628-2.744 1.39-3.917 4.715-2.645 7.496 1.349 2.955 4.88 4.213 7.812 2.813a5.762 5.762 0 0 0 1.665-1.192l.383.379 3.047 2.912s8.49 6.818 21.54 2.674c12.126-3.853 19.057-16.473 15.602-28.621-.044-.158-.514-1.79-.561-1.951-2.274-7.567-3.38-11.668-5.417-15.27-2.393-4.232-6.976-6.761-11.867-6.57-6.221.243-15.176 2.014-21.213 9.31 0 0-12.012 12.62-.908 25.63l2.631 3.853-1.91 1.738-.28-.573z" fill="#fff"/>
    <path d="M45.403 75.408c-1.03.49-2.1.914-3.205 1.266-3.06.974-6.135 1.432-9.133 1.37a25.055 25.055 0 0 1-7.02-1.152c-3.853-1.217-6.047-2.958-6.138-3.032-.02-.013-.036-.03-.052-.046l-2.893-2.764c-.397.317-.829.59-1.294.81a6.621 6.621 0 0 1-5.126.257 6.553 6.553 0 0 1-3.768-3.46 6.452 6.452 0 0 1-.21-4.862 6.533 6.533 0 0 1 3.224-3.673 6.623 6.623 0 0 1 5.123-.377 6.531 6.531 0 0 1 3.644 2.983l.609-.554-2.219-3.25c-2.615-3.075-4.195-6.393-4.696-9.864-.402-2.789-.113-5.673.867-8.568 1.602-4.74 4.482-7.894 4.776-8.21 6.183-7.455 15.258-9.327 21.788-9.583a13.918 13.918 0 0 1 7.294 1.727 13.71 13.71 0 0 1 5.308 5.252c1.858 3.288 2.959 6.972 4.781 13.079l.705 2.355c.052.171.526 1.822.564 1.964 1.726 6.071 1.008 12.47-2.026 18.017a24.337 24.337 0 0 1-10.903 10.315zm-24.46-2.77c.236.18 2.276 1.697 5.661 2.756 2.1.655 4.303 1.01 6.544 1.053 2.805.055 5.684-.382 8.558-1.296 5.673-1.803 10.353-5.645 13.182-10.819a22.217 22.217 0 0 0 1.892-16.825c-.053-.188-.513-1.79-.56-1.94l-.704-2.357c-1.792-5.998-2.874-9.619-4.641-12.751a12.109 12.109 0 0 0-4.685-4.636 12.327 12.327 0 0 0-6.447-1.526c-6.205.243-14.818 2.006-20.62 9.019l-.036.04c-.028.03-2.926 3.122-4.46 7.695-.886 2.65-1.148 5.28-.776 7.815.465 3.168 1.93 6.216 4.355 9.06.02.021.036.043.052.067l2.632 3.853c.223.328.17.77-.121 1.037l-1.91 1.738a.81.81 0 0 1-1.27-.24l-.278-.573a4.955 4.955 0 0 0-2.91-2.548 4.994 4.994 0 0 0-3.872.286 4.951 4.951 0 0 0-2.437 2.778 4.889 4.889 0 0 0 .157 3.678 4.952 4.952 0 0 0 2.85 2.617 5.013 5.013 0 0 0 3.878-.194 4.967 4.967 0 0 0 1.434-1.029.813.813 0 0 1 1.15-.01l.378.373 3.003 2.879z" fill="#0129BD"/>
    <path d="M29.9 34.838c1.537.297 7.062 4.584 7.585 17.174.035.884-.218 1.77-.78 2.453-.715.868-1.943 1.484-3.828-.191a2.424 2.424 0 0 1-.49-.606 20.714 20.714 0 0 1-2.076-5.367l3.653-3.029-4.479-.486s-3.74-5.184-1.66-8.808c.422-.736 1.24-1.301 2.076-1.14z" fill="#0129BD"/>
    <path d="M51.032 17.246a.602.602 0 0 1-.864-.497l-.02-.275c-.286-3.99-.536-7.436-4.6-11.474a.593.593 0 0 1 0-.846.608.608 0 0 1 .854 0c4.382 4.352 4.658 8.18 4.95 12.235l.019.276a.587.587 0 0 1-.339.581z" fill="#fff"/>
    <path d="M44.447 31.343s6.78 1.828 7.074 15.708c.011.483-.099.963-.333 1.386-.492.893-1.56 2.017-3.507.576-2.89-2.145-3.121-6.663-3.121-6.663l2.618-1.864-4.047-.734c0-.003-3.655-9.307 1.316-8.41z" fill="#0129BD"/>
    <path d="M7.991 55.215a.606.606 0 0 1-.837-.352C5.896 51.054 5.12 44.513 5.965 40.85a.605.605 0 0 1 1.178.267c-.646 2.803-.335 8.847 1.162 13.376a.597.597 0 0 1-.314.723zM50.709 19.38c.389 0 .704-.312.704-.698a.702.702 0 0 0-.704-.698.702.702 0 0 0-.705.698c0 .386.315.699.705.699zM8.369 57.84c.389 0 .704-.313.704-.698a.702.702 0 0 0-.704-.699.702.702 0 0 0-.705.699c0 .385.316.698.705.698z" fill="#fff"/>
    <path d="M45.081 58.987c-.181 0-.366-.011-.553-.036a.854.854 0 1 1 .231-1.691c1.316.174 2.533-.745 2.712-2.05a2.36 2.36 0 0 0-.474-1.768 2.41 2.41 0 0 0-1.596-.92 2.409 2.409 0 0 0-2.712 2.05.859.859 0 0 1-.969.731.854.854 0 0 1-.738-.96c.303-2.238 2.387-3.818 4.647-3.515a4.11 4.11 0 0 1 2.736 1.575c.669.87.958 1.945.812 3.031-.28 2.055-2.059 3.553-4.096 3.553zM11.065 67.013a.764.764 0 0 1-.39-.109.744.744 0 0 1-.254-1.026 4.238 4.238 0 0 1 3.642-2.03c.416 0 .752.333.752.745a.747.747 0 0 1-.752.745c-.969 0-1.85.491-2.356 1.315a.746.746 0 0 1-.642.36zM30.265 62.792s6.367 6.931 17.958 3.291c0 0-2.727 7.602-11.718 4.876-7.77-2.357-6.24-8.167-6.24-8.167z" fill="#0129BD"/>
    <path d="M38.79 72.79c-.74 0-1.47-.1-2.18-.3-.096-.03-8.651-2.693-7.693-11.187-.08-.281-.647-1.07-1.244-1.724a.738.738 0 0 1-.017-.98.758.758 0 0 1 .98-.147c.113.07 11.385 7.097 20.684 4.174 1.11-.349 2.18-.944 3.176-1.77a.758.758 0 0 1 1.058.092.74.74 0 0 1-.091 1.048l-1.134.939c-.361.56-2.087 3.138-4.625 5.53-3.03 2.86-6.072 4.326-8.913 4.326zm-8.378-11.656c.013.1.016.196.005.284-.856 7.285 6.312 9.547 6.618 9.64 5.136 1.454 10.198-3.888 12.615-6.975-7.226 2.208-15.225-.944-19.238-2.95zm-1.487.194h.003-.003z" fill="#0129BD"/>
</svg>
