<svg width="462" height="299" viewBox="0 0 462 299" fill="none" xmlns="http://www.w3.org/2000/svg">
<path d="M28.4722 221.494C39.8207 219.306 48.9324 220.79 55.8073 225.952C62.6822 231.114 66.116 239.399 66.116 250.791C66.116 254.47 65.7718 258.104 65.0761 261.702C64.3804 265.299 63.2358 268.889 61.6424 272.478C60.0415 276.068 58.0441 279.302 55.6427 282.187C53.2414 285.065 50.1892 287.609 46.4787 289.797C42.7682 291.992 38.5863 293.542 33.9332 294.44L12.4407 298.593C8.00454 299.454 4.81768 298.949 2.8951 297.08C0.965032 295.219 0 291.362 0 285.525V239.866C0 231.285 4.1444 226.189 12.4407 224.587L28.4722 221.494ZM25.1956 281.408C27.0882 281.045 28.7415 280.526 30.1629 279.858C31.5843 279.191 32.9233 278.204 34.2026 276.914C35.4743 275.623 36.5141 274.036 37.3146 272.152C38.1151 270.268 38.7509 267.924 39.2222 265.128C39.6935 262.332 39.9329 259.098 39.9329 255.419C39.9329 251.31 39.5663 247.899 38.8407 245.191C38.1151 242.484 37.0602 240.526 35.6763 239.31C34.2923 238.101 32.7812 237.344 31.1504 237.048C29.5121 236.751 27.5296 236.796 25.2031 237.166V281.408H25.1956Z" fill="#0129BD"/>
<path d="M101.025 282.128C92.1456 283.841 84.8219 282.988 79.0391 279.554C73.2564 276.127 70.3613 270.483 70.3613 262.621C70.3613 254.114 73.2115 246.838 78.9269 240.793C84.6348 234.748 92.0035 230.854 101.025 229.119C109.539 227.472 115.77 227.769 119.743 229.994C123.707 232.219 125.69 235.935 125.69 241.127C125.69 242.136 125.563 243.137 125.308 244.123C125.054 245.11 124.65 246.111 124.111 247.112C123.565 248.121 122.84 249.093 121.927 250.02C121.014 250.954 119.982 251.837 118.815 252.675C117.648 253.513 116.264 254.247 114.671 254.885C113.07 255.516 111.357 256.013 109.539 256.361L94.1505 259.439C94.8762 261.605 96.1853 263.177 98.078 264.142C99.9706 265.113 102.372 265.313 105.282 264.75C108.409 264.149 111.611 263.133 114.887 261.709C116.271 261.086 117.783 260.211 119.413 259.105C121.052 258 122.234 257.37 122.959 257.229C124.194 256.992 125.159 257.17 125.854 257.756C126.543 258.342 126.894 259.18 126.894 260.263C126.894 261.56 126.311 263.244 125.151 265.306C123.984 267.368 122.368 269.519 120.296 271.759C118.224 273.999 115.478 276.098 112.06 278.056C108.626 280.014 104.953 281.371 101.025 282.128ZM93.6044 252.623C98.6241 251.585 101.355 251.021 101.788 250.932C102.881 250.724 103.681 249.916 104.19 248.522C104.556 247.513 104.736 246.178 104.736 244.524C104.736 239.977 103.352 237.975 100.592 238.509C99.5741 238.709 98.5717 239.436 97.5917 240.711C96.6117 241.98 95.7514 243.678 95.0258 245.807C94.2926 247.928 93.8213 250.198 93.6044 252.623Z" fill="#0129BD"/>
<path d="M176.215 253.335C178.325 252.927 179.963 252.905 181.122 253.253C182.282 253.609 183.09 254.284 183.524 255.278C183.958 256.28 184.182 257.711 184.182 259.588C184.182 261.968 183.367 263.697 181.728 264.765C180.09 265.84 177.202 266.775 173.051 267.576L140.86 273.791C138.384 274.266 136.11 273.858 134.038 272.567C131.966 271.269 130.926 269.259 130.926 266.515C130.926 263.489 131.322 261.049 132.123 259.194C132.923 257.348 134.741 254.744 137.576 251.377L151.872 233.688L143.905 235.223C139.978 235.979 137.142 235.987 135.392 235.245C133.649 234.503 132.774 232.901 132.774 230.446C132.774 227.776 133.387 225.878 134.629 224.735C135.863 223.593 138.444 222.644 142.379 221.887L175.549 215.486C178.242 214.967 180.367 215.294 181.93 216.473C183.494 217.652 184.279 219.536 184.279 222.132C184.279 224.587 183.95 226.523 183.299 227.947C182.641 229.371 180.935 231.9 178.167 235.534L161.687 256.243L176.215 253.335Z" fill="#0129BD"/>
<path d="M214.308 207.247C221.07 205.941 226.711 206.223 231.222 208.092C235.733 209.961 237.985 212.52 237.985 215.761C237.985 216.696 237.581 217.645 236.788 218.587C235.987 219.536 234.97 220.13 233.736 220.367C232.643 220.575 231.446 220.434 230.137 219.93C228.828 219.425 227.586 218.854 226.427 218.209C225.26 217.571 223.734 217.067 221.841 216.711C219.948 216.355 217.951 216.377 215.841 216.785C213.006 217.334 211.585 218.476 211.585 220.204C211.585 221.428 212.31 222.266 213.769 222.703C215.22 223.141 217.352 223.49 220.15 223.742C222.948 223.994 225.08 224.343 226.531 224.78C231.985 225.819 235.733 227.346 237.768 229.371C239.803 231.396 240.82 234.393 240.82 238.353C240.82 240.304 240.274 242.336 239.182 244.457C238.089 246.579 236.451 248.7 234.274 250.814C232.09 252.927 229.127 254.871 225.379 256.643C221.632 258.409 217.36 259.758 212.557 260.686C203.176 262.495 196.152 261.724 191.499 258.372C189.239 256.718 188.117 254.767 188.117 252.534C188.117 251.162 188.574 249.998 189.479 249.026C190.391 248.055 191.678 247.409 193.354 247.09C195.03 246.771 197.573 247.09 200.992 248.047C204.411 249.011 207.575 249.212 210.485 248.648C214.487 247.877 216.485 246.512 216.485 244.569C216.485 243.56 215.43 242.952 213.32 242.744C211.211 242.536 208.443 242.336 205.024 242.128C201.605 241.921 198.875 241.364 196.84 240.46C193.638 239.711 191.401 238.427 190.13 236.618C188.858 234.808 188.222 232.427 188.222 229.468C188.222 224.417 190.638 219.826 195.478 215.68C200.326 211.556 206.595 208.737 214.308 207.247Z" fill="#0129BD"/>
<path d="M305.291 225.811C307.184 225.448 308.366 224.766 308.837 223.772C309.309 222.778 309.548 221.057 309.548 218.602L309.66 199.214C309.66 195.899 310.603 193.281 312.496 191.367C314.388 189.454 317.59 188.059 322.101 187.184C324.068 186.806 325.662 186.709 326.904 186.91C328.138 187.102 329.215 187.599 330.12 188.4C331.033 189.201 331.721 190.544 332.193 192.435C332.664 194.327 333.008 196.641 333.233 199.377C333.449 202.114 333.562 205.645 333.562 209.969C333.562 213.796 332.963 217.386 331.759 220.753C330.562 224.12 329.028 226.961 327.173 229.268C325.318 231.574 323.156 233.629 320.68 235.446C318.203 237.263 315.735 238.672 313.259 239.688C310.782 240.705 308.314 241.454 305.838 241.936C299.943 243.071 294.526 242.284 289.582 239.555C284.704 244.176 279.325 247.053 273.43 248.188C270.954 248.663 268.501 248.871 266.062 248.796C263.623 248.73 261.154 248.27 258.641 247.417C256.135 246.571 253.928 245.355 252.043 243.768C250.15 242.188 248.609 239.941 247.404 237.033C246.208 234.126 245.602 230.766 245.602 226.939C245.602 219.796 245.931 214.456 246.582 210.903C247.24 207.351 248.325 204.762 249.858 203.13C251.384 201.499 253.786 200.371 257.062 199.741C260.114 199.148 262.553 199.044 264.371 199.415C266.189 199.785 267.483 200.579 268.246 201.803C269.009 203.027 269.391 204.755 269.391 206.995L269.503 226.234C269.503 227.317 269.518 228.088 269.555 228.548C269.593 229.008 269.683 229.572 269.825 230.224C269.967 230.885 270.191 231.307 270.483 231.508C270.775 231.708 271.171 231.864 271.68 231.982C272.189 232.101 272.839 232.079 273.647 231.93C276.557 231.367 278.263 230.21 278.779 228.452C278.121 224.254 277.799 219.663 277.799 214.686C277.799 210.503 277.941 207.21 278.233 204.814C278.525 202.418 279.161 200.401 280.141 198.762C281.121 197.13 282.34 195.958 283.799 195.246C285.25 194.534 287.33 193.919 290.016 193.392C292.417 192.932 294.31 192.776 295.686 192.947C297.07 193.11 298.192 193.837 299.067 195.105C299.943 196.381 300.519 198.161 300.81 200.445C301.102 202.737 301.244 205.971 301.244 210.154C301.244 215.205 300.953 219.945 300.369 224.387C300.893 225.871 302.531 226.345 305.291 225.811Z" fill="#0129BD"/>
<path d="M358.554 232.411C352.809 233.524 348.043 232.115 344.258 228.191C340.473 224.268 338.58 218.267 338.58 210.19C338.58 201.965 340.45 195.06 344.198 189.467C347.946 183.875 352.726 180.515 358.547 179.395C364.441 178.26 369.895 179.262 374.915 182.399C376.882 178.416 380.047 175.998 384.408 175.16C388.335 174.404 391.395 174.663 393.572 175.931C395.756 177.207 396.849 180.115 396.849 184.661V212.786C396.849 217.11 395.936 220.3 394.118 222.347C392.3 224.394 389.098 225.855 384.513 226.745C379.71 227.672 376.545 226.953 375.019 224.572C370.374 228.577 364.883 231.188 358.554 232.411ZM373.389 193.087C372.154 191.233 370.553 190.498 368.586 190.877C366.693 191.24 365.167 192.909 364 195.876C362.833 198.842 362.257 202.091 362.257 205.629C362.257 208.944 362.803 211.8 363.895 214.181C364.988 216.569 366.514 217.57 368.481 217.192C370.516 216.799 372.154 215.508 373.389 213.32V193.087Z" fill="#0129BD"/>
<path d="M427.184 224.782C427.184 230.627 426.204 234.98 424.236 237.851C422.269 240.721 419.254 242.546 415.177 243.332C411.1 244.118 408.123 243.562 406.23 241.648C404.337 239.742 403.395 235.9 403.395 230.13L403.178 184.516C403.178 180.043 404.27 176.55 406.454 174.035C408.639 171.521 411.549 169.912 415.185 169.214C418.02 168.666 420.316 168.569 422.059 168.918C423.802 169.266 425.112 170.364 425.987 172.218C431.007 167.353 436.393 164.371 442.138 163.259C447.958 162.139 452.724 163.629 456.434 167.746C460.145 171.862 462 178.07 462 186.362C462 194.439 460.107 201.167 456.329 206.551C452.544 211.936 447.779 215.177 442.033 216.29C436.505 217.358 431.56 217.091 427.191 215.474V224.782H427.184ZM427.184 202.821C428.418 204.601 430.057 205.298 432.091 204.905C434.059 204.526 435.585 202.932 436.677 200.128C437.769 197.325 438.315 194.261 438.315 190.939C438.315 187.408 437.732 184.382 436.572 181.86C435.405 179.346 433.879 178.27 431.987 178.634C430.019 179.012 428.418 180.369 427.184 182.698V202.821Z" fill="#0129BD"/>
<path d="M21.2835 167.96C21.2835 167.96 -4.8322 113.371 24.0365 82.3242C49.7857 54.6294 52.8678 61.5568 66.483 29.6788C72.2058 16.269 83.5768 5.94462 97.6259 1.71697C111.032 -2.31784 128.716 -0.463609 139.369 20.7192C142.294 26.5414 144.112 32.8384 144.897 39.2986C145.429 43.6746 145.885 49.5117 145.623 55.4081C145.002 69.5374 132.352 76.3684 120.255 72.6006C101.194 66.6596 83.9359 60.1476 50.2869 89.2665C50.2869 89.2665 37.3525 102.469 40.1952 127.241C41.1453 135.518 43.7486 143.529 47.7359 150.871L58.3887 169.725L47.13 180.725C47.13 180.717 40.6291 156.916 21.2835 167.96Z" fill="#0129BD"/>
<path d="M49.0164 172.491C45.1787 164.592 35.5284 161.336 27.6061 165.348C20.1477 169.123 16.9608 178.165 20.417 185.722C24.0826 193.755 33.6806 197.174 41.6477 193.369C43.3908 192.539 44.9094 191.433 46.1736 190.128L47.2135 191.159L55.4948 199.073C55.4948 199.073 78.5658 217.608 114.033 206.342C146.986 195.869 165.823 161.566 156.434 128.545C156.315 128.115 155.035 123.68 154.908 123.242C148.729 102.675 145.722 91.5274 140.186 81.737C133.685 70.2334 121.229 63.3579 107.936 63.8771C91.029 64.5372 66.6937 69.3508 50.2881 89.1837C50.2881 89.1837 17.6416 123.487 47.8194 158.851L54.9712 169.324L49.7794 174.048L49.0164 172.491Z" fill="white"/>
<path d="M123.389 204.972C120.591 206.307 117.681 207.456 114.681 208.413C106.363 211.061 98.0066 212.307 89.8599 212.136C83.3216 211.995 76.903 210.942 70.7837 209.006C60.3105 205.699 54.3482 200.966 54.1013 200.766C54.049 200.729 54.0041 200.685 53.9592 200.64L46.0968 193.127C45.0195 193.987 43.8451 194.729 42.5808 195.33C38.182 197.429 33.2372 197.673 28.6514 196.027C24.0656 194.373 20.4299 191.035 18.4101 186.622C16.5024 182.454 16.3005 177.759 17.8415 173.405C19.3826 169.051 22.4872 165.499 26.6016 163.422C30.948 161.219 35.8929 160.856 40.5235 162.398C44.7727 163.815 48.2513 166.671 50.4282 170.505L52.0815 169L46.0519 160.166C38.9451 151.807 34.6511 142.788 33.2895 133.354C32.1973 125.774 32.9828 117.934 35.646 110.065C39.9999 97.1814 47.8249 88.6074 48.6253 87.747C65.4274 67.484 90.0918 62.396 107.836 61.6988C114.764 61.4243 121.624 63.0486 127.661 66.3937C133.713 69.7387 138.695 74.6784 142.084 80.6713C147.133 89.6087 150.126 99.6215 155.078 116.221C155.684 118.245 156.32 120.382 156.993 122.621C157.135 123.089 158.422 127.576 158.527 127.962C163.217 144.464 161.265 161.857 153.021 176.936C146.288 189.248 135.957 198.971 123.389 204.972ZM56.9141 197.443C57.5575 197.933 63.1008 202.057 72.3023 204.935C78.0102 206.715 83.9949 207.679 90.0843 207.798C97.7074 207.946 105.532 206.759 113.342 204.274C128.76 199.372 141.478 188.929 149.168 174.866C156.866 160.782 158.684 144.538 154.308 129.134C154.166 128.622 152.916 124.268 152.789 123.86C152.116 121.613 151.48 119.484 150.874 117.452C146.004 101.149 143.064 91.3071 138.261 82.7925C135.269 77.5042 130.87 73.1431 125.529 70.1911C120.195 67.2392 114.135 65.8077 108.009 66.0451C91.1466 66.7052 67.739 71.4965 51.9693 90.558C51.9394 90.5951 51.902 90.6322 51.872 90.6693C51.7972 90.7509 43.9199 99.1543 39.753 111.585C37.3442 118.787 36.6335 125.937 37.6434 132.827C38.9077 141.438 42.8875 149.723 49.4781 157.451C49.5305 157.511 49.5754 157.57 49.6203 157.637L56.772 168.109C57.378 169 57.2358 170.201 56.4428 170.928L51.2511 175.653C50.7424 176.12 50.0392 176.313 49.3585 176.187C48.6777 176.06 48.1017 175.615 47.8024 175L47.0469 173.442C45.446 170.142 42.6331 167.687 39.1396 166.515C35.6385 165.35 31.9056 165.617 28.614 167.294C25.5094 168.866 23.1604 171.551 21.9934 174.844C20.8264 178.145 20.9835 181.69 22.4198 184.842C23.9459 188.18 26.6989 190.709 30.1625 191.955C33.6337 193.201 37.3741 193.016 40.7031 191.428C42.1693 190.724 43.486 189.789 44.6006 188.632C45.0121 188.209 45.5731 187.972 46.1566 187.965C46.7476 187.957 47.3087 188.187 47.7276 188.602L48.7525 189.619L56.9141 197.443Z" fill="#0129BD"/>
<path d="M81.261 94.6951C85.4353 95.5036 100.449 107.156 101.871 141.377C101.968 143.78 101.28 146.191 99.7537 148.045C97.8087 150.404 94.4722 152.08 89.3478 147.526C88.8167 147.051 88.3678 146.495 88.0162 145.879C86.8342 143.795 83.9915 138.322 82.3756 131.29L92.3027 123.057L80.1314 121.737C80.1314 121.737 69.9649 107.645 75.6204 97.7954C76.765 95.7928 78.9868 94.2575 81.261 94.6951Z" fill="#0129BD"/>
<path d="M138.687 46.879C138.508 46.968 138.306 47.0199 138.096 47.0347C137.191 47.1015 136.405 46.4265 136.338 45.5291L136.286 44.78C135.508 33.9364 134.827 24.5688 123.785 13.5918C123.142 12.9539 123.142 11.9229 123.785 11.2925C124.429 10.6547 125.468 10.6621 126.104 11.2925C138.014 23.1225 138.762 33.5285 139.555 44.55L139.607 45.2992C139.667 45.9815 139.278 46.6045 138.687 46.879Z" fill="white"/>
<path d="M120.791 85.1942C120.791 85.1942 139.217 90.1635 140.017 127.893C140.047 129.206 139.748 130.512 139.112 131.661C137.773 134.087 134.87 137.142 129.581 133.226C121.726 127.397 121.098 115.114 121.098 115.114L128.212 110.048L117.215 108.053C117.215 108.046 107.281 82.754 120.791 85.1942Z" fill="#0129BD"/>
<path d="M21.7178 150.084C21.6505 150.114 21.5832 150.144 21.5158 150.166C20.6555 150.448 19.7279 149.98 19.4436 149.127C16.0249 138.773 13.9153 120.995 16.2119 111.034C16.4139 110.159 17.2966 109.61 18.1794 109.81C19.0621 110.011 19.6157 110.886 19.4137 111.761C17.6557 119.378 18.5011 135.807 22.5707 148.119C22.825 148.898 22.451 149.736 21.7178 150.084Z" fill="white"/>
<path d="M137.808 52.6808C138.865 52.6808 139.723 51.8307 139.723 50.782C139.723 49.7334 138.865 48.8833 137.808 48.8833C136.75 48.8833 135.893 49.7334 135.893 50.782C135.893 51.8307 136.75 52.6808 137.808 52.6808Z" fill="white"/>
<path d="M22.7432 157.221C23.8009 157.221 24.6583 156.371 24.6583 155.322C24.6583 154.273 23.8009 153.423 22.7432 153.423C21.6855 153.423 20.8281 154.273 20.8281 155.322C20.8281 156.371 21.6855 157.221 22.7432 157.221Z" fill="white"/>
<path d="M122.516 160.337C122.022 160.337 121.521 160.307 121.012 160.24C119.733 160.07 118.835 158.905 119.007 157.63C119.179 156.361 120.361 155.457 121.64 155.642C125.216 156.117 128.523 153.617 129.009 150.072C129.241 148.351 128.785 146.645 127.722 145.266C126.66 143.886 125.119 143.003 123.383 142.766C119.793 142.284 116.501 144.791 116.015 148.336C115.843 149.605 114.661 150.502 113.381 150.324C112.102 150.153 111.205 148.989 111.377 147.713C112.199 141.631 117.863 137.337 124.004 138.16C126.982 138.553 129.615 140.074 131.44 142.44C133.258 144.806 134.044 147.728 133.647 150.68C132.884 156.265 128.051 160.337 122.516 160.337Z" fill="#0129BD"/>
<path d="M30.0715 182.154C29.7124 182.154 29.3459 182.058 29.0092 181.858C28.0442 181.279 27.7375 180.033 28.321 179.069C30.4381 175.613 34.1411 173.551 38.2182 173.551C39.3478 173.551 40.2605 174.456 40.2605 175.576C40.2605 176.696 39.3478 177.6 38.2182 177.6C35.5849 177.6 33.191 178.935 31.8145 181.175C31.4405 181.806 30.7597 182.154 30.0715 182.154Z" fill="#0129BD"/>
<path d="M82.2501 170.681C82.2501 170.681 99.5534 189.52 131.055 179.626C131.055 179.626 123.642 200.29 99.2093 192.88C78.0908 186.472 82.2501 170.681 82.2501 170.681Z" fill="#0129BD"/>
<path d="M105.421 197.858C103.408 197.858 101.426 197.583 99.4958 197.042C99.234 196.96 75.9834 189.722 78.5867 166.633C78.3698 165.869 76.8287 163.725 75.2054 161.945C74.5171 161.196 74.5022 160.054 75.1605 159.282C75.8188 158.511 76.9559 158.333 77.8237 158.882C78.1304 159.075 108.765 178.173 134.035 170.23C137.05 169.28 139.96 167.664 142.668 165.416C143.536 164.704 144.815 164.815 145.541 165.668C146.266 166.521 146.154 167.797 145.294 168.517L142.212 171.068C141.232 172.588 136.541 179.597 129.644 186.102C121.407 193.875 113.141 197.858 105.421 197.858ZM82.6489 166.173C82.6863 166.447 82.6937 166.707 82.6638 166.944C80.3373 186.747 99.8175 192.896 100.648 193.148C114.607 197.101 128.364 182.579 134.933 174.19C115.295 180.191 93.556 171.624 82.6489 166.173ZM78.6092 166.699H78.6167H78.6092Z" fill="#0129BD"/>
</svg>
