<svg id="eCdpKeqf20w1" xmlns="http://www.w3.org/2000/svg" xmlns:xlink="http://www.w3.org/1999/xlink" viewBox="0 0 140 80" shape-rendering="geometricPrecision" text-rendering="geometricPrecision" style="background-color:transparent"><g transform="translate(-8.425323-6.704393)"><g id="eCdpKeqf20w3" transform="translate(-135.145326-.050711)"><g transform="matrix(.527672 0 0 0.527672 180.946908 26.665406)"><path d="M18.7242,60.4255c0,0-8.4937-17.8188.8954-27.9532c8.3745-9.0401,9.3769-6.7789,13.805-17.1845c1.8613-4.3772,5.5595-7.74726,10.1288-9.12725c4.36-1.31704,10.1117-.71178,13.5763,6.20265.9513,1.9005,1.5426,3.956,1.798,6.0647.1728,1.4284.3212,3.3338.236,5.2585-.2019,4.612-4.3162,6.8418-8.2504,5.6119-6.1994-1.9392-11.8124-4.0649-22.7562,5.4401c0,0-4.2067,4.3094-3.2822,12.3956.309,2.7019,1.1557,5.3166,2.4525,7.7134l3.4647,6.1543-3.6617,3.5904c0-.0025-2.1143-7.7715-8.4062-4.1666Z" fill="#0129bd"/><path d="M27.742,61.9044c-1.2481-2.5784-4.3867-3.6412-6.9633-2.3315-2.4258,1.2323-3.4622,4.1836-2.3382,6.6506c1.1922,2.622,4.3138,3.7381,6.905,2.4961.5669-.2712,1.0608-.6319,1.472-1.058l.3382.3365l2.6934,2.5832c0,0,7.5034,6.0502,19.0385,2.3727C59.6051,69.5355,65.7315,58.3382,62.678,47.5598c-.0389-.1404-.455-1.5882-.4963-1.731-2.0097-6.7135-2.9878-10.3524-4.7882-13.5481-2.1143-3.755-6.1654-5.9993-10.4889-5.8298-5.4986.2154-13.4133,1.7867-18.7489,8.2605c0,0-10.6178,11.1973-.8029,22.7407l2.3259,3.4185-1.6885,1.5422-.2482-.5084Z" fill="#fff"/><path d="M51.9297,72.5067c-.91.4358-1.8564.811-2.8321,1.1234-2.7055.8643-5.4232,1.271-8.0728,1.2153-2.1265-.046-4.214-.3898-6.2042-1.0217-3.4063-1.0797-5.3454-2.6244-5.4257-2.6897-.017-.0121-.0316-.0267-.0462-.0412l-2.5572-2.4525c-.3503.2809-.7323.523-1.1435.7191-1.4306.6851-3.0389.765-4.5303.2275-1.4915-.5398-2.6739-1.6293-3.3308-3.0698-.6205-1.3606-.6861-2.8931-.1849-4.3143s1.5109-2.5808,2.849-3.2587c1.4136-.719,3.0219-.8377,4.5279-.3341c1.382.4624,2.5134,1.3945,3.2214,2.6462l.5377-.4915-1.9611-2.8834c-2.3113-2.7285-3.7079-5.6725-4.1507-8.752-.3552-2.4743-.0998-5.0334.7664-7.6021c1.416-4.2053,3.961-7.004,4.2213-7.2848c5.4646-6.6143,13.4863-8.2751,19.2575-8.5027c2.253-.0896,4.4841.4406,6.4476,1.5325c1.9683,1.0919,3.5887,2.7043,4.6908,4.6605c1.6423,2.9173,2.6156,6.1857,4.2262,11.604.1971.6609.4039,1.3582.6229,2.0893.0462.1526.4647,1.6173.4988,1.7432c1.5255,5.3868.8905,11.0641-1.7907,15.986-2.1898,4.0189-5.5498,7.1929-9.6373,9.1515Zm-21.62-2.4573c.2093.1597,2.0121,1.5058,5.0048,2.4452c1.8564.581,3.8028.8958,5.7833.9345c2.4793.0484,5.0242-.3389,7.5643-1.15c5.0145-1.6003,9.1507-5.0091,11.6518-9.5994c2.5036-4.5975,3.0949-9.8995,1.6715-14.928-.0462-.1671-.4525-1.5882-.4939-1.7214-.2189-.7335-.4258-1.4284-.6228-2.0917-1.5839-5.3214-2.5401-8.5341-4.1021-11.3135-.9732-1.7262-2.4039-3.1497-4.1411-4.1133-1.7347-.9636-3.7055-1.4308-5.6981-1.3534-5.4841.2155-13.0971,1.7795-18.2259,8.0015-.0098.0121-.0219.0242-.0317.0363-.0243.0267-2.5863,2.7697-3.9415,6.8273-.7834,2.3509-1.0146,4.6847-.6861,6.9339.4112,2.8108,1.7056,5.5151,3.8491,8.0378.017.0193.0316.0387.0462.0605l2.326,3.4185c.1971.2905.1508.6827-.1071.92l-1.6885,1.5422c-.1654.1525-.3941.2155-.6156.1743s-.4087-.1864-.506-.3874l-.2458-.5084c-.5206-1.0773-1.4355-1.8787-2.5717-2.2612-1.1386-.3801-2.3527-.293-3.4233.2542-1.0097.5132-1.7737,1.3896-2.1532,2.4646-.3796,1.0773-.3285,2.2346.1387,3.2635.4963,1.0895,1.3917,1.9151,2.5182,2.3218c1.1289.4067,2.3454.3462,3.4281-.1719.4769-.23.9051-.535,1.2676-.9127.1339-.138.3163-.2155.5061-.2179.1922-.0024.3747.0726.5109.2082l.3334.3317l2.6544,2.5542Z" fill="#0129bd"/><path d="M38.2302,36.5103c1.3577.2639,6.2408,4.0673,6.7031,15.238.0316.7844-.1923,1.5712-.6886,2.1765-.6326.7699-1.7177,1.317-3.3843-.1695-.1728-.1549-.3188-.3365-.4331-.5375-.3844-.6803-1.309-2.467-1.8345-4.7621l3.2286-2.6874-3.9585-.4309c0,0-3.3065-4.6-1.4672-7.8151.3723-.6537,1.0949-1.1548,1.8345-1.012Z" fill="#0129bd"/><path d="M51.0842,33.4091c0,0,5.9926,1.6221,6.2529,13.9379.0097.4285-.0876.8546-.2944,1.2299-.4355.7916-1.3795,1.7891-3.0997.5108-2.5547-1.9029-2.759-5.9122-2.759-5.9122l2.3138-1.6535-3.5766-.6513c0-.0024-3.2311-8.2581,1.163-7.4616Z" fill="#0129bd"/><path d="M51.2677,33.3683c0,0,5.956,1.7529,5.939,14.0735c0,.4285-.107.8522-.3236,1.2226-.4525.782-1.4209,1.7601-3.1094.443-2.5109-1.9586-2.6252-5.9726-2.6252-5.9726l2.3503-1.6027-3.5596-.7312c0,0-3.0461-8.3259,1.3285-7.4326Z" fill="#0129bd"/><path d="M56.9098,20.9022c-.0584.0291-.1241.046-.1922.0508-.2944.0218-.5499-.1985-.5718-.4914l-.017-.2445c-.253-3.5396-.4745-6.5973-4.0656-10.1805-.2093-.20818-.2093-.5447,0-.75049.2092-.20821.5474-.20579.7542,0C56.6908,13.1476,56.9341,16.5444,57.192,20.142l.0171.2445c.0194.2228-.1071.4261-.2993.5157Z" fill="#fff"/><path d="M18.8643,54.5908c-.0219.0097-.0438.0194-.0657.0266-.2798.092-.5815-.0605-.6739-.3389-1.1119-3.3798-1.7981-9.183-1.0511-12.4344.0657-.2857.3528-.4649.6399-.3995s.4671.3511.4014.6367c-.5717,2.4864-.2968,7.849,1.0268,11.8679.0827.2542-.039.5278-.2774.6416Z" fill="#fff"/><path d="M56.6209,22.7957c.344,0,.6229-.2775.6229-.6198s-.2789-.6197-.6229-.6197-.6229.2774-.6229.6197.2789.6198.6229.6198Z" fill="#fff"/><path d="M19.1971,56.9197c.344,0,.6228-.2774.6228-.6197s-.2788-.6198-.6228-.6198-.6229.2775-.6229.6198.2789.6197.6229.6197Z" fill="#fff"/><path d="M51.6482,57.9364c-.1606,0-.3236-.0096-.489-.0314-.4161-.0557-.708-.4358-.6521-.8522.056-.414.4404-.7094.8565-.6489c1.1629.155,2.2383-.6609,2.3965-1.8182.0754-.5616-.073-1.1185-.4185-1.5688s-.8467-.7384-1.4111-.8159c-1.1679-.1573-2.2384.661-2.3966,1.8182-.056.414-.4404.707-.8564.6488-.4161-.0556-.708-.4357-.6521-.8522.2677-1.9852,2.1095-3.387,4.107-3.1182.9683.1283,1.8248.6246,2.4184,1.3969.5913.7723.8467,1.7262.7178,2.6898-.2482,1.823-1.8199,3.1521-3.6204,3.1521Z" fill="#0129bd"/><path d="M21.5825,65.0589c-.1168,0-.236-.0315-.3455-.0969-.3139-.1888-.4137-.5955-.2239-.9103.6886-1.1282,1.8929-1.8012,3.2189-1.8012.3674,0,.6643.2954.6643.6609c0,.3656-.2969.661-.6643.661-.8564,0-1.635.4358-2.0826,1.1669-.1217.2058-.3431.3196-.5669.3196Z" fill="#0129bd"/><path d="M38.5533,61.314c0,0,5.6277,6.1494,15.8732,2.9197c0,0-2.4112,6.745-10.3575,4.3264-6.8684-2.0918-5.5157-7.2461-5.5157-7.2461Z" fill="#0129bd"/><path d="M46.0885,70.1848c-.6545,0-1.2992-.0895-1.927-.2663-.0851-.0266-7.647-2.3895-6.8003-9.9262-.0706-.2494-.5718-.949-1.0997-1.5301-.2239-.2445-.2288-.6173-.0146-.8691s.5839-.3099.8661-.1308c.0998.063,10.0631,6.2971,18.2819,3.7042.9805-.3099,1.9269-.8377,2.8077-1.5712.2822-.2325.6983-.1961.9343.0823s.1995.6948-.0803.9297l-1.0024.8328c-.3188.4963-1.8443,2.7842-4.0875,4.9074-2.6788,2.5372-5.3673,3.8373-7.8782,3.8373ZM38.6823,59.8422c.0122.0896.0146.1743.0049.2518-.7567,6.4641,5.5789,8.4712,5.849,8.5535c4.5401,1.2904,9.0144-3.45,11.1506-6.1882-6.3867,1.9587-13.4571-.8376-17.0045-2.6171Zm-1.3138.1719h.0024-.0024Z" fill="#0129bd"/></g></g><g id="eCdpKeqf20w19" transform="matrix(0 1-1 0 124.711099 22.228382)" opacity="0"><path d="M19.0745,0.980407h90.9255c6.086,0,11.02,4.933643,11.02,11.019593v39.3833c0,6.086-4.934,11.0196-11.02,11.0196h-83.5852c-2.9827,0-5.755,1.2637-8.0557,2.9016-3.0349,2.1606-8.0368,4.8235-14.22578,4.8235-.95473,0-1.69905-.0054-2.27146-.0234.10901-.0964.22719-.2016.35547-.3175C4.39696,67.8177,8.0549,63.976,8.05491,56.7166v-44.7241c0-6.08513,4.93289-11.012093,11.01959-11.012093Z" transform="matrix(.461417 0 0 0.461417 64.883642 25.610119)" fill="#fff" stroke="#0129bd" stroke-width="3"/><g transform="translate(.000001 0)"><path d="M2.770826,5.45875c-.19006,0-.389631-.014252-.598698-.042756-.204323-.023754-.399141-.061754-.584449-.114012s-.351623-.114011-.498923-.185272c-.128293-.061753-.218571-.142516-.270839-.242275-.052268-.10451-.071274-.21377-.057019-.327782s.054643-.213777.121165-.299283c.066524-.090264.154429-.149645.263715-.178143.109285-.033256.232826-.019003.370623.04275.180563.085513.384885.152017.61296.199524s.441901.071255.641465.071255c.313608,0,.532179-.040378.65572-.121134.128293-.085513.192446-.190023.192446-.313536c0-.109261-.045146-.197146-.135424-.263657-.085526-.066503-.239958-.123512-.463281-.171013l-.83391-.17815c-.45615-.095008-.79589-.261278-1.019219-.498802s-.334986-.543937-.334986-.919226c0-.247025.049891-.470297.149677-.669822.104534-.204275.249455-.377668.43477-.520181.190067-.142516.41339-.251778.669976-.327787.261337-.080758.551186-.121137.869546-.121137.247082,0,.496543.028502.748377.085509.256586.052256.477537.133015.662851.242277.109286.057005.187688.135389.2352.235147s.066525.204275.057022.313536c-.009504.10451-.047519.197146-.114038.277909-.061773.080756-.1473.135386-.256585.16389-.104541.023754-.230455.004751-.377755-.057009-.137796-.061753-.2946-.106881-.470412-.135386-.171052-.033255-.33736-.049879-.498916-.049879-.175811,0-.325484.021375-.449025.064131-.123541.038-.218578.095009-.285097.171021-.061774.076005-.092657.16389-.092657.263649s.040387.185273.121168.256527c.085527.066511.239951.123513.463281.171021l.826779.178143c.460902.099759.805393.263656,1.033475.491679s.342112.524934.342112.890721c0,.247026-.049891.470304-.149673.669823s-.24233.370544-.427645.51306c-.185315.137765-.408638.244647-.669976.320659s-.555938.114011-.883801.114011Zm4.001097,0c-.304104,0-.553565-.05463-.748377-.163891-.194819-.114017-.342119-.282659-.441901-.505931-.095037-.223278-.142548-.505931-.142548-.847971v-1.496413c0-.209019.054642-.365787.163928-.470297.109285-.10926.266089-.163897.470412-.163897s.361119.054637.470405.163897c.109285.10451.163935.261278.163935.470297v1.532046c0,.171014.035635.299284.106906.384791s.182916.128263.334988.128263c.17104,0,.311215-.061759.420527-.185272s.163902-.287404.163902-.491679v-1.368149c0-.209019.054656-.365787.163968-.470297.109246-.10926.266077-.163897.470425-.163897s.361113.054637.470359.163897c.109312.10451.163968.261278.163968.470297v2.358636c0,.427548-.204348.641318-.61298.641318-.19959,0-.353975-.05463-.463287-.163891s-.163902-.268407-.163902-.477427v-.413295l.114004.349164c-.104553.232773-.251801.410916-.441874.534429-.185315.123513-.406252.185272-.662858.185272Zm4.758159,0c-.394356,0-.73888-.073633-1.033507-.220899-.289802-.147267-.515498-.358665-.677087-.634195-.161523-.280281-.24235-.608063-.24235-.983358c0-.285032.045139-.53918.135483-.762459.090279-.228022.220938-.420417.391977-.577185.175798-.156768.382526-.27553.620052-.356286.24235-.085514.510806-.128264.805432-.128264.137797,0,.282731.014246.434737.04275.152072.023754.308902.071261.470425.142516.114071.042757.192453.10926.235213.199525.047518.085506.066552.178143.057035.277902-.004759.099759-.033243.190023-.08552.270779-.047518.080763-.11645.135393-.206728.163897-.08552.028498-.182936.016625-.292181-.035634-.07607-.037999-.156831-.064131-.242351-.078384-.080761-.018996-.159209-.028497-.235212-.028497-.12828,0-.24235.018996-.342145.057002-.094971.038006-.175799.095008-.242285.17102-.066552.071255-.118828.161519-.15683.270779-.033243.109261-.049897.232774-.049897.370539c0,.27553.068931.491679.206727.648447s.332563.235152.58443.235152c.076003,0,.154451-.00713.235212-.021375.080762-.019003.161523-.047508.242351-.085514.109245-.052251.206661-.061753.292181-.028504.08552.028504.154451.083135.206728.163897s.080761.171014.08552.270779c.004758.095009-.016655.187645-.064173.277903-.047518.085513-.12828.149645-.242284.192395-.15683.071261-.311282.118762-.463287.142516-.147314.028504-.289869.042756-.427666.042756Zm3.382725,0c-.394356,0-.738881-.073633-1.033441-.220899-.289869-.147267-.515565-.358665-.677153-.634195-.161523-.280281-.242284-.608063-.242284-.983358c0-.285032.045139-.53918.135417-.762459.090278-.228022.220937-.420417.391977-.577185.175798-.156768.382526-.27553.620117-.356286.242285-.085514.510806-.128264.805367-.128264.137797,0,.282731.014246.434803.04275.152006.023754.308836.071261.470359.142516.11407.042757.192452.10926.235212.199525.047519.085506.066552.178143.057035.277902-.004758.099759-.033243.190023-.085519.270779-.047519.080763-.11645.135393-.206728.163897-.08552.028498-.182936.016625-.292182-.035634-.076069-.037999-.15683-.064131-.24235-.078384-.080761-.018996-.159144-.028497-.235213-.028497-.128279,0-.24235.018996-.342079.057002-.095037.038006-.175864.095008-.24235.17102-.066552.071255-.118829.161519-.15683.270779-.033243.109261-.049898.232774-.049898.370539c0,.27553.068931.491679.206728.648447s.332628.235152.584429.235152c.076069,0,.154452-.00713.235213-.021375.080761-.019003.161589-.047508.24235-.085514.109246-.052251.206662-.061753.292182-.028504.085586.028504.154451.083135.206728.163897s.080761.171014.085519.270779c.004759.095009-.016654.187645-.064172.277903-.047519.085513-.12828.149645-.242285.192395-.15683.071261-.311281.118762-.463287.142516-.147313.028504-.289868.042756-.427665.042756Zm3.503933,0c-.427665,0-.798295-.073633-1.11189-.220899-.308836-.152018-.546428-.365788-.712775-.641318s-.249422-.60094-.249422-.976235c0-.361037.078382-.676945.235213-.947724.161522-.27553.38008-.489307.655673-.641325.280352-.156768.598705-.235145.955126-.235145.261318,0,.498909.04275.712709.128264.213799.080756.396735.201896.548807.363408.152072.156768.266076.346792.342145.570063.080762.223279.121142.472676.121142.748207c0,.095014-.026105.166269-.078382.213776-.052277.042757-.135417.064132-.249488.064132h-2.180953v-.598567h1.582249l-.114005.092636c0-.175771-.023792-.318287-.07131-.427547s-.118763-.192396-.2138-.249405c-.090278-.057002-.204348-.085506-.342145-.085506-.147247,0-.275593.035627-.384839.106888-.104554.066504-.185315.16627-.24235.299284s-.08552.299277-.08552.498802v.064131c0,.33729.073624.579565.220937.726831.152072.142516.384905.213771.6985.213771.104553,0,.223316-.011874.356354-.035628.137797-.028504.268456-.06651.392043-.114011s.230454-.05463.320733-.021381c.090278.028504.159143.080762.206661.156768.052277.071261.080762.154395.08552.249404.004759.090257-.016588.180521-.064107.270779-.047518.085507-.125966.152017-.235212.199525-.166347.076005-.344525.133014-.534598.171013-.185315.038006-.373009.057009-.563016.057009Zm3.440288,0c-.209041,0-.422907-.016624-.641464-.049879-.2138-.028505-.408632-.083135-.58443-.163898-.118829-.047501-.204349-.111632-.256625-.192395-.047519-.080756-.071245-.166263-.071245-.256527.004759-.090258.030864-.17102.078382-.242275.052277-.076005.118829-.128263.199591-.156768.085519-.033255.180556-.030876.28511.00713.199524.071254.377701.123512.534531.156761.161523.028505.315974.042757.463288.042757.175798,0,.301698-.023754.377767-.071255.076003-.052258.114005-.118762.114005-.199525c0-.071254-.026106-.125884-.078382-.16389-.047519-.038006-.11645-.064132-.206728-.078384l-.791092-.128264c-.294627-.052258-.522701-.159146-.68429-.320659-.161523-.166269-.242284-.382418-.242284-.648447c0-.247025.068865-.458423.206662-.634194.142555-.180522.335007-.318287.577357-.413295.247043-.099759.529774-.149639.848127-.149639.213865,0,.408631.016624.584429.04988.175864.028497.346904.083134.513185.16389.104554.042757.178177.10451.220937.185273s.059415.166263.049898.256527c-.009451.085507-.040381.166269-.092658.242275-.047518.071254-.114004.12114-.199524.149638-.08552.023754-.185315.016631-.299385-.021375-.156764-.061753-.29694-.106888-.420528-.135386-.118762-.028505-.230454-.042757-.334941-.042757-.194832,0-.332629.026126-.41339.078384s-.121208.118762-.121208.199518c0,.06176.021413.114018.064173.156768.04276.038006.109312.064132.19959.078384l.791091.135393c.304144.047501.536977.152017.6985.31353.166347.156767.249488.370544.249488.641324c0,.38479-.147314.684074-.44194.897844-.294561.209026-.686604.313536-1.175997.313536Zm3.535854,0c-.209041,0-.422907-.016624-.641465-.049879-.213799-.028505-.408631-.083135-.584429-.163898-.118829-.047501-.204349-.111632-.256625-.192395-.047519-.080756-.071245-.166263-.071245-.256527.004759-.090258.030864-.17102.078382-.242275.052277-.076005.118829-.128263.19959-.156768.08552-.033255.180557-.030876.285111.00713.199524.071254.377701.123512.534531.156761.161589.028505.315974.042757.463288.042757.175798,0,.301698-.023754.377767-.071255.076003-.052258.114005-.118762.114005-.199525c0-.071254-.026106-.125884-.078383-.16389-.047518-.038006-.116449-.064132-.206727-.078384l-.791092-.128264c-.294627-.052258-.522701-.159146-.684224-.320659-.161589-.166269-.24235-.382418-.24235-.648447c0-.247025.068865-.458423.206661-.634194.142555-.180522.335008-.318287.577358-.413295.247043-.099759.529774-.149639.848127-.149639.213865,0,.408631.016624.584495.04988.175798.028497.346838.083134.513119.16389.104554.042757.178243.10451.221003.185273s.059349.166263.049898.256527c-.009517.085507-.040447.166269-.092658.242275-.047518.071254-.11407.12114-.19959.149638-.08552.023754-.185315.016631-.299385-.021375-.156765-.061753-.29694-.106888-.420462-.135386-.118829-.028505-.230454-.042757-.335007-.042757-.194832,0-.332629.026126-.41339.078384s-.121208.118762-.121208.199518c0,.06176.021413.114018.064173.156768.04276.038006.109312.064132.19959.078384l.791157.135393c.304078.047501.536911.152017.698434.31353.166347.156767.249488.370544.249488.641324c0,.38479-.147314.684074-.441874.897844-.294627.209026-.68667.313536-1.176063.313536Zm3.072567-.014252c-.204283,0-.361113-.05463-.470359-.163891s-.163968-.268407-.163968-.477427v-1.99522h-.185315c-.152006,0-.270835-.040378-.356355-.121134-.080761-.080763-.121142-.197153-.121142-.349163s.040381-.266029.121142-.342041c.08552-.080756.204349-.121141.356355-.121141h.548807l-.363492.334918v-.199525c0-.527306.130659-.921598.392042-1.182876.266077-.266032.660433-.425174,1.183135-.47743l.206661-.021377c.152072-.019002.273214,0,.363493.057006.090344.052256.152072.123514.185315.213774.033309.085509.040446.175769.021413.270777-.014276.095015-.049898.175771-.106933.242275s-.133038.104517-.228075.114018l-.099795.007123c-.242284.019003-.411011.071261-.506047.156768s-.142489.211398-.142489.377668v.235152l-.156831-.128271h.563083c.156764,0,.275593.040385.356354.121141.080762.076012.121142.190023.121142.342041s-.04038.2684-.121142.349163-.19959.121134-.356354.121134h-.406252v1.99522c0,.427548-.211487.641318-.634393.641318Zm3.245456.014252c-.304144,0-.553565-.05463-.748397-.163891-.194832-.114017-.342079-.282659-.441875-.505931-.095036-.223278-.142555-.505931-.142555-.847971v-1.496413c0-.209019.054656-.365787.163902-.470297.109312-.10926.266077-.163897.470425-.163897s.361113.054637.470425.163897c.109246.10451.163902.261278.163902.470297v1.532046c0,.171014.035623.299284.106933.384791s.182936.128263.335008.128263c.171039,0,.311215-.061759.420461-.185272s.163968-.287404.163968-.491679v-1.368149c0-.209019.054656-.365787.163902-.470297.109312-.10926.266142-.163897.470425-.163897s.361113.054637.470425.163897c.109246.10451.163902.261278.163902.470297v2.358636c0,.427548-.204283.641318-.612914.641318-.19959,0-.354041-.05463-.463287-.163891s-.163968-.268407-.163968-.477427v-.413295l.11407.349164c-.104553.232773-.251867.410916-.44194.534429-.185315.123513-.406252.185272-.662812.185272Zm4.301963,0c-.456149,0-.79347-.12114-1.012094-.363415-.2138-.247026-.320732-.617564-.320732-1.111622v-3.049833c0-.209021.054656-.368163.163968-.477425s.263697-.163893.463287-.163893c.204283,0,.361113.054631.470425.163893.114004.109262.17104.268404.17104.477425v3.007077c0,.17577.033243.304034.099795.384797.071244.080756.161523.121134.270835.121134.033243,0,.066486-.002372.099795-.007123.038001-.009502.078382-.016631.121142-.021382.080761,0,.140176.030883.178177.092637.04276.061759.064173.187644.064173.377667c0,.16627-.033309.292155-.099795.377668-.066552.080756-.168661.133014-.306457.156768-.038068.004751-.092658.011874-.163968.021375s-.137797.014252-.199591.014252Zm2.477894,0c-.45615,0-.793471-.12114-1.012095-.363415-.213799-.247026-.320732-.617564-.320732-1.111622v-3.049833c0-.209021.054656-.368163.163968-.477425s.263697-.163893.463287-.163893c.204283,0,.361113.054631.470359.163893.114071.109262.171106.477425.171106.477425v3.007077c0,.17577.033243.304034.099795.384797.071245.080756.161523.121134.270835.121134.033243,0,.066486-.002372.099795-.007123.038001-.009502.078382-.016631.121142-.021382.080761,0,.140176.030883.178177.092637.04276.061759.064173.187644.064173.377667c0,.16627-.033309.292155-.099795.377668-.066552.080756-.168726.133014-.306523.156768-.038001.004751-.092658.011874-.163902.021375s-.137797.014252-.19959.014252Zm2.066883,1.26841c-.147314,0-.266143-.038026-.356421-.114032s-.147247-.17577-.17104-.299283c-.018967-.123513.00238-.254155.064173-.39192l.477497-1.033238v.513054L39.353097,2.615565c-.061793-.142516-.08314-.27553-.064172-.399043.023792-.123513.087899-.2209.192452-.292154.104554-.076012.247109-.114018.427665-.114018.152006,0,.273214.035634.363492.106888.095037.066511.180557.199525.25656.399043l.712775,1.852705h-.24235l.755535-1.859828c.076003-.194774.161523-.325409.256559-.39192.099795-.071254.232834-.106888.399115-.106888.142555,0,.256625.038006.342145.114018.08552.071254.137797.168641.156764.292154s-.002313.256527-.064106.399043L41.227594,6.249713c-.08552.190017-.180557.315908-.28511.377661-.099796.066511-.228075.099786-.384839.099786ZM4.79245,15.369882c-.394382,0-.738873-.073607-1.033474-.220887-.289849-.147279-.515551-.358651-.677107-.634181-.161549-.280288-.24233-.608082-.24233-.983385c0-.284978.045139-.539166.135424-.762432.090278-.228022.22095-.420431.392003-.577225.175812-.156728.382506-.275464.620085-.356273.242337-.0855.510799-.12825.805399-.12825.137797,0,.282718.014272.43477.04275.152052.023787.308856.071294.470412.142522.114037.04275.192439.109287.235206.199545.047512.0855.066519.178136.057015.277909-.004752.099706-.033256.189963-.085526.270772-.047518.080743-.116417.135387-.206695.163865-.085526.028544-.182936.01665-.292221-.035615-.07603-.037992-.156804-.064158-.242337-.078364-.080775-.019029-.159177-.028544-.2352-.028544-.128299,0-.242336.01903-.342118.057022-.09503.037993-.175812.095015-.242331.171001-.066525.071294-.118789.161552-.156804.270772-.033263.109287-.049891.23278-.049891.370545c0,.27553.068899.491726.206695.648454s.332609.235159.584449.235159c.076023,0,.154425-.007137.2352-.021342.080781-.01903.161556-.047508.242337-.085567.109285-.052199.206695-.061713.292221-.028478.085526.028478.154425.083122.206695.163865s.080774.171066.085526.270838c.004752.095015-.016628.187585-.064146.277909-.047512.0855-.128293.149592-.242331.192342-.156803.071295-.311228.118802-.46328.142523-.147301.028544-.289849.04275-.427646.04275Zm3.368456,0c-.389597,0-.729363-.073607-1.019166-.220887s-.515577-.358651-.677133-.634181-.24233-.600946-.24233-.976249c0-.285044.045139-.539166.135417-.762431.090285-.228023.220951-.420432.39201-.577226.171033-.161486.375382-.2826.612973-.363409.237592-.0855.503668-.12825.798229-.12825.389664,0,.729364.073607,1.019232.220886s.513185.358652.670016.634182c.161522.270839.242284.596189.242284.976248c0,.280288-.045139.534476-.135418.762498s-.220937.422744-.391976.584296c-.166348.156728-.37063.277908-.61298.363409-.237592.080742-.501289.121114-.791158.121114Zm0-.933432c.128346,0,.24235-.030923.342146-.092637.099795-.066536.175798-.16393.228074-.29218.057036-.133008.08552-.304008.08552-.513068c0-.31828-.061793-.546302-.185315-.684067-.123521-.142523-.280351-.213751-.470425-.213751-.128279,0-.242284.030857-.342079.092636s-.178177.159107-.235212.292115c-.057036.128316-.08552.299317-.08552.513067c0,.313523.061727.541546.185315.684068s.282731.213817.477496.213817Zm3.15432.919226c-.199525,0-.353976-.054644-.463222-.163931s-.163968-.268394-.163968-.477387v-2.358656c0-.204301.052277-.36103.156831-.470317.109246-.109221.263697-.163864.463287-.163864s.351596.054643.45615.163864.156764.266016.156764.470317v.391887l-.078382-.349136c.099795-.208994.247108-.375303.441874-.498796.19959-.12825.434803-.192408.705638-.192408.256559,0,.475183.061779.65574.185272.185314.123493.318353.311144.399114.562954h-.099795c.109312-.23278.273214-.415674.491772-.548682s.460908-.199544.72705-.199544c.275593,0,.501289.054643.677087.163864.175798.10453.306457.270839.391977.498862.090278.223265.135417.505931.135417.847932v1.496451c0,.208993-.056969.368167-.171039.477387-.109246.109287-.266077.163931-.470425.163931-.199525,0-.353976-.054644-.463288-.163931s-.163902-.268394-.163902-.477387v-1.460837c0-.204236-.030863-.351516-.092657-.441773s-.163902-.135387-.306457-.135387c-.175798,0-.311216.06178-.406252.185273-.090278.123493-.135418.29925-.135418.527273v1.325451c0,.208993-.054656.368167-.163968.477387s-.266076.163931-.470425.163931-.361113-.054644-.470359-.163931-.163968-.268394-.163968-.477387v-1.460837c0-.204236-.030863-.351516-.092657-.441773s-.163902-.135387-.306457-.135387c-.17104,0-.304144.06178-.399114.185273-.090345.123493-.135484.29925-.135484.527273v1.325451c0,.427501-.213799.641318-.641464.641318Zm6.417157,1.282635c-.19959,0-.353975-.054643-.463287-.16393s-.163968-.268394-.163968-.477388v-3.641291c0-.204301.052276-.36103.15683-.470317.109312-.109221.263697-.163864.463287-.163864.204349,0,.358734.054643.463288.163864.109312.109287.163902.266016.163902.470317v.413295l-.078383-.349136c.066553-.213817.204349-.384817.41339-.513068.2138-.133007.45615-.199544.726985-.199544.304143,0,.57022.073607.798295.220886.232833.14728.413389.356273.541669.627112s.192453.598567.192453.983318c0,.375303-.064173.700719-.192453.976249s-.308836.486902-.541669.634181c-.228075.14728-.494152.220887-.798295.220887-.261318,0-.496531-.061714-.705572-.185273s-.349283-.284978-.420527-.484523h.08552v1.296907c0,.208994-.057036.368167-.17104.477388-.109312.109287-.266142.16393-.470425.16393Zm1.282929-2.201861c.12828,0,.239971-.030923.335008-.092637.099729-.066536.178177-.16393.235146-.29218.057035-.133008.085586-.304008.085586-.513068c0-.31828-.061794-.546302-.185315-.684067-.123587-.142523-.280351-.213751-.470425-.213751-.12828,0-.24235.030857-.342145.092636s-.178177.159107-.235213.292115c-.056969.128316-.085519.299317-.085519.513067c0,.313523.061793.541546.185315.684068s.28273.213817.477562.213817Zm3.842509.933432c-.456149,0-.793536-.121114-1.012094-.363409-.2138-.246986-.320732-.617531-.320732-1.111635v-3.049793c0-.209059.054656-.368166.163901-.477453s.263764-.163865.463288-.163865c.204349,0,.361113.054644.470425.163865.11407.109287.171039.268394.171039.477453v3.007043c0,.175824.03331.304074.099796.384817.07131.080743.161588.121114.270834.121114.033309,0,.066552-.002378.099795-.007136.038002-.009448.078383-.016584.121142-.021342.080828,0,.140176.030857.178244.092637.04276.061779.064107.187651.064107.37768c0,.166244-.033243.292115-.099796.377615-.066486.080809-.16866.133074-.306457.156795-.038001.004757-.092657.011893-.163901.021408s-.137797.014206-.199591.014206Zm3.020422,0c-.427665,0-.798295-.073607-1.111889-.220887-.308837-.152037-.546428-.365787-.712776-.641317s-.249421-.600946-.249421-.976249c0-.36103.078382-.676931.235212-.947704.161523-.27553.380081-.48928.655674-.641318.280352-.156794.598705-.235158.955125-.235158.261318,0,.49891.04275.712709.12825.2138.080809.396736.201923.548808.363409.152072.156794.266076.346824.342145.570089.080761.223266.121142.472696.121142.748226c0,.095015-.026105.166243-.078382.213751-.052277.04275-.135418.064158-.249488.064158h-2.180953v-.598567h1.582248l-.114004.092636c0-.175824-.023792-.31828-.071311-.427567s-.118762-.192409-.213799-.249431c-.090278-.056956-.204349-.0855-.342145-.0855-.147248,0-.275594.035614-.38484.106908-.104553.066471-.185315.166243-.24235.299251s-.08552.299317-.08552.498861v.064092c0,.33731.073624.579538.220938.726818.152072.142522.384905.213817.698499.213817.104554,0,.223317-.011894.356355-.035681.137797-.028478.268456-.06647.392043-.113978s.230454-.054643.320732-.021408c.090278.028544.159144.080809.206662.156795.052277.071228.080761.154415.08552.24943.004758.090258-.016589.180515-.064107.270773-.047518.0855-.125967.151971-.235212.199478-.166348.076052-.344525.133008-.534598.171067-.185315.037993-.372943.056956-.563017.056956Zm3.854339,0c-.356354,0-.650981-.054644-.883814-.163865-.228075-.109286-.399115-.273151-.513119-.491659-.114071-.223331-.171106-.50124-.171106-.833726v-1.161521h-.242284c-.152072,0-.270901-.040371-.356421-.121114-.080761-.080809-.121142-.197166-.121142-.349203s.040381-.266015.121142-.342001c.08552-.080809.204349-.12118.356421-.12118h.242284v-.441773c0-.208993.054656-.368166.163968-.477453s.266076-.163865.470359-.163865.361179.054644.470425.163865.163968.26846.163968.477453v.441773h.584429c.156831,0,.275594.040371.356355.12118.08552.075986.12828.19003.12828.342001s-.04276.268394-.12828.349203c-.080761.080743-.199524.121114-.356355.121114h-.584429v1.118771c0,.175758.040381.306387.121142.391887.08552.080743.218558.121114.399115.121114.066552,0,.130658-.00707.192452-.021342s.118829-.021408.17104-.021408c.076069-.004691.137796.01903.185315.071294.047518.047508.07131.159107.07131.334931c0,.142457-.021413.263637-.064173.363409-.04276.095015-.118762.163865-.228074.206615-.066487.023786-.156765.04275-.270835.057022-.114005.018963-.206662.028478-.277973.028478Zm3.071179,0c-.427599,0-.798229-.073607-1.111823-.220887-.308903-.152037-.546494-.365787-.712776-.641317s-.249487-.600946-.249487-.976249c0-.36103.078448-.676931.235212-.947704.161589-.27553.380147-.48928.65574-.641318.280352-.156794.598705-.235158.955059-.235158.261384,0,.49891.04275.712775.12825.2138.080809.396736.201923.548807.363409.152006.156794.266077.346824.34208.570089.080827.223266.121208.472696.121208.748226c0,.095015-.026172.166243-.078448.213751-.052211.04275-.135418.064158-.249422.064158h-2.181019v-.598567h1.582314l-.11407.092636c0-.175824-.023726-.31828-.071245-.427567s-.118763-.192409-.213799-.249431c-.090279-.056956-.204349-.0855-.342146-.0855-.147313,0-.275593.035614-.384905.106908-.104487.066471-.185315.166243-.242284.299251s-.08552.299317-.08552.498861v.064092c0,.33731.073624.579538.220938.726818.152005.142522.384839.213817.698499.213817.104488,0,.223317-.011894.356355-.035681.137796-.028478.268455-.06647.391977-.113978s.230454-.054643.320732-.021408c.090278.028544.15921.080809.206728.156795.052277.071228.080761.154415.08552.24943.004758.090258-.016655.180515-.064173.270773-.047519.0855-.125901.151971-.235213.199478-.166281.076052-.344458.133008-.534532.171067-.185314.037993-.373009.056956-.563082.056956Zm3.411804,0c-.299319,0-.565396-.073607-.798229-.220887-.228075-.147279-.408631-.358651-.541736-.634181-.128279-.27553-.192386-.600946-.192386-.976249c0-.384751.064107-.712545.192386-.983318.133105-.270839.313661-.479832.541736-.627112.232833-.147279.49891-.220886.798229-.220886.261384,0,.49653.061779.705637.185272s.349217.282666.420528.477454h-.078448v-1.52493c0-.209059.054656-.368166.163968-.477453s.266076-.163865.470425-.163865c.199524,0,.353975.054644.463287.163865.114004.109287.17104.268394.17104.477453v3.869313c0,.208993-.054656.368167-.163968.477387-.104488.109287-.258939.163931-.463288.163931-.199524,0-.353975-.054644-.463221-.163931s-.163968-.268394-.163968-.477387v-.406225l.078382.349203c-.066486.213751-.206662.38713-.420461.520137-.209107.128317-.449078.192409-.719913.192409Zm.406252-.933432c.128346,0,.24235-.030923.342145-.092637.099795-.066536.175798-.16393.228075-.29218.057035-.133008.08552-.304008.08552-.513068c0-.31828-.061794-.546302-.185315-.684067-.123521-.142523-.280352-.213751-.470425-.213751-.12828,0-.242284.030857-.342079.092636s-.178177.159107-.235213.292115c-.057035.128316-.085519.299317-.085519.513067c0,.313523.061793.541546.185314.684068s.282731.213817.477497.213817Zm3.243804-.790976c-.123521,0-.223316-.040372-.299319-.121181-.071244-.080743-.116383-.192342-.135417-.334864l-.249488-2.151976c-.033243-.247052.011896-.446596.135417-.598567.123588-.156795.306523-.235159.548807-.235159.247109,0,.430045.078364.548874.235159.118762.151971.161522.351515.128279.598567l-.24235,2.151976c-.019034.142522-.064173.254121-.135417.334864s-.17104.121181-.299386.121181Zm0,1.688794c-.213799,0-.384839-.064158-.513118-.192409-.123588-.12825-.185315-.296872-.185315-.505931c0-.204236.061727-.368166.185315-.491659.128279-.12825.299319-.192409.513118-.192409.223383,0,.394423.064159.513185.192409.123588.123493.185315.287423.185315.491659c0,.209059-.061727.377681-.185315.505931-.118762.128251-.289802.192409-.513185.192409Z" transform="translate(72.807659 32.277913)" fill="#0129bd"/></g></g></g>
<script><![CDATA[
!function(t,e){"object"==typeof exports&&"undefined"!=typeof module?module.exports=e():"function"==typeof define&&define.amd?define(e):((t="undefined"!=typeof globalThis?globalThis:t||self).__SVGATOR_PLAYER__=t.__SVGATOR_PLAYER__||{},t.__SVGATOR_PLAYER__["91c80d77"]=e())}(this,(function(){"use strict";function t(t,e){var n=Object.keys(t);if(Object.getOwnPropertySymbols){var r=Object.getOwnPropertySymbols(t);e&&(r=r.filter((function(e){return Object.getOwnPropertyDescriptor(t,e).enumerable}))),n.push.apply(n,r)}return n}function e(e){for(var n=1;n<arguments.length;n++){var r=null!=arguments[n]?arguments[n]:{};n%2?t(Object(r),!0).forEach((function(t){u(e,t,r[t])})):Object.getOwnPropertyDescriptors?Object.defineProperties(e,Object.getOwnPropertyDescriptors(r)):t(Object(r)).forEach((function(t){Object.defineProperty(e,t,Object.getOwnPropertyDescriptor(r,t))}))}return e}function n(t){return(n="function"==typeof Symbol&&"symbol"==typeof Symbol.iterator?function(t){return typeof t}:function(t){return t&&"function"==typeof Symbol&&t.constructor===Symbol&&t!==Symbol.prototype?"symbol":typeof t})(t)}function r(t,e){if(!(t instanceof e))throw new TypeError("Cannot call a class as a function")}function i(t,e){for(var n=0;n<e.length;n++){var r=e[n];r.enumerable=r.enumerable||!1,r.configurable=!0,"value"in r&&(r.writable=!0),Object.defineProperty(t,r.key,r)}}function o(t,e,n){return e&&i(t.prototype,e),n&&i(t,n),t}function u(t,e,n){return e in t?Object.defineProperty(t,e,{value:n,enumerable:!0,configurable:!0,writable:!0}):t[e]=n,t}function a(t){return(a=Object.setPrototypeOf?Object.getPrototypeOf:function(t){return t.__proto__||Object.getPrototypeOf(t)})(t)}function s(t,e){return(s=Object.setPrototypeOf||function(t,e){return t.__proto__=e,t})(t,e)}function l(){if("undefined"==typeof Reflect||!Reflect.construct)return!1;if(Reflect.construct.sham)return!1;if("function"==typeof Proxy)return!0;try{return Boolean.prototype.valueOf.call(Reflect.construct(Boolean,[],(function(){}))),!0}catch(t){return!1}}function f(t,e,n){return(f=l()?Reflect.construct:function(t,e,n){var r=[null];r.push.apply(r,e);var i=new(Function.bind.apply(t,r));return n&&s(i,n.prototype),i}).apply(null,arguments)}function c(t,e){if(e&&("object"==typeof e||"function"==typeof e))return e;if(void 0!==e)throw new TypeError("Derived constructors may only return object or undefined");return function(t){if(void 0===t)throw new ReferenceError("this hasn't been initialised - super() hasn't been called");return t}(t)}function h(t,e,n){return(h="undefined"!=typeof Reflect&&Reflect.get?Reflect.get:function(t,e,n){var r=function(t,e){for(;!Object.prototype.hasOwnProperty.call(t,e)&&null!==(t=a(t)););return t}(t,e);if(r){var i=Object.getOwnPropertyDescriptor(r,e);return i.get?i.get.call(n):i.value}})(t,e,n||t)}function v(t){return function(t){if(Array.isArray(t))return y(t)}(t)||function(t){if("undefined"!=typeof Symbol&&null!=t[Symbol.iterator]||null!=t["@@iterator"])return Array.from(t)}(t)||function(t,e){if(!t)return;if("string"==typeof t)return y(t,e);var n=Object.prototype.toString.call(t).slice(8,-1);"Object"===n&&t.constructor&&(n=t.constructor.name);if("Map"===n||"Set"===n)return Array.from(t);if("Arguments"===n||/^(?:Ui|I)nt(?:8|16|32)(?:Clamped)?Array$/.test(n))return y(t,e)}(t)||function(){throw new TypeError("Invalid attempt to spread non-iterable instance.\nIn order to be iterable, non-array objects must have a [Symbol.iterator]() method.")}()}function y(t,e){(null==e||e>t.length)&&(e=t.length);for(var n=0,r=new Array(e);n<e;n++)r[n]=t[n];return r}Number.isInteger||(Number.isInteger=function(t){return"number"==typeof t&&isFinite(t)&&Math.floor(t)===t}),Number.EPSILON||(Number.EPSILON=2220446049250313e-31);var d=g(Math.pow(10,-6));function g(t){var e=arguments.length>1&&void 0!==arguments[1]?arguments[1]:6;if(Number.isInteger(t))return t;var n=Math.pow(10,e);return Math.round((+t+Number.EPSILON)*n)/n}function p(t,e){var n=arguments.length>2&&void 0!==arguments[2]?arguments[2]:d;return Math.abs(t-e)<n}var m=Math.PI/180;function b(t){return t}function k(t,e,n){var r=1-n;return 3*n*r*(t*r+e*n)+n*n*n}function w(){var t=arguments.length>0&&void 0!==arguments[0]?arguments[0]:0,e=arguments.length>1&&void 0!==arguments[1]?arguments[1]:0,n=arguments.length>2&&void 0!==arguments[2]?arguments[2]:1,r=arguments.length>3&&void 0!==arguments[3]?arguments[3]:1;return t<0||t>1||n<0||n>1?null:p(t,e)&&p(n,r)?b:function(i){if(i<=0)return t>0?i*e/t:0===e&&n>0?i*r/n:0;if(i>=1)return n<1?1+(i-1)*(r-1)/(n-1):1===n&&t<1?1+(i-1)*(e-1)/(t-1):1;for(var o,u=0,a=1;u<a;){var s=k(t,n,o=(u+a)/2);if(p(i,s))break;s<i?u=o:a=o}return k(e,r,o)}}function x(){return 1}function A(t){return 1===t?1:0}function _(){var t=arguments.length>0&&void 0!==arguments[0]?arguments[0]:1,e=arguments.length>1&&void 0!==arguments[1]?arguments[1]:0;if(1===t){if(0===e)return A;if(1===e)return x}var n=1/t;return function(t){return t>=1?1:(t+=e*n)-t%n}}var O=Math.sin,S=Math.cos,E=Math.acos,P=Math.asin,M=Math.tan,j=Math.atan2,B=Math.PI/180,T=180/Math.PI,I=Math.sqrt,R=function(){function t(){var e=arguments.length>0&&void 0!==arguments[0]?arguments[0]:1,n=arguments.length>1&&void 0!==arguments[1]?arguments[1]:0,i=arguments.length>2&&void 0!==arguments[2]?arguments[2]:0,o=arguments.length>3&&void 0!==arguments[3]?arguments[3]:1,u=arguments.length>4&&void 0!==arguments[4]?arguments[4]:0,a=arguments.length>5&&void 0!==arguments[5]?arguments[5]:0;r(this,t),this.m=[e,n,i,o,u,a],this.i=null,this.w=null,this.s=null}return o(t,[{key:"determinant",get:function(){var t=this.m;return t[0]*t[3]-t[1]*t[2]}},{key:"isIdentity",get:function(){if(null===this.i){var t=this.m;this.i=1===t[0]&&0===t[1]&&0===t[2]&&1===t[3]&&0===t[4]&&0===t[5]}return this.i}},{key:"point",value:function(t,e){var n=this.m;return{x:n[0]*t+n[2]*e+n[4],y:n[1]*t+n[3]*e+n[5]}}},{key:"translateSelf",value:function(){var t=arguments.length>0&&void 0!==arguments[0]?arguments[0]:0,e=arguments.length>1&&void 0!==arguments[1]?arguments[1]:0;if(!t&&!e)return this;var n=this.m;return n[4]+=n[0]*t+n[2]*e,n[5]+=n[1]*t+n[3]*e,this.w=this.s=this.i=null,this}},{key:"rotateSelf",value:function(){var t=arguments.length>0&&void 0!==arguments[0]?arguments[0]:0;if(t%=360){var e=O(t*=B),n=S(t),r=this.m,i=r[0],o=r[1];r[0]=i*n+r[2]*e,r[1]=o*n+r[3]*e,r[2]=r[2]*n-i*e,r[3]=r[3]*n-o*e,this.w=this.s=this.i=null}return this}},{key:"scaleSelf",value:function(){var t=arguments.length>0&&void 0!==arguments[0]?arguments[0]:1,e=arguments.length>1&&void 0!==arguments[1]?arguments[1]:1;if(1!==t||1!==e){var n=this.m;n[0]*=t,n[1]*=t,n[2]*=e,n[3]*=e,this.w=this.s=this.i=null}return this}},{key:"skewSelf",value:function(t,e){if(e%=360,(t%=360)||e){var n=this.m,r=n[0],i=n[1],o=n[2],u=n[3];t&&(t=M(t*B),n[2]+=r*t,n[3]+=i*t),e&&(e=M(e*B),n[0]+=o*e,n[1]+=u*e),this.w=this.s=this.i=null}return this}},{key:"resetSelf",value:function(){var t=arguments.length>0&&void 0!==arguments[0]?arguments[0]:1,e=arguments.length>1&&void 0!==arguments[1]?arguments[1]:0,n=arguments.length>2&&void 0!==arguments[2]?arguments[2]:0,r=arguments.length>3&&void 0!==arguments[3]?arguments[3]:1,i=arguments.length>4&&void 0!==arguments[4]?arguments[4]:0,o=arguments.length>5&&void 0!==arguments[5]?arguments[5]:0,u=this.m;return u[0]=t,u[1]=e,u[2]=n,u[3]=r,u[4]=i,u[5]=o,this.w=this.s=this.i=null,this}},{key:"recomposeSelf",value:function(){var t=arguments.length>0&&void 0!==arguments[0]?arguments[0]:null,e=arguments.length>1&&void 0!==arguments[1]?arguments[1]:null,n=arguments.length>2&&void 0!==arguments[2]?arguments[2]:null,r=arguments.length>3&&void 0!==arguments[3]?arguments[3]:null,i=arguments.length>4&&void 0!==arguments[4]?arguments[4]:null;return this.isIdentity||this.resetSelf(),t&&(t.x||t.y)&&this.translateSelf(t.x,t.y),e&&this.rotateSelf(e),n&&(n.x&&this.skewSelf(n.x,0),n.y&&this.skewSelf(0,n.y)),!r||1===r.x&&1===r.y||this.scaleSelf(r.x,r.y),i&&(i.x||i.y)&&this.translateSelf(i.x,i.y),this}},{key:"decompose",value:function(){var t=arguments.length>0&&void 0!==arguments[0]?arguments[0]:0,e=arguments.length>1&&void 0!==arguments[1]?arguments[1]:0,n=this.m,r=n[0]*n[0]+n[1]*n[1],i=[[n[0],n[1]],[n[2],n[3]]],o=I(r);if(0===o)return{origin:{x:g(n[4]),y:g(n[5])},translate:{x:g(t),y:g(e)},scale:{x:0,y:0},skew:{x:0,y:0},rotate:0};i[0][0]/=o,i[0][1]/=o;var u=n[0]*n[3]-n[1]*n[2]<0;u&&(o=-o);var a=i[0][0]*i[1][0]+i[0][1]*i[1][1];i[1][0]-=i[0][0]*a,i[1][1]-=i[0][1]*a;var s=I(i[1][0]*i[1][0]+i[1][1]*i[1][1]);if(0===s)return{origin:{x:g(n[4]),y:g(n[5])},translate:{x:g(t),y:g(e)},scale:{x:g(o),y:0},skew:{x:0,y:0},rotate:0};i[1][0]/=s,i[1][1]/=s,a/=s;var l=0;return i[1][1]<0?(l=E(i[1][1])*T,i[0][1]<0&&(l=360-l)):l=P(i[0][1])*T,u&&(l=-l),a=j(a,I(i[0][0]*i[0][0]+i[0][1]*i[0][1]))*T,u&&(a=-a),{origin:{x:g(n[4]),y:g(n[5])},translate:{x:g(t),y:g(e)},scale:{x:g(o),y:g(s)},skew:{x:g(a),y:0},rotate:g(l)}}},{key:"clone",value:function(){var t=this.m;return new this.constructor(t[0],t[1],t[2],t[3],t[4],t[5])}},{key:"toString",value:function(){var t=arguments.length>0&&void 0!==arguments[0]?arguments[0]:" ";if(null===this.s){var e=this.m.map((function(t){return g(t)}));1===e[0]&&0===e[1]&&0===e[2]&&1===e[3]?this.s="translate("+e[4]+t+e[5]+")":this.s="matrix("+e.join(t)+")"}return this.s}}],[{key:"create",value:function(t){return t?Array.isArray(t)?f(this,v(t)):t instanceof this?t.clone():(new this).recomposeSelf(t.origin,t.rotate,t.skew,t.scale,t.translate):new this}}]),t}();function N(t,e,n){return t>=.5?n:e}function F(t,e,n){return 0===t||e===n?e:t*(n-e)+e}function C(t,e,n){var r=F(t,e,n);return r<=0?0:r}function L(t,e,n){var r=F(t,e,n);return r<=0?0:r>=1?1:r}function D(t,e,n){return 0===t?e:1===t?n:{x:F(t,e.x,n.x),y:F(t,e.y,n.y)}}function q(t,e,n){return 0===t?e:1===t?n:{x:C(t,e.x,n.x),y:C(t,e.y,n.y)}}function V(t,e,n){var r=function(t,e,n){return Math.round(F(t,e,n))}(t,e,n);return r<=0?0:r>=255?255:r}function z(t,e,n){return 0===t?e:1===t?n:{r:V(t,e.r,n.r),g:V(t,e.g,n.g),b:V(t,e.b,n.b),a:F(t,null==e.a?1:e.a,null==n.a?1:n.a)}}function Y(t,e,n){var r=e.length;if(r!==n.length)return N(t,e,n);for(var i=new Array(r),o=0;o<r;o++)i[o]=F(t,e[o],n[o]);return i}function G(t,e){for(var n=[],r=0;r<t;r++)n.push(e);return n}function U(t,e){if(--e<=0)return t;var n=(t=Object.assign([],t)).length;do{for(var r=0;r<n;r++)t.push(t[r])}while(--e>0);return t}var $,W=function(){function t(e){r(this,t),this.list=e,this.length=e.length}return o(t,[{key:"setAttribute",value:function(t,e){for(var n=this.list,r=0;r<this.length;r++)n[r].setAttribute(t,e)}},{key:"removeAttribute",value:function(t){for(var e=this.list,n=0;n<this.length;n++)e[n].removeAttribute(t)}},{key:"style",value:function(t,e){for(var n=this.list,r=0;r<this.length;r++)n[r].style[t]=e}}]),t}(),H=/-./g,Q=function(t,e){return e.toUpperCase()};function X(t){return"function"==typeof t?t:N}function J(t){return t?"function"==typeof t?t:Array.isArray(t)?function(t){var e=arguments.length>1&&void 0!==arguments[1]?arguments[1]:b;if(!Array.isArray(t))return e;switch(t.length){case 1:return _(t[0])||e;case 2:return _(t[0],t[1])||e;case 4:return w(t[0],t[1],t[2],t[3])||e}return e}(t,null):function(t,e){var n=arguments.length>2&&void 0!==arguments[2]?arguments[2]:b;switch(t){case"linear":return b;case"steps":return _(e.steps||1,e.jump||0)||n;case"bezier":case"cubic-bezier":return w(e.x1||0,e.y1||0,e.x2||0,e.y2||0)||n}return n}(t.type,t.value,null):null}function K(t,e,n){var r=arguments.length>3&&void 0!==arguments[3]&&arguments[3],i=e.length-1;if(t<=e[0].t)return r?[0,0,e[0].v]:e[0].v;if(t>=e[i].t)return r?[i,1,e[i].v]:e[i].v;var o,u=e[0],a=null;for(o=1;o<=i;o++){if(!(t>e[o].t)){a=e[o];break}u=e[o]}return null==a?r?[i,1,e[i].v]:e[i].v:u.t===a.t?r?[o,1,a.v]:a.v:(t=(t-u.t)/(a.t-u.t),u.e&&(t=u.e(t)),r?[o,t,n(t,u.v,a.v)]:n(t,u.v,a.v))}function Z(t,e){var n=arguments.length>2&&void 0!==arguments[2]?arguments[2]:null;return t&&t.length?"function"!=typeof e?null:("function"!=typeof n&&(n=null),function(r){var i=K(r,t,e);return null!=i&&n&&(i=n(i)),i}):null}function tt(t,e){return t.t-e.t}function et(t,e,r,i,o){var u,a="@"===r[0],s="#"===r[0],l=$[r],f=N;switch(a?(u=r.substr(1),r=u.replace(H,Q)):s&&(r=r.substr(1)),n(l)){case"function":if(f=l(i,o,K,J,r,a,e,t),s)return f;break;case"string":f=Z(i,X(l));break;case"object":if((f=Z(i,X(l.i),l.f))&&"function"==typeof l.u)return l.u(e,f,r,a,t)}return f?function(t,e,n){if(arguments.length>3&&void 0!==arguments[3]&&arguments[3])return t instanceof W?function(r){return t.style(e,n(r))}:function(r){return t.style[e]=n(r)};if(Array.isArray(e)){var r=e.length;return function(i){var o=n(i);if(null==o)for(var u=0;u<r;u++)t[u].removeAttribute(e);else for(var a=0;a<r;a++)t[a].setAttribute(e,o)}}return function(r){var i=n(r);null==i?t.removeAttribute(e):t.setAttribute(e,i)}}(e,r,f,a):null}function nt(t,e,r,i){if(!i||"object"!==n(i))return null;var o=null,u=null;return Array.isArray(i)?u=function(t){if(!t||!t.length)return null;for(var e=0;e<t.length;e++)t[e].e&&(t[e].e=J(t[e].e));return t.sort(tt)}(i):(u=i.keys,o=i.data||null),u?et(t,e,r,u,o):null}function rt(t,e,n){if(!n)return null;var r=[];for(var i in n)if(n.hasOwnProperty(i)){var o=nt(t,e,i,n[i]);o&&r.push(o)}return r.length?r:null}function it(t,e){if(!e.settings.duration||e.settings.duration<0)return null;var n,r,i,o,u,a=function(t,e){if(!e)return null;var n=[];if(Array.isArray(e))for(var r=e.length,i=0;i<r;i++){var o=e[i];if(2===o.length){var u=null;if("string"==typeof o[0])u=t.getElementById(o[0]);else if(Array.isArray(o[0])){u=[];for(var a=0;a<o[0].length;a++)if("string"==typeof o[0][a]){var s=t.getElementById(o[0][a]);s&&u.push(s)}u=u.length?1===u.length?u[0]:new W(u):null}if(u){var l=rt(t,u,o[1]);l&&(n=n.concat(l))}}}else for(var f in e)if(e.hasOwnProperty(f)){var c=t.getElementById(f);if(c){var h=rt(t,c,e[f]);h&&(n=n.concat(h))}}return n.length?n:null}(t,e.elements);return a?(n=a,r=e.settings,i=r.duration,o=n.length,u=null,function(t,e){var a=r.iterations||1/0,s=(r.alternate&&a%2==0)^r.direction>0?i:0,l=t%i,f=1+(t-l)/i;e*=r.direction,r.alternate&&f%2==0&&(e=-e);var c=!1;if(f>a)l=s,c=!0,-1===r.fill&&(l=r.direction>0?0:i);else if(e<0&&(l=i-l),l===u)return!1;u=l;for(var h=0;h<o;h++)n[h](l);return c}):null}function ot(t,e){if($=e,!t||!t.root||!Array.isArray(t.animations))return null;var n=function(t){for(var e=document.getElementsByTagName("svg"),n=0;n<e.length;n++)if(e[n].id===t.root&&!e[n].svgatorAnimation)return e[n].svgatorAnimation=!0,e[n];return null}(t);if(!n)return null;var r=t.animations.map((function(t){return it(n,t)})).filter((function(t){return!!t}));return r.length?{svg:n,animations:r,animationSettings:t.animationSettings,options:t.options||void 0}:null}function ut(t){return+("0x"+(t.replace(/[^0-9a-fA-F]+/g,"")||27))}function at(t,e,n){return!t||!n||e>t.length?t:t.substring(0,e)+at(t.substring(e+1),n,n)}function st(t){var e=arguments.length>1&&void 0!==arguments[1]?arguments[1]:27;return!t||t%e?t%e:st(t/e,e)}function lt(t,e,n){if(t&&t.length){var r=ut(n),i=ut(e),o=st(r)+5,u=at(t,st(r,5),o);return u=u.replace(/\x7c$/g,"==").replace(/\x2f$/g,"="),u=function(t,e,n){var r=+("0x"+t.substring(0,4));t=t.substring(4);for(var i=e%r+n%27,o=[],u=0;u<t.length;u+=2)if("|"!==t[u]){var a=+("0x"+t[u]+t[u+1])-i;o.push(a)}else{var s=+("0x"+t.substring(u+1,u+1+4))-i;u+=3,o.push(s)}return String.fromCharCode.apply(String,o)}(u=(u=atob(u)).replace(/[\x41-\x5A]/g,""),i,r),u=JSON.parse(u)}}var ft=[{key:"alternate",def:!1},{key:"fill",def:1},{key:"iterations",def:0},{key:"direction",def:1},{key:"speed",def:1},{key:"fps",def:100}],ct=function(){function t(e,n){var i=this,o=arguments.length>2&&void 0!==arguments[2]?arguments[2]:null;r(this,t),this._id=0,this._running=!1,this._rollingBack=!1,this._animations=e,this._settings=n,(!o||o<"2022-05-02")&&delete this._settings.speed,ft.forEach((function(t){i._settings[t.key]=i._settings[t.key]||t.def})),this.duration=n.duration,this.offset=n.offset||0,this.rollbackStartOffset=0}return o(t,[{key:"alternate",get:function(){return this._settings.alternate}},{key:"fill",get:function(){return this._settings.fill}},{key:"iterations",get:function(){return this._settings.iterations}},{key:"direction",get:function(){return this._settings.direction}},{key:"speed",get:function(){return this._settings.speed}},{key:"fps",get:function(){return this._settings.fps}},{key:"maxFiniteDuration",get:function(){return this.iterations>0?this.iterations*this.duration:this.duration}},{key:"_apply",value:function(t){for(var e=arguments.length>1&&void 0!==arguments[1]?arguments[1]:{},n=this._animations,r=n.length,i=0,o=0;o<r;o++)e[o]?i++:(e[o]=n[o](t,1),e[o]&&i++);return i}},{key:"_rollback",value:function(t){var e=this,n=1/0,r=null;this.rollbackStartOffset=t,this._rollingBack=!0,this._running=!0;this._id=window.requestAnimationFrame((function i(o){if(e._rollingBack){null==r&&(r=o);var u=Math.round(t-(o-r)*e.speed);if(u>e.duration&&n!==1/0){var a=!!e.alternate&&u/e.duration%2>1,s=u%e.duration;u=(s+=a?e.duration:0)||e.duration}var l=(e.fps?1e3/e.fps:0)*e.speed,f=Math.max(0,u);f<=n-l&&(e.offset=f,n=f,e._apply(f));var c=e.iterations>0&&-1===e.fill&&u>=e.maxFiniteDuration;(u<=0||e.offset<u||c)&&e.stop(),e._id=window.requestAnimationFrame(i)}}))}},{key:"_start",value:function(){var t=this,e=arguments.length>0&&void 0!==arguments[0]?arguments[0]:0,n=-1/0,r=null,i={};this._running=!0;var o=function o(u){null==r&&(r=u);var a=Math.round((u-r)*t.speed+e),s=(t.fps?1e3/t.fps:0)*t.speed;if(a>=n+s&&!t._rollingBack&&(t.offset=a,n=a,t._apply(a,i)===t._animations.length))return void t.pause(!0);t._id=window.requestAnimationFrame(o)};this._id=window.requestAnimationFrame(o)}},{key:"_pause",value:function(){this._id&&window.cancelAnimationFrame(this._id),this._running=!1}},{key:"play",value:function(){if(!this._running)return this._rollingBack?this._rollback(this.offset):this._start(this.offset)}},{key:"stop",value:function(){this._pause(),this.offset=0,this.rollbackStartOffset=0,this._rollingBack=!1,this._apply(0)}},{key:"reachedToEnd",value:function(){return this.iterations>0&&this.offset>=this.iterations*this.duration}},{key:"restart",value:function(){var t=arguments.length>0&&void 0!==arguments[0]&&arguments[0];this.stop(t),this.play(t)}},{key:"pause",value:function(){this._pause()}},{key:"reverse",value:function(){this.direction=-this.direction}}],[{key:"build",value:function(t,e){delete t.animationSettings,t.options=lt(t.options,t.root,"91c80d77"),t.animations.map((function(e){e.settings=lt(e.s,t.root,"91c80d77"),delete e.s,t.animationSettings||(t.animationSettings=e.settings)}));var n=t.version;if(!(t=ot(t,e)))return null;var r=t.options||{},i=new this(t.animations,t.animationSettings,n);return{el:t.svg,options:r,player:i}}},{key:"push",value:function(t){return this.build(t)}},{key:"init",value:function(){var t=this,e=window.__SVGATOR_PLAYER__&&window.__SVGATOR_PLAYER__["91c80d77"];Array.isArray(e)&&e.splice(0).forEach((function(e){return t.build(e)}))}}]),t}();!function(){for(var t=0,e=["ms","moz","webkit","o"],n=0;n<e.length&&!window.requestAnimationFrame;++n)window.requestAnimationFrame=window[e[n]+"RequestAnimationFrame"],window.cancelAnimationFrame=window[e[n]+"CancelAnimationFrame"]||window[e[n]+"CancelRequestAnimationFrame"];window.requestAnimationFrame||(window.requestAnimationFrame=function(e){var n=Date.now(),r=Math.max(0,16-(n-t)),i=window.setTimeout((function(){e(n+r)}),r);return t=n+r,i},window.cancelAnimationFrame=window.clearTimeout)}();var ht=function(t,e){var n=!1,r=null;return function(i){n&&clearTimeout(n),n=setTimeout((function(){return function(){for(var i=0,o=window.innerHeight,u=0,a=window.innerWidth,s=t.parentNode;s instanceof Element;){var l=window.getComputedStyle(s);if("visible"!==l.overflowY||"visible"!==l.overflowX){var f=s.getBoundingClientRect();"visible"!==l.overflowY&&(i=Math.max(i,f.top),o=Math.min(o,f.bottom)),"visible"!==l.overflowX&&(u=Math.max(u,f.left),a=Math.min(a,f.right))}if(s===s.parentNode)break;s=s.parentNode}n=!1;var c=t.getBoundingClientRect(),h=Math.min(c.height,Math.max(0,i-c.top)),v=Math.min(c.height,Math.max(0,c.bottom-o)),y=Math.min(c.width,Math.max(0,u-c.left)),d=Math.min(c.width,Math.max(0,c.right-a)),g=(c.height-h-v)/c.height,p=(c.width-y-d)/c.width,m=Math.round(g*p*100);null!==r&&r===m||(r=m,e(m))}()}),100)}},vt=function(){function t(e,n,i){r(this,t),n=Math.max(1,n||1),n=Math.min(n,100),this.el=e,this._handlers=[],this.onThresholdChange=i&&i.call?i:function(){},this.thresholdPercent=n||1,this.currentVisibility=null,this.visibilityCalculator=ht(e,this.onVisibilityUpdate.bind(this)),this.bindScrollWatchers(),this.visibilityCalculator()}return o(t,[{key:"bindScrollWatchers",value:function(){for(var t=this.el.parentNode;t&&(this._handlers.push({element:t,event:"scroll",handler:this.visibilityCalculator}),t.addEventListener("scroll",this.visibilityCalculator),t!==t.parentNode&&t!==document);)t=t.parentNode}},{key:"onVisibilityUpdate",value:function(t){var e=this.currentVisibility>=this.thresholdPercent,n=t>=this.thresholdPercent;if(null===this.currentVisibility||e!==n)return this.currentVisibility=t,void this.onThresholdChange(n);this.currentVisibility=t}},{key:"destruct",value:function(){this._handlers.forEach((function(t){t.element.removeEventListener(t.event,t.handler)}))}}]),t}();function yt(t){return g(t)+""}function dt(t){var e=arguments.length>1&&void 0!==arguments[1]?arguments[1]:" ";return t&&t.length?t.map(yt).join(e):""}function gt(t){return yt(t.x)+","+yt(t.y)}function pt(t){if(!t)return"transparent";if(null==t.a||t.a>=1){var e=function(t){return 1===(t=parseInt(t).toString(16)).length?"0"+t:t},n=function(t){return t.charAt(0)===t.charAt(1)},r=e(t.r),i=e(t.g),o=e(t.b);return n(r)&&n(i)&&n(o)&&(r=r.charAt(0),i=i.charAt(0),o=o.charAt(0)),"#"+r+i+o}return"rgba("+t.r+","+t.g+","+t.b+","+t.a+")"}function mt(t){return t?"url(#"+t+")":"none"}var bt={f:null,i:q,u:function(t,e){return function(n){var r=e(n);t.setAttribute("rx",yt(r.x)),t.setAttribute("ry",yt(r.y))}}},kt={f:null,i:function(t,e,n){return 0===t?e:1===t?n:{width:C(t,e.width,n.width),height:C(t,e.height,n.height)}},u:function(t,e){return function(n){var r=e(n);t.setAttribute("width",yt(r.width)),t.setAttribute("height",yt(r.height))}}};Object.freeze({M:2,L:2,Z:0,H:1,V:1,C:6,Q:4,T:2,S:4,A:7});var wt={},xt=null;function At(t){var e=function(){if(xt)return xt;if("object"!==("undefined"==typeof document?"undefined":n(document))||!document.createElementNS)return{};var t=document.createElementNS("http://www.w3.org/2000/svg","svg");return t&&t.style?(t.style.position="absolute",t.style.opacity="0.01",t.style.zIndex="-9999",t.style.left="-9999px",t.style.width="1px",t.style.height="1px",xt={svg:t}):{}}().svg;if(!e)return function(t){return null};var r=document.createElementNS(e.namespaceURI,"path");r.setAttributeNS(null,"d",t),r.setAttributeNS(null,"fill","none"),r.setAttributeNS(null,"stroke","none"),e.appendChild(r);var i=r.getTotalLength();return function(t){var e=r.getPointAtLength(i*t);return{x:e.x,y:e.y}}}function _t(t){return wt[t]?wt[t]:wt[t]=At(t)}function Ot(t,e,n,r){if(!t||!r)return!1;var i=["M",t.x,t.y];if(e&&n&&(i.push("C"),i.push(e.x),i.push(e.y),i.push(n.x),i.push(n.y)),e?!n:n){var o=e||n;i.push("Q"),i.push(o.x),i.push(o.y)}return e||n||i.push("L"),i.push(r.x),i.push(r.y),i.join(" ")}function St(t,e,n,r){var i=arguments.length>4&&void 0!==arguments[4]?arguments[4]:1,o=Ot(t,e,n,r),u=_t(o);try{return u(i)}catch(t){return null}}function Et(t,e,n){return t+(e-t)*n}function Pt(t,e,n){var r=arguments.length>3&&void 0!==arguments[3]&&arguments[3],i={x:Et(t.x,e.x,n),y:Et(t.y,e.y,n)};return r&&(i.a=Mt(t,e)),i}function Mt(t,e){return Math.atan2(e.y-t.y,e.x-t.x)}function jt(t,e,n,r){var i=1-r;return i*i*t+2*i*r*e+r*r*n}function Bt(t,e,n,r){return 2*(1-r)*(e-t)+2*r*(n-e)}function Tt(t,e,n,r){var i=arguments.length>4&&void 0!==arguments[4]&&arguments[4],o=St(t,e,null,n,r);return o||(o={x:jt(t.x,e.x,n.x,r),y:jt(t.y,e.y,n.y,r)}),i&&(o.a=It(t,e,n,r)),o}function It(t,e,n,r){return Math.atan2(Bt(t.y,e.y,n.y,r),Bt(t.x,e.x,n.x,r))}function Rt(t,e,n,r,i){var o=i*i;return i*o*(r-t+3*(e-n))+3*o*(t+n-2*e)+3*i*(e-t)+t}function Nt(t,e,n,r,i){var o=1-i;return 3*(o*o*(e-t)+2*o*i*(n-e)+i*i*(r-n))}function Ft(t,e,n,r,i){var o=arguments.length>5&&void 0!==arguments[5]&&arguments[5],u=St(t,e,n,r,i);return u||(u={x:Rt(t.x,e.x,n.x,r.x,i),y:Rt(t.y,e.y,n.y,r.y,i)}),o&&(u.a=Ct(t,e,n,r,i)),u}function Ct(t,e,n,r,i){return Math.atan2(Nt(t.y,e.y,n.y,r.y,i),Nt(t.x,e.x,n.x,r.x,i))}function Lt(t,e,n){var r=arguments.length>3&&void 0!==arguments[3]&&arguments[3];if(qt(e)){if(Vt(n))return Tt(e,n.start,n,t,r)}else if(qt(n)){if(zt(e))return Tt(e,e.end,n,t,r)}else{if(zt(e))return Vt(n)?Ft(e,e.end,n.start,n,t,r):Tt(e,e.end,n,t,r);if(Vt(n))return Tt(e,n.start,n,t,r)}return Pt(e,n,t,r)}function Dt(t,e,n){var r=Lt(t,e,n,!0);return r.a=function(t){return arguments.length>1&&void 0!==arguments[1]&&arguments[1]?t+Math.PI:t}(r.a)/m,r}function qt(t){return!t.type||"corner"===t.type}function Vt(t){return null!=t.start&&!qt(t)}function zt(t){return null!=t.end&&!qt(t)}var Yt=new R;var Gt={f:function(t){return t?t.join(" "):""},i:function(t,e,r){if(0===t)return e;if(1===t)return r;var i=e.length;if(i!==r.length)return N(t,e,r);for(var o,u=new Array(i),a=0;a<i;a++){if((o=n(e[a]))!==n(r[a]))return N(t,e,r);if("number"===o)u[a]=F(t,e[a],r[a]);else{if(e[a]!==r[a])return N(t,e,r);u[a]=e[a]}}return u}},Ut={f:null,i:Y,u:function(t,e){return function(n){var r=e(n);t.setAttribute("x1",yt(r[0])),t.setAttribute("y1",yt(r[1])),t.setAttribute("x2",yt(r[2])),t.setAttribute("y2",yt(r[3]))}}},$t={f:yt,i:F},Wt={f:yt,i:L},Ht={f:function(t){var e=arguments.length>1&&void 0!==arguments[1]?arguments[1]:" ";return t&&t.length>0&&(t=t.map((function(t){return g(t,4)}))),dt(t,e)},i:function(t,e,n){var r,i,o,u=e.length,a=n.length;if(u!==a)if(0===u)e=G(u=a,0);else if(0===a)a=u,n=G(u,0);else{var s=(o=(r=u)*(i=a)/function(t,e){for(var n;e;)n=e,e=t%e,t=n;return t||1}(r,i))<0?-o:o;e=U(e,Math.floor(s/u)),n=U(n,Math.floor(s/a)),u=a=s}for(var l=[],f=0;f<u;f++)l.push(g(C(t,e[f],n[f])));return l}};function Qt(t,e,n){return t.map((function(t){return function(t,e,n){var r=t.v;if(!r||"g"!==r.t||r.s||!r.v||!r.r)return t;var i=n.getElementById(r.r),o=i&&i.querySelectorAll("stop")||[];return r.s=r.v.map((function(t,e){var n=o[e]&&o[e].getAttribute("offset");return{c:t,o:n=g(parseInt(n)/100)}})),delete r.v,t}(t,0,n)}))}var Xt={gt:"gradientTransform",c:{x:"cx",y:"cy"},rd:"r",f:{x:"x1",y:"y1"},to:{x:"x2",y:"y2"}};function Jt(t,e,r,i,o,u,a,s){return Qt(t,0,s),e=function(t,e,n){for(var r,i,o,u=t.length-1,a={},s=0;s<=u;s++)(r=t[s]).e&&(r.e=e(r.e)),r.v&&"g"===(i=r.v).t&&i.r&&(o=n.getElementById(i.r))&&(a[i.r]={e:o,s:o.querySelectorAll("stop")});return a}(t,i,s),function(i){var o=r(i,t,Kt);if(!o)return"none";if("c"===o.t)return pt(o.v);if("g"===o.t){if(!e[o.r])return mt(o.r);var u=e[o.r];return function(t,e){for(var n=t.s,r=n.length;r<e.length;r++){var i=n[n.length-1].cloneNode();i.id=ee(i.id),t.e.appendChild(i),n=t.s=t.e.querySelectorAll("stop")}for(var o=0,u=n.length,a=e.length-1;o<u;o++)n[o].setAttribute("stop-color",pt(e[Math.min(o,a)].c)),n[o].setAttribute("offset",e[Math.min(o,a)].o)}(u,o.s),Object.keys(Xt).forEach((function(t){if(void 0!==o[t])if("object"!==n(Xt[t])){var e,r="gt"===t?(e=o[t],Array.isArray(e)?"matrix("+e.join(" ")+")":""):o[t],i=Xt[t];u.e.setAttribute(i,r)}else Object.keys(Xt[t]).forEach((function(e){if(void 0!==o[t][e]){var n=o[t][e],r=Xt[t][e];u.e.setAttribute(r,n)}}))})),mt(o.r)}return"none"}}function Kt(t,n,r){if(0===t)return n;if(1===t)return r;if(n&&r){var i=n.t;if(i===r.t)switch(n.t){case"c":return{t:i,v:z(t,n.v,r.v)};case"g":if(n.r===r.r){var o={t:i,s:Zt(t,n.s,r.s),r:n.r};return n.gt&&r.gt&&(o.gt=Y(t,n.gt,r.gt)),n.c?(o.c=D(t,n.c,r.c),o.rd=C(t,n.rd,r.rd)):n.f&&(o.f=D(t,n.f,r.f),o.to=D(t,n.to,r.to)),o}}if("c"===n.t&&"g"===r.t||"c"===r.t&&"g"===n.t){var u="c"===n.t?n:r,a="g"===n.t?e({},n):e({},r),s=a.s.map((function(t){return{c:u.v,o:t.o}}));return a.s="c"===n.t?Zt(t,s,a.s):Zt(t,a.s,s),a}}return N(t,n,r)}function Zt(t,e,n){if(e.length===n.length)return e.map((function(e,r){return te(t,e,n[r])}));for(var r=Math.max(e.length,n.length),i=[],o=0;o<r;o++){var u=te(t,e[Math.min(o,e.length-1)],n[Math.min(o,n.length-1)]);i.push(u)}return i}function te(t,e,n){return{o:L(t,e.o,n.o||0),c:z(t,e.c,n.c||{})}}function ee(t){return t.replace(/-fill-([0-9]+)$/,(function(t,e){return"-fill-"+(+e+1)}))}var ne={blur:q,brightness:C,contrast:C,"drop-shadow":function(t,e,n){return 0===t?e:1===t?n:{blur:q(t,e.blur,n.blur),offset:D(t,e.offset,n.offset),color:z(t,e.color,n.color)}},grayscale:C,"hue-rotate":F,invert:C,opacity:C,saturate:C,sepia:C};function re(t,e,n){if(0===t)return e;if(1===t)return n;var r=e.length;if(r!==n.length)return N(t,e,n);for(var i,o=[],u=0;u<r;u++){if(e[u].type!==n[u].type)return e;if(!(i=ne[e[u].type]))return N(t,e,n);o.push({type:e.type,value:i(t,e[u].value,n[u].value)})}return o}var ie={blur:function(t){return t?function(e){t.setAttribute("stdDeviation",gt(e))}:null},brightness:function(t,e,n){return(t=ue(n,e))?function(e){e=yt(e),t.map((function(t){return t.setAttribute("slope",e)}))}:null},contrast:function(t,e,n){return(t=ue(n,e))?function(e){var n=yt((1-e)/2);e=yt(e),t.map((function(t){t.setAttribute("slope",e),t.setAttribute("intercept",n)}))}:null},"drop-shadow":function(t,e,n){var r=n.getElementById(e+"-blur");if(!r)return null;var i=n.getElementById(e+"-offset");if(!i)return null;var o=n.getElementById(e+"-flood");return o?function(t){r.setAttribute("stdDeviation",gt(t.blur)),i.setAttribute("dx",yt(t.offset.x)),i.setAttribute("dy",yt(t.offset.y)),o.setAttribute("flood-color",pt(t.color))}:null},grayscale:function(t){return t?function(e){t.setAttribute("values",dt(function(t){return[.2126+.7874*(t=1-t),.7152-.7152*t,.0722-.0722*t,0,0,.2126-.2126*t,.7152+.2848*t,.0722-.0722*t,0,0,.2126-.2126*t,.7152-.7152*t,.0722+.9278*t,0,0,0,0,0,1,0]}(e)))}:null},"hue-rotate":function(t){return t?function(e){return t.setAttribute("values",yt(e))}:null},invert:function(t,e,n){return(t=ue(n,e))?function(e){e=yt(e)+" "+yt(1-e),t.map((function(t){return t.setAttribute("tableValues",e)}))}:null},opacity:function(t,e,n){return(t=n.getElementById(e+"-A"))?function(e){return t.setAttribute("tableValues","0 "+yt(e))}:null},saturate:function(t){return t?function(e){return t.setAttribute("values",yt(e))}:null},sepia:function(t){return t?function(e){return t.setAttribute("values",dt(function(t){return[.393+.607*(t=1-t),.769-.769*t,.189-.189*t,0,0,.349-.349*t,.686+.314*t,.168-.168*t,0,0,.272-.272*t,.534-.534*t,.131+.869*t,0,0,0,0,0,1,0]}(e)))}:null}};var oe=["R","G","B"];function ue(t,e){var n=oe.map((function(n){return t.getElementById(e+"-"+n)||null}));return-1!==n.indexOf(null)?null:n}var ae={fill:Jt,"fill-opacity":Wt,stroke:Jt,"stroke-opacity":Wt,"stroke-width":$t,"stroke-dashoffset":{f:yt,i:F},"stroke-dasharray":Ht,opacity:Wt,transform:function(t,e,r,i){if(!(t=function(t,e){if(!t||"object"!==n(t))return null;var r=!1;for(var i in t)t.hasOwnProperty(i)&&(t[i]&&t[i].length?(t[i].forEach((function(t){t.e&&(t.e=e(t.e))})),r=!0):delete t[i]);return r?t:null}(t,i)))return null;var o=function(n,i,o){var u=arguments.length>3&&void 0!==arguments[3]?arguments[3]:null;return t[n]?r(i,t[n],o):e&&e[n]?e[n]:u};return e&&e.a&&t.o?function(e){var n=r(e,t.o,Dt);return Yt.recomposeSelf(n,o("r",e,F,0)+n.a,o("k",e,D),o("s",e,D),o("t",e,D)).toString()}:function(t){return Yt.recomposeSelf(o("o",t,Lt,null),o("r",t,F,0),o("k",t,D),o("s",t,D),o("t",t,D)).toString()}},"#filter":function(t,e,n,r,i,o,u,a){if(!e.items||!t||!t.length)return null;var s=function(t,e){var n=(t=t.map((function(t){return t&&ie[t[0]]?(e.getElementById(t[1]),ie[t[0]](e.getElementById(t[1]),t[1],e)):null}))).length;return function(e){for(var r=0;r<n;r++)t[r]&&t[r](e[r].value)}}(e.items,a);return s?(t=function(t,e){return t.map((function(t){return t.e=e(t.e),t}))}(t,r),function(e){s(n(e,t,re))}):null},"#line":Ut,points:{f:dt,i:Y},d:Gt,r:$t,"#size":kt,"#radius":bt,_:function(t,e){if(Array.isArray(t))for(var n=0;n<t.length;n++)this[t[n]]=e;else this[t]=e}},se={currentTime:"offset",duration:"duration",hasEnded:function(){return this.reachedToEnd()},isAlternate:"alternate",isPlaying:"_running",isRollingBack:"_rollingBack",state:function(t,e){return e.isPlaying?e.isRollingBack?"rollback":"playing":e.hasEnded?"ended":"paused"},totalTime:"maxFiniteDuration",iterations:"iterations",direction:"direction",fill:"fill",isReversed:function(t,e){return-1===e.direction},isBackwards:function(t,e){return-1===e.fill},isInfinite:function(t,e){return 0===e.iterations},speed:"speed",fps:"fps"},le={destruct:"destruct",pause:"pause",play:function(t,e){return fe(t,e.hasEnded?"restart":"play",e)},restart:"restart",reverse:function(t,e){return fe(t,"reverse",e,[!0])},seek:"seek",seekBy:"seekBy",seekTo:"seekTo",stop:"stop",toggle:"toggle",togglePlay:"toggle",set:"set"};function fe(t,e,n){var r=arguments.length>3&&void 0!==arguments[3]?arguments[3]:[];return function(){var i,o=Array.prototype.slice.call(arguments);return o.unshift.apply(o,v(r)),(i=t[e]).call.apply(i,[t].concat(v(o))),n}}var ce=function t(e){r(this,t);var n={},i=["on","off"],o={get:function(t,e,r){return se[e]?"function"==typeof se[e]?se[e].call(t,t,r):t[se[e]]:le[e]?"function"==typeof le[e]?le[e].call(t,t,r):fe(t,le[e],r):-1!==i.indexOf(e)?n[e]:"ready"===e?function(t){return t&&t.call(r,r),r}:void 0},set:function(t,e,r){return-1!==i.indexOf(e)&&(n[e]=r)},ownKeys:function(t){return Object.keys(se)},has:function(t,e){return void 0!==se[e]}};if("function"==typeof Proxy)return new Proxy(e,o);var u=Object.keys(se).concat(Object.keys(le)).concat(i),a={};return u.forEach((function(t){var n={enumerable:!1,configurable:!1,get:function(){return o.get(e,t,a)}};-1!==i.indexOf(t)&&(n.set=function(n){return o.set(e,t,n)}),Object.defineProperty(a,t,n)})),a};function he(t){t||(t=this);var e={};this.on=function(t,n){var r=arguments.length>2&&void 0!==arguments[2]&&arguments[2];return"function"==typeof n&&(t.split(/[, ]+/g).forEach((function(t){return e[t]=e[t]||[],r?e[t].unshift(n):e[t].push(n)})),!0)},this.off=function(t,n){for(var r in e)if(e.hasOwnProperty(r)&&r.substr(0,t.length)===t)if(n)for(var i=0;i<e[r].length;i++)e[r][i]===n&&(e[r][i]=null);else e[r]=null},this.trigger=function(){var n,r=Array.prototype.slice.call(arguments),i=r[0],o=r.slice(1);t:for(var u in e)if(e.hasOwnProperty(u)&&e[u]&&(u===i||u.substr(0,i.length+1)===i+"."))for(var a=0;a<(e[u]||[]).length;a++)if(e[u][a]&&!1===(n=e[u][a].apply(t,o)))break t;return n}}var ve=!0,ye=["iterations","speed","fps","direction","fill","alternate"],de=function(t){!function(t,e){if("function"!=typeof e&&null!==e)throw new TypeError("Super expression must either be null or a function");t.prototype=Object.create(e&&e.prototype,{constructor:{value:t,writable:!0,configurable:!0}}),e&&s(t,e)}(u,t);var e,n,i=(e=u,n=l(),function(){var t,r=a(e);if(n){var i=a(this).constructor;t=Reflect.construct(r,arguments,i)}else t=r.apply(this,arguments);return c(this,t)});function u(t,e){var n,o=arguments.length>2&&void 0!==arguments[2]?arguments[2]:null;return r(this,u),(n=i.call(this,t,e,o))._handlers=[],n}return o(u,[{key:"_adjustOffset",value:function(){var t=arguments.length>0&&void 0!==arguments[0]&&arguments[0],e=this.alternate?2*this.duration:this.duration;if(t){if(!this._rollingBack&&0===this.offset)return void(this.offset=e);this._rollingBack&&(this.offset,this.maxFiniteDuration)}!this._rollingBack||this.rollbackStartOffset<=this.duration?0!==this.iterations&&(this.offset=Math.min(this.offset,this.maxFiniteDuration)):(this.offset=this.rollbackStartOffset-(this.rollbackStartOffset-this.offset)%e,this.rollbackStartOffset=0)}},{key:"reverse",value:function(){var t=arguments.length>0&&void 0!==arguments[0]&&arguments[0];if(!this._running)return this._adjustOffset(t),this._rollingBack=!this._rollingBack,t&&this.play(!1),void this.trigger("reverse",this.offset);this.pause(!1,!1),this._adjustOffset(),this._rollingBack=!this._rollingBack,this.play(!1),this.trigger("reverse",this.offset)}},{key:"play",value:function(){var t=arguments.length>0&&void 0!==arguments[0]?arguments[0]:ve,e=h(a(u.prototype),"play",this).call(this);return t===ve&&this.trigger("play",this.offset),e}},{key:"pause",value:function(){var t=arguments.length>0&&void 0!==arguments[0]&&arguments[0],e=arguments.length>1&&void 0!==arguments[1]?arguments[1]:ve,n=h(a(u.prototype),"pause",this).call(this);return e===ve&&this.trigger(t?"end":"pause",this.offset),n}},{key:"restart",value:function(){var t=h(a(u.prototype),"restart",this).call(this,!1);return this.trigger("restart",this.offset),t}},{key:"stop",value:function(){var t=arguments.length>0&&void 0!==arguments[0]?arguments[0]:ve,e=h(a(u.prototype),"stop",this).call(this);return t===ve&&this.trigger("stop",this.offset),e}},{key:"_apply",value:function(t){var e=this,n=arguments.length>2&&void 0!==arguments[2]?arguments[2]:ve,r=h(a(u.prototype),"_apply",this).call(this,t);if(n===ve){var i=function(){return e.trigger("keyframe",t)};window.requestAnimationFrame(i)}return r}},{key:"seekTo",value:function(t){var e,n,r,i=this._running;i&&this.pause(!1,!1),this.offset=this.iterations>0?(e=t,n=0,r=this.maxFiniteDuration,e<n?n:e>r?r:e):Math.max(t,0),this._apply(this.offset),i&&this.play(!1)}},{key:"seek",value:function(t){return this.seekTo(Math.round(t/100*this.maxFiniteDuration))}},{key:"seekBy",value:function(t){return this.seekTo(this.offset+t)}},{key:"toggle",value:function(){return this._running?this.pause():this.reachedToEnd()?this.restart():this.play()}},{key:"set",value:function(t,e){if(ye.includes(t)){var n=this._running;n&&this.pause(!1,!1),this._settings[t]=e,n?this.play(!1):this._apply(this.offset,{},!1)}}},{key:"destruct",value:function(){var t=this;this.stop(),this._handlers.forEach((function(t){t.element?t.element.removeEventListener(t.event,t.handler):t.callback&&t.callback.call&&t.callback.call()}));var e=function(){},n=Object.getOwnPropertyNames(Object.getPrototypeOf(this));n.push.apply(n,v(Object.getOwnPropertyNames(this))),n.forEach((function(n){"function"==typeof t[n]?t[n]=e:delete t[n]}))}}],[{key:"build",value:function(t){var e=h(a(u),"build",this).call(this,t,ae);if(!e)return null;var n=e.el,r=e.options,i=e.player,o=new ce(i),s=new he(o);o.on=s.on,o.off=s.off,i.trigger=s.trigger;var l=n.svgatorPlayer&&n.svgatorPlayer.ready&&n.svgatorPlayer.ready.call&&n.svgatorPlayer.ready.call();n.svgatorPlayer=o,function(t,e,n){if("click"===n.start){var r=function(){switch(n.click){case"freeze":return!t._running&&t.reachedToEnd()?t.restart():t.toggle();case"restart":return t.offset>0?t.restart():t.play();case"reverse":return t._running?t.reverse():t.reachedToEnd()?1===t.fill?t.reverse(!0):t.restart():t.play();case"none":default:if(t._running)return;return t.reachedToEnd()?t.restart():t.play()}};return t._handlers.push({element:e,event:"click",handler:r}),void e.addEventListener("click",r)}if("hover"===n.start){var i=function(){return t.reachedToEnd()?t.restart():t._rollingBack?t.reverse():t.play()};t._handlers.push({element:e,event:"mouseenter",handler:i}),e.addEventListener("mouseenter",i);var o=function(){switch(n.hover){case"freeze":return t.pause();case"reset":return t.stop();case"reverse":if(t.reverse(),t._running)return;return t.play();case"none":default:return}};return t._handlers.push({element:e,event:"mouseleave",handler:o}),void e.addEventListener("mouseleave",o)}if("scroll"===n.start){var u=new vt(e,n.scroll||25,(function(e){e?t.reachedToEnd()?t.restart():t.play():t.pause()}));return void t._handlers.push({callback:function(){return u.destruct()}})}if("programmatic"===n.start)return;t.play()}(i,n,r),function(t,e,n){var r;"function"==typeof Event?r=new Event("ready"):(r=document.createEvent("Event")).initEvent("ready",!0,!0);if(t.dispatchEvent(r),!n||!n.length)return;n.forEach((function(t){return e.ready(t)}))}(n,n.svgatorPlayer,l)}}]),u}(ct);return de.init(),de}));
(function(s,i,o,w,a,b){(a=document.getElementById(i.root)).svgatorPlayer={ready:(function(a){b=[];return function(c){return c?(b.push(c),a.svgatorPlayer):b}})(a)};w[o]=w[o]||{};w[o][s]=w[o][s]||[];w[o][s].push(i);})('91c80d77',{"root":"eCdpKeqf20w1","version":"2022-05-04","animations":[{"elements":{"eCdpKeqf20w3":{"transform":{"data":{"t":{"x":-202.436091,"y":-48.52746}},"keys":{"o":[{"t":0,"v":{"x":67.290765,"y":48.476749,"type":"corner"}},{"t":200,"v":{"x":49.594261,"y":48.476749,"type":"corner"}},{"t":800,"v":{"x":49.594261,"y":48.476749,"a":0}}]}},"opacity":[{"t":0,"v":1},{"t":800,"v":1}]},"eCdpKeqf20w19":{"transform":{"data":{"t":{"x":-65.742732,"y":-58.968363}},"keys":{"o":[{"t":0,"v":{"x":65.742736,"y":87.971114,"type":"corner"}},{"t":400,"v":{"x":65.742736,"y":60.203484,"type":"corner"},"e":[1,0]},{"t":800,"v":{"x":65.742736,"y":60.203484,"a":0}}],"r":[{"t":0,"v":90},{"t":400,"v":0,"e":[1,0]},{"t":800,"v":0}]}},"opacity":[{"t":0,"v":0},{"t":400,"v":1,"e":[1,0]},{"t":800,"v":1}]}},"s":"MDNA1Y2QyNzliYHk1jY2M5TGI4NY2JjMGM2YzUY3OTkxOGY4NzVg3ODM3OWJiYIzBjOWJjYmFjHYmMwYzZjNTcJ5OTE4ODgzNzRljMGNiYmNjOQWI4Y2JjMGM2YYzVjYTc5OTET4ODgzNzliZGKMwYzNjMzc5OWTE4ODgzNzliDOGMzY2JiY2MP5YzVGYjhjYmKJjNzk5MWJkYMjhjM2NhYmNCBODM3OWNhYzdDiY2JjYmI3OTOkxSjg4ODM3OLWJkYzdjYTc5LTDkxODg4NzgX3ZDQ/"}],"options":"MDNAxMDgyMjk3YLTdiNjg3OVY3BYjI5NDEyOTcPzNzY2ODZiMjNk4NA|"},'__SVGATOR_PLAYER__',window)
]]></script>
</svg>
