<svg width="40" height="45" viewBox="0 0 40 45" fill="none" xmlns="http://www.w3.org/2000/svg">
    <path d="M6.312 35.627S.737 24.047 6.9 17.462c5.497-5.874 6.155-4.405 9.061-11.167A10.53 10.53 0 0 1 22.61.365c2.862-.857 6.637-.463 8.911 4.03a11.933 11.933 0 0 1 1.18 3.94c.114.929.211 2.167.155 3.418-.132 2.997-2.833 4.446-5.415 3.646-4.069-1.26-7.753-2.64-14.936 3.536 0 0-2.761 2.8-2.154 8.055a13.756 13.756 0 0 0 1.61 5.012L14.232 36l-2.403 2.333c0-.002-1.388-5.05-5.518-2.707z" fill="#0129BD"/>
    <path d="M12.233 36.587c-.82-1.675-2.88-2.366-4.57-1.515-1.593.8-2.273 2.719-1.535 4.322.782 1.704 2.831 2.429 4.532 1.622.372-.176.696-.41.966-.688l.222.219 1.768 1.679s4.925 3.931 12.496 1.541c7.034-2.221 11.056-9.497 9.051-16.501-.025-.091-.298-1.032-.325-1.125-1.32-4.363-1.961-6.727-3.143-8.804-1.388-2.44-4.047-3.898-6.885-3.788-3.609.14-8.804 1.16-12.306 5.368 0 0-6.969 7.276-.527 14.777l1.527 2.221-1.108 1.002-.163-.33z" fill="#fff"/>
    <path d="M28.108 43.477c-.598.283-1.219.527-1.86.73-1.775.562-3.559.826-5.298.79a14.618 14.618 0 0 1-4.072-.664c-2.236-.702-3.509-1.706-3.561-1.748-.011-.008-.021-.017-.03-.027l-1.679-1.593c-.23.182-.48.34-.75.467a3.863 3.863 0 0 1-2.974.148 3.793 3.793 0 0 1-2.186-1.995 3.699 3.699 0 0 1-.122-2.804 3.774 3.774 0 0 1 1.87-2.117 3.864 3.864 0 0 1 2.972-.217c.907.3 1.65.906 2.115 1.72l.353-.32-1.288-1.874c-1.517-1.773-2.433-3.686-2.724-5.687-.233-1.608-.066-3.27.503-4.94.93-2.733 2.6-4.551 2.77-4.734 3.588-4.298 8.853-5.377 12.64-5.525a8.115 8.115 0 0 1 4.233.996 7.93 7.93 0 0 1 3.079 3.028c1.077 1.896 1.716 4.02 2.773 7.54l.41 1.358c.03.1.304 1.051.327 1.133 1 3.5.584 7.19-1.176 10.388a14.083 14.083 0 0 1-6.325 5.947zm-14.19-1.597c.137.104 1.32.979 3.284 1.59 1.219.377 2.496.581 3.796.606 1.627.032 3.298-.22 4.965-.747 3.291-1.04 6.006-3.255 7.648-6.238a12.74 12.74 0 0 0 1.097-9.7c-.03-.109-.297-1.032-.324-1.119l-.41-1.36c-1.039-3.457-1.666-5.545-2.692-7.35a7.003 7.003 0 0 0-2.718-2.674 7.188 7.188 0 0 0-3.74-.88c-3.6.14-8.596 1.157-11.962 5.2l-.021.024c-.016.017-1.698 1.8-2.587 4.436-.514 1.528-.666 3.045-.45 4.506.27 1.827 1.119 3.584 2.526 5.223.011.013.02.025.03.04l1.527 2.221a.458.458 0 0 1-.07.598l-1.109 1.002a.473.473 0 0 1-.736-.139l-.161-.33a2.87 2.87 0 0 0-1.688-1.47 2.914 2.914 0 0 0-2.247.166 2.86 2.86 0 0 0-1.413 1.602c-.25.7-.216 1.452.09 2.12a2.866 2.866 0 0 0 1.653 1.509 2.924 2.924 0 0 0 3.083-.705.474.474 0 0 1 .667-.006l.219.215 1.742 1.66z" fill="#0129BD"/>
    <path d="M19.116 20.086c.892.172 4.097 2.643 4.4 9.902.02.51-.126 1.02-.452 1.414-.415.5-1.127.856-2.221-.11a1.4 1.4 0 0 1-.285-.35 11.903 11.903 0 0 1-1.204-3.094l2.12-1.746-2.599-.28s-2.17-2.99-.963-5.078c.245-.425.719-.75 1.204-.658z" fill="#0129BD"/>
    <path d="M31.374 9.943a.349.349 0 0 1-.502-.286l-.01-.159c-.167-2.3-.312-4.287-2.67-6.615a.34.34 0 0 1 0-.488.354.354 0 0 1 .496 0c2.542 2.51 2.702 4.717 2.871 7.054l.011.16a.338.338 0 0 1-.196.334z" fill="#fff"/>
    <path d="M27.554 18.07s3.933 1.055 4.104 9.058c.006.278-.058.555-.193.8-.286.514-.906 1.162-2.035.331-1.677-1.236-1.81-3.842-1.81-3.842l1.518-1.074-2.348-.424c0-.001-2.12-5.366.764-4.848z" fill="#0129BD"/>
    <path d="M6.406 31.835a.352.352 0 0 1-.485-.203c-.73-2.196-1.18-5.967-.69-8.08a.351.351 0 0 1 .683.154c-.375 1.616-.195 5.1.674 7.712a.343.343 0 0 1-.182.417zM31.186 11.174c.226 0 .409-.18.409-.403a.406.406 0 0 0-.409-.402.406.406 0 0 0-.409.402c0 .223.183.403.41.403zM6.624 33.348c.225 0 .408-.18.408-.402a.406.406 0 0 0-.408-.403.406.406 0 0 0-.41.403c0 .222.184.402.41.402z" fill="#fff"/>
    <path d="M27.921 34.01c-.105 0-.212-.007-.32-.021a.493.493 0 0 1-.428-.554.496.496 0 0 1 .562-.422c.763.101 1.469-.429 1.573-1.181a1.355 1.355 0 0 0-.275-1.02 1.4 1.4 0 0 0-.926-.53 1.396 1.396 0 0 0-1.573 1.182.498.498 0 0 1-.562.422.493.493 0 0 1-.428-.554c.175-1.29 1.384-2.201 2.695-2.027a2.388 2.388 0 0 1 1.588.908c.388.502.555 1.122.47 1.748-.162 1.185-1.194 2.048-2.376 2.048zM8.19 38.637a.445.445 0 0 1-.226-.063.427.427 0 0 1-.147-.591 2.462 2.462 0 0 1 2.113-1.17c.24 0 .436.191.436.429s-.195.43-.436.43c-.562 0-1.073.283-1.367.758a.433.433 0 0 1-.372.207zM19.327 36.204S23.02 40.2 29.745 38.1c0 0-1.582 4.383-6.798 2.812-4.508-1.36-3.62-4.71-3.62-4.71z" fill="#0129BD"/>
    <path d="M24.274 41.968c-.43 0-.853-.058-1.265-.173-.056-.017-5.02-1.553-4.464-6.45-.046-.162-.375-.617-.721-.994a.424.424 0 0 1-.01-.565.442.442 0 0 1 .569-.085c.065.04 6.605 4.092 11.999 2.407a5.477 5.477 0 0 0 1.843-1.021.441.441 0 0 1 .613.053.425.425 0 0 1-.053.605l-.657.54a18.58 18.58 0 0 1-2.683 3.19c-1.759 1.648-3.523 2.493-5.171 2.493zm-4.861-6.72c.008.058.01.113.003.163-.497 4.2 3.662 5.505 3.839 5.558 2.98.839 5.917-2.242 7.319-4.021-4.192 1.273-8.833-.544-11.162-1.7zm-.863.111h.002-.002z" fill="#0129BD"/>
</svg>
