<svg width="201" height="284" viewBox="0 0 201 284" fill="none" xmlns="http://www.w3.org/2000/svg">
<path d="M14.46 224.164C14.46 224.164 -20.4016 151.309 18.1349 109.872C52.5072 72.9099 56.6215 82.1554 74.7963 39.6102C82.4357 21.7131 97.6146 7.93386 116.369 2.29152C134.264 -3.09346 157.871 -0.618746 172.091 27.6524C175.996 35.423 178.422 43.8271 179.471 52.449C180.18 58.2893 180.789 66.0797 180.44 73.9493C179.611 92.8066 162.724 101.923 146.577 96.8948C121.132 88.9658 98.094 80.2746 53.1763 119.138C53.1763 119.138 35.9102 136.757 39.705 169.82C40.9732 180.867 44.4484 191.557 49.771 201.357L63.9913 226.52L48.9621 241.2C48.9621 241.19 40.2842 209.425 14.46 224.164Z" fill="#0129BD"/>
<path d="M51.4806 230.211C46.3577 219.668 33.4756 215.323 22.9003 220.678C12.9441 225.717 8.69001 237.783 13.3036 247.87C18.1968 258.591 31.009 263.154 41.6443 258.076C43.9711 256.967 45.9982 255.492 47.6859 253.75L49.074 255.126L60.1286 265.688C60.1286 265.688 90.9259 290.425 138.27 275.389C182.259 261.412 207.404 215.63 194.872 171.56C194.712 170.986 193.004 165.066 192.834 164.482C184.586 137.033 180.572 122.155 173.182 109.088C164.504 93.7353 147.877 84.5591 130.132 85.252C107.563 86.133 75.0779 92.5573 53.1783 119.027C53.1783 119.027 9.59875 164.809 49.8829 212.007L59.4296 225.984L52.4992 232.289L51.4806 230.211Z" fill="white"/>
<path d="M150.757 273.561C147.022 275.343 143.138 276.877 139.133 278.154C128.029 281.688 116.874 283.351 105.999 283.123C97.2713 282.935 88.7032 281.53 80.5345 278.946C66.5539 274.531 58.5949 268.216 58.2654 267.948C58.1955 267.899 58.1356 267.839 58.0757 267.78L47.5802 257.753C46.1422 258.901 44.5744 259.891 42.8867 260.692C37.0149 263.494 30.414 263.821 24.2925 261.623C18.171 259.416 13.3178 254.961 10.6215 249.071C8.07504 243.508 7.80541 237.242 9.86256 231.431C11.9197 225.621 16.064 220.879 21.5563 218.108C27.3583 215.168 33.9591 214.683 40.1406 216.742C45.8127 218.632 50.4562 222.443 53.3622 227.561L55.5691 225.552L47.5203 213.762C38.0335 202.606 32.3014 190.569 30.4839 177.978C29.026 167.861 30.0745 157.398 33.6296 146.895C39.4415 129.701 49.887 118.258 50.9555 117.11C73.3844 90.0661 106.309 83.2755 129.996 82.345C139.243 81.9787 148.4 84.1466 156.459 88.6109C164.538 93.0753 171.189 99.668 175.712 107.666C182.453 119.594 186.448 132.958 193.058 155.111C193.867 157.814 194.716 160.665 195.615 163.654C195.805 164.278 197.522 170.267 197.662 170.781C203.923 192.806 201.317 216.019 190.312 236.143C181.325 252.575 167.534 265.553 150.757 273.561ZM62.0202 263.514C62.879 264.167 70.2787 269.671 82.5617 273.511C90.1811 275.887 98.17 277.174 106.299 277.332C116.475 277.53 126.92 275.947 137.346 272.63C157.927 266.087 174.904 252.15 185.169 233.382C195.445 214.584 197.872 192.905 192.03 172.345C191.84 171.662 190.172 165.852 190.003 165.307C189.104 162.308 188.255 159.467 187.446 156.755C180.945 134.997 177.021 121.861 170.61 110.497C166.615 103.439 160.743 97.6189 153.613 93.6791C146.493 89.7394 138.404 87.8289 130.226 88.1457C107.717 89.0267 76.4701 95.4213 55.4194 120.861C55.3794 120.911 55.3295 120.96 55.2895 121.01C55.1897 121.119 44.6743 132.334 39.112 148.925C35.8964 158.536 34.9478 168.079 36.2959 177.275C37.9835 188.767 43.2962 199.824 52.094 210.139C52.1639 210.218 52.2238 210.297 52.2837 210.387L61.8305 224.364C62.6393 225.552 62.4496 227.155 61.3911 228.125L54.4607 234.431C53.7816 235.054 52.8429 235.312 51.9342 235.144C51.0254 234.975 50.2565 234.381 49.8571 233.56L48.8485 231.481C46.7114 227.076 42.9566 223.799 38.2931 222.235C33.6196 220.681 28.6365 221.038 24.2426 223.275C20.0984 225.373 16.9627 228.957 15.4049 233.352C13.847 237.757 14.0567 242.488 15.9741 246.695C18.0113 251.15 21.6862 254.525 26.3097 256.188C30.9433 257.851 35.9364 257.604 40.3802 255.486C42.3375 254.545 44.0951 253.298 45.583 251.754C46.1322 251.19 46.8812 250.873 47.6601 250.863C48.449 250.853 49.198 251.16 49.7572 251.714L51.1253 253.07L62.0202 263.514Z" fill="#0129BD"/>
<path d="M94.5222 126.382C100.094 127.461 120.137 143.012 122.034 188.686C122.164 191.893 121.245 195.11 119.208 197.585C116.612 200.733 112.158 202.97 105.317 196.892C104.608 196.258 104.009 195.516 103.54 194.694C101.962 191.913 98.1671 184.607 96.0101 175.223L109.262 164.236L93.0143 162.474C93.0143 162.474 79.4431 143.666 86.9926 130.52C88.5205 127.847 91.4864 125.798 94.5222 126.382Z" fill="#0129BD"/>
<path d="M171.181 62.566C170.941 62.6848 170.672 62.754 170.392 62.7738C169.184 62.8629 168.135 61.9621 168.045 60.7644L167.975 59.7646C166.937 45.2925 166.028 32.7902 151.289 18.1399C150.43 17.2886 150.43 15.9127 151.289 15.0713C152.147 14.22 153.536 14.2299 154.384 15.0713C170.282 30.86 171.281 44.748 172.339 59.4577L172.409 60.4575C172.489 61.3682 171.97 62.1997 171.181 62.566Z" fill="white"/>
<path d="M147.291 113.702C147.291 113.702 171.886 120.335 172.955 170.69C172.995 172.442 172.595 174.184 171.747 175.719C169.959 178.956 166.085 183.034 159.024 177.807C148.539 170.027 147.7 153.634 147.7 153.634L157.197 146.873L142.517 144.211C142.517 144.201 129.256 110.446 147.291 113.702Z" fill="#0129BD"/>
<path d="M15.0381 200.307C14.9483 200.346 14.8584 200.386 14.7685 200.416C13.6201 200.792 12.3818 200.168 12.0024 199.03C7.43869 185.211 4.62259 161.483 7.68834 148.189C7.95797 147.021 9.13633 146.289 10.3147 146.556C11.4931 146.823 12.232 147.991 11.9624 149.159C9.61566 159.326 10.7441 181.251 16.1766 197.684C16.5161 198.723 16.0168 199.841 15.0381 200.307Z" fill="white"/>
<path d="M170.008 70.3094C171.42 70.3094 172.564 69.1749 172.564 67.7753C172.564 66.3758 171.42 65.2412 170.008 65.2412C168.596 65.2412 167.451 66.3758 167.451 67.7753C167.451 69.1749 168.596 70.3094 170.008 70.3094Z" fill="white"/>
<path d="M16.408 209.831C17.8199 209.831 18.9645 208.697 18.9645 207.297C18.9645 205.898 17.8199 204.763 16.408 204.763C14.9961 204.763 13.8516 205.898 13.8516 207.297C13.8516 208.697 14.9961 209.831 16.408 209.831Z" fill="white"/>
<path d="M149.591 213.99C148.932 213.99 148.263 213.95 147.584 213.861C145.876 213.634 144.678 212.079 144.907 210.377C145.137 208.684 146.715 207.476 148.423 207.724C153.196 208.357 157.61 205.021 158.259 200.29C158.568 197.993 157.959 195.717 156.541 193.875C155.123 192.034 153.066 190.856 150.749 190.539C145.956 189.896 141.562 193.242 140.913 197.974C140.683 199.666 139.105 200.864 137.398 200.626C135.69 200.399 134.492 198.845 134.722 197.142C135.82 189.025 143.38 183.294 151.578 184.392C155.553 184.917 159.068 186.946 161.504 190.104C163.931 193.262 164.98 197.162 164.45 201.102C163.432 208.555 156.981 213.99 149.591 213.99Z" fill="#0129BD"/>
<path d="M26.1903 243.108C25.711 243.108 25.2217 242.979 24.7723 242.712C23.4841 241.94 23.0746 240.277 23.8536 238.99C26.6796 234.377 31.6228 231.625 37.0652 231.625C38.5731 231.625 39.7914 232.833 39.7914 234.328C39.7914 235.823 38.5731 237.03 37.0652 237.03C33.5501 237.03 30.3545 238.812 28.5171 241.802C28.0178 242.643 27.109 243.108 26.1903 243.108Z" fill="#0129BD"/>
<path d="M95.8418 227.796C95.8418 227.796 118.94 252.939 160.991 239.734C160.991 239.734 151.095 267.312 118.48 257.423C90.2896 248.871 95.8418 227.796 95.8418 227.796Z" fill="#0129BD"/>
<path d="M126.773 264.067C124.086 264.067 121.44 263.701 118.864 262.978C118.514 262.869 87.4773 253.208 90.9525 222.393C90.6629 221.373 88.6057 218.512 86.4387 216.137C85.52 215.137 85.5 213.613 86.3788 212.583C87.2576 211.554 88.7755 211.316 89.9339 212.049C90.3433 212.306 131.237 237.795 164.97 227.194C168.994 225.927 172.879 223.769 176.494 220.769C177.652 219.819 179.36 219.968 180.328 221.106C181.297 222.244 181.147 223.947 179.999 224.907L175.885 228.312C174.576 230.342 168.315 239.696 159.108 248.377C148.113 258.751 137.078 264.067 126.773 264.067ZM96.3749 221.779C96.4249 222.145 96.4349 222.492 96.3949 222.809C93.2892 249.238 119.293 257.445 120.402 257.781C139.036 263.057 157.4 243.675 166.168 232.48C139.954 240.488 110.935 229.055 96.3749 221.779ZM90.9824 222.482H90.9924H90.9824Z" fill="#0129BD"/>
</svg>
