<svg width="32" height="32" viewBox="0 0 32 32" fill="none" xmlns="http://www.w3.org/2000/svg">
    <path d="M19.4 6c-.238.458-.45.931-.635 1.417a16.351 16.351 0 0 0-5.486 0A13.515 13.515 0 0 0 12.644 6a18.215 18.215 0 0 0-4.948 1.674c-2.809 4.359-4.083 9.65-3.593 14.926a19.408 19.408 0 0 0 6.073 3.336c.498-.708.943-1.457 1.33-2.241-.714-.283-1.4-.641-2.049-1.07.178-.126.346-.268.503-.424 1.891.98 3.963 1.488 6.062 1.488s4.17-.509 6.061-1.488c.168.154.336.296.504.425-.652.424-1.338.786-2.049 1.082.37.801.804 1.568 1.294 2.292a19.225 19.225 0 0 0 6.061-3.335c.502-5.278-.774-10.573-3.594-14.926A18.351 18.351 0 0 0 19.4 6zm-7.355 13.587a2.267 2.267 0 0 1-1.561-.821 2.613 2.613 0 0 1-.596-1.755 2.599 2.599 0 0 1 .592-1.758 2.254 2.254 0 0 1 1.565-.818c.6.043 1.162.337 1.564.818.403.48.615 1.111.592 1.758a2.599 2.599 0 0 1-.592 1.758 2.254 2.254 0 0 1-1.564.818zm7.954 0a2.267 2.267 0 0 1-1.561-.821 2.612 2.612 0 0 1-.595-1.755 2.599 2.599 0 0 1 .591-1.758A2.254 2.254 0 0 1 20 14.435c.602.04 1.165.332 1.568.814.403.482.614 1.114.588 1.762a2.587 2.587 0 0 1-.588 1.762 2.242 2.242 0 0 1-1.568.814z" fill="#0129BD" opacity=".7"/>
</svg>
