<svg width="28" height="28" viewBox="0 0 28 28" fill="none" xmlns="http://www.w3.org/2000/svg">
    <path d="M17.619 7.214a1.357 1.357 0 0 1 0-2.714h4.524A1.354 1.354 0 0 1 23.5 5.845v4.536a1.357 1.357 0 0 1-2.714 0V9.134l-4.47 4.468a1.357 1.357 0 0 1-1.918-1.919l4.468-4.469H17.62z" fill="#0129BD"/>
    <path fill-rule="evenodd" clip-rule="evenodd" d="M7.667 7.214a.452.452 0 0 0-.453.453v12.666a.452.452 0 0 0 .453.453h12.666a.452.452 0 0 0 .453-.453V15.81a1.357 1.357 0 0 1 2.714 0v4.523a3.167 3.167 0 0 1-3.167 3.167H7.667A3.166 3.166 0 0 1 4.5 20.333V7.667A3.167 3.167 0 0 1 7.667 4.5h4.524a1.357 1.357 0 0 1 0 2.714H7.667z" fill="#0129BD"/>
</svg>
