<svg width="24" height="24" viewBox="0 0 24 24" fill="none" xmlns="http://www.w3.org/2000/svg">
    <path fill-rule="evenodd" clip-rule="evenodd" d="M6.375 4.75a1.75 1.75 0 0 0-1.75 1.75V17a1.75 1.75 0 0 0 1.75 1.75h10.5a1.75 1.75 0 0 0 1.75-1.75v-1.573a1.749 1.749 0 0 0 .75-1.425V9.498a1.75 1.75 0 0 0-.75-1.425V6.5a1.75 1.75 0 0 0-1.75-1.75h-10.5zm.25 12v-10h10v1h-4.25a1.75 1.75 0 0 0-1.75 1.75V14a1.75 1.75 0 0 0 1.75 1.75h4.25v1h-10zm6-3v-4h4.75v4h-4.75z" fill="#0129BD"/>
    <path d="M13.83 10.954a1.125 1.125 0 1 1 1.59 1.591 1.125 1.125 0 0 1-1.59-1.59z" fill="#0129BD"/>
</svg>
