<svg width="32" height="32" viewBox="0 0 32 32" fill="none" xmlns="http://www.w3.org/2000/svg">
    <path d="M27 9.138a8.991 8.991 0 0 1-2.596.703 4.524 4.524 0 0 0 1.983-2.503c-.884.53-1.852.9-2.861 1.097A4.47 4.47 0 0 0 20.232 7c-2.499 0-4.508 2.04-4.508 4.543 0 .351.042.703.11 1.04A12.782 12.782 0 0 1 6.54 7.832a4.533 4.533 0 0 0-.614 2.292c0 1.577.796 2.967 2.01 3.784a4.523 4.523 0 0 1-2.039-.578v.056a4.533 4.533 0 0 0 3.615 4.458 4.743 4.743 0 0 1-1.188.154c-.293 0-.57-.03-.85-.07a4.52 4.52 0 0 0 4.214 3.15 8.996 8.996 0 0 1-5.598 1.942c-.378 0-.727-.013-1.089-.056A12.701 12.701 0 0 0 11.924 25c8.292 0 12.829-6.918 12.829-12.922 0-.197 0-.394-.014-.591A9.749 9.749 0 0 0 27 9.138z" fill="#0129BD"/>
</svg>
