<svg width="24" height="25" viewBox="0 0 24 25" fill="none" xmlns="http://www.w3.org/2000/svg">
    <path d="M15.143 7.092a1.179 1.179 0 0 1 0-2.358h3.928a1.177 1.177 0 0 1 1.179 1.168v3.94a1.179 1.179 0 0 1-2.357 0V8.758l-3.881 3.881a1.179 1.179 0 0 1-1.667-1.667l3.881-3.88h-1.083z" fill="#FF0D23"/>
    <path fill-rule="evenodd" clip-rule="evenodd" d="M6.5 7.092a.393.393 0 0 0-.393.392v11a.393.393 0 0 0 .393.393h11a.393.393 0 0 0 .393-.393v-3.928a1.179 1.179 0 1 1 2.357 0v3.928a2.75 2.75 0 0 1-2.75 2.75h-11a2.75 2.75 0 0 1-2.75-2.75v-11a2.75 2.75 0 0 1 2.75-2.75h3.929a1.179 1.179 0 0 1 0 2.358H6.5z" fill="#FF0D23"/>
</svg>
