<svg width="18" height="18" viewBox="0 0 18 18" fill="none" xmlns="http://www.w3.org/2000/svg">
    <path d="m5.025 14.475-2.062-.45a.707.707 0 0 1-.45-.291.695.695 0 0 1-.131-.515l.206-2.119-1.406-1.612A.7.7 0 0 1 .994 9a.7.7 0 0 1 .188-.487L2.588 6.9l-.206-2.119a.695.695 0 0 1 .13-.515.707.707 0 0 1 .45-.291l2.063-.45 1.088-1.837a.697.697 0 0 1 .412-.32.84.84 0 0 1 .525.02L9 2.213l1.95-.825a.84.84 0 0 1 .525-.02c.175.05.313.157.413.32l1.087 1.837 2.063.45a.707.707 0 0 1 .45.291.695.695 0 0 1 .131.515L15.413 6.9l1.406 1.613a.7.7 0 0 1 .188.487.7.7 0 0 1-.188.488L15.413 11.1l.206 2.119a.695.695 0 0 1-.131.515.707.707 0 0 1-.45.291l-2.063.45-1.087 1.838a.697.697 0 0 1-.413.318.84.84 0 0 1-.525-.018L9 15.788l-1.95.825a.84.84 0 0 1-.525.018.697.697 0 0 1-.412-.319l-1.088-1.837zm2.663-3.338a.711.711 0 0 0 .525.207.711.711 0 0 0 .525-.207l3.187-3.187a.73.73 0 0 0 .225-.535.73.73 0 0 0-.225-.534.73.73 0 0 0-.534-.225.73.73 0 0 0-.534.225L8.213 9.525 7.125 8.456a.73.73 0 0 0-.534-.197.735.735 0 0 0-.516.216A.711.711 0 0 0 5.87 9c0 .213.069.388.206.525l1.613 1.612z" fill="url(#89nh09674a)"/>
    <path d="M8.21 11.344a.711.711 0 0 1-.524-.207L6.073 9.525A.711.711 0 0 1 5.867 9c0-.213.069-.387.206-.525a.735.735 0 0 1 .516-.216.73.73 0 0 1 .534.197l1.088 1.069 2.644-2.644a.73.73 0 0 1 .534-.225.73.73 0 0 1 .534.225.73.73 0 0 1 .225.534.73.73 0 0 1-.225.535l-3.187 3.187a.711.711 0 0 1-.525.207z" fill="#fff"/>
    <defs>
        <linearGradient id="89nh09674a" x1="13.365" y1="2.993" x2="3.87" y2="3.374" gradientUnits="userSpaceOnUse">
            <stop stop-color="#8875F8"/>
            <stop offset="1" stop-color="#E85175"/>
        </linearGradient>
    </defs>
</svg>
