<svg width="32" height="32" viewBox="0 0 32 32" fill="none" xmlns="http://www.w3.org/2000/svg">
    <path d="M17.666 16c0 3.866-3.283 7-7.334 7a7.608 7.608 0 0 1-2.803-.53 7.353 7.353 0 0 1-2.377-1.516 6.998 6.998 0 0 1-1.59-2.272A6.75 6.75 0 0 1 3 16c0-3.867 3.282-7 7.332-7a7.607 7.607 0 0 1 2.803.53c.89.35 1.697.866 2.379 1.516a7 7 0 0 1 1.59 2.272c.37.85.56 1.761.562 2.682zm8.043 0c0 3.64-1.64 6.59-3.666 6.59-2.024 0-3.666-2.952-3.666-6.59 0-3.64 1.642-6.59 3.666-6.59 2.025 0 3.666 2.952 3.666 6.59zM29 16c0 3.26-.577 5.903-1.29 5.903-.712 0-1.289-2.644-1.289-5.903 0-3.26.577-5.903 1.29-5.903C28.423 10.097 29 12.74 29 16z" fill="#0129BD" opacity=".7"/>
</svg>
