<svg width="22" height="22" viewBox="0 0 22 22" fill="none" xmlns="http://www.w3.org/2000/svg">
    <circle cx="11" cy="11" r="10" fill="#8875F8" stroke="#fff" stroke-width="2"/>
    <path fill-rule="evenodd" clip-rule="evenodd" d="M6.146 8.776c.575 0 1.041.466 1.041 1.04v3.817h7.633V9.817a1.04 1.04 0 0 1 2.081 0v4.163c0 .958-.776 1.735-1.734 1.735H6.84a1.735 1.735 0 0 1-1.735-1.735V9.817c0-.575.466-1.041 1.041-1.041z" fill="#fff"/>
    <path d="M10.683 12.87a.84.84 0 0 1-.278-.177l-1.924-1.906a.878.878 0 0 1 0-1.237.864.864 0 0 1 1.227 0l.454.5V6.847a.85.85 0 0 1 .246-.599.837.837 0 0 1 1.188 0 .85.85 0 0 1 .247.6v3.202l.453-.5a.864.864 0 0 1 1.228 0 .878.878 0 0 1 0 1.237l-1.925 1.906a.84.84 0 0 1-.277.178.785.785 0 0 1-.64 0z" fill="#fff"/>
</svg>
