<svg width="38" height="38" viewBox="0 0 38 38" fill="none" xmlns="http://www.w3.org/2000/svg">
    <path fill-rule="evenodd" clip-rule="evenodd" d="M19 17.311a1.689 1.689 0 1 0 0 3.378 1.689 1.689 0 0 0 0-3.378zM15.624 19a3.378 3.378 0 1 1 6.756 0 3.378 3.378 0 0 1-6.756 0z" fill="#0129BD"/>
    <path fill-rule="evenodd" clip-rule="evenodd" d="M19 10.556a.845.845 0 0 0-.844.844v.147a2.238 2.238 0 0 1-1.356 2.048.843.843 0 0 1-.223.061 2.238 2.238 0 0 1-2.305-.512l-.006-.007-.051-.05a.846.846 0 0 0-1.195 0 .845.845 0 0 0 0 1.195l.057.057a2.238 2.238 0 0 1 .458 2.444 2.239 2.239 0 0 1-2.039 1.44H11.4a.844.844 0 0 0 0 1.689h.147a2.238 2.238 0 0 1 2.047 1.352 2.238 2.238 0 0 1-.45 2.464l-.006.007-.051.05a.847.847 0 0 0 0 1.196.845.845 0 0 0 1.195 0l.058-.057a2.237 2.237 0 0 1 2.444-.458 2.238 2.238 0 0 1 1.44 2.038v.096a.844.844 0 1 0 1.689 0v-.147a2.238 2.238 0 0 1 1.352-2.046 2.237 2.237 0 0 1 2.464.45l.006.006.051.05a.847.847 0 0 0 1.195 0h.001a.846.846 0 0 0 0-1.195l-.058-.057a2.238 2.238 0 0 1-.449-2.464 2.239 2.239 0 0 1 2.046-1.352h.079a.844.844 0 1 0 0-1.69h-.146a2.24 2.24 0 0 1-2.048-1.356.848.848 0 0 1-.061-.223 2.238 2.238 0 0 1 .512-2.304l.006-.007.051-.05a.847.847 0 0 0 0-1.196.844.844 0 0 0-1.195 0l-.058.057a2.239 2.239 0 0 1-2.464.45 2.238 2.238 0 0 1-1.352-2.047V11.4a.844.844 0 0 0-.845-.844zm6.25 10.977.772.341a.55.55 0 0 0 .107.603l.046.046a2.535 2.535 0 0 1 0 3.585l-.596-.597.597.597a2.535 2.535 0 0 1-3.584 0l-.047-.047a.549.549 0 0 0-.603-.107l-.008.004a.548.548 0 0 0-.333.5v.142a2.533 2.533 0 1 1-5.066 0v-.064a.549.549 0 0 0-.36-.495.882.882 0 0 1-.049-.02.55.55 0 0 0-.603.108l-.046.046a2.535 2.535 0 1 1-3.584-3.584l.046-.046a.549.549 0 0 0 .108-.603l-.004-.008a.55.55 0 0 0-.501-.333H11.4a2.533 2.533 0 1 1 0-5.067h.064a.55.55 0 0 0 .495-.359.812.812 0 0 1 .02-.05.548.548 0 0 0-.107-.602l-.046-.046a2.535 2.535 0 1 1 3.583-3.584l.047.046a.55.55 0 0 0 .603.107.845.845 0 0 1 .168-.054.548.548 0 0 0 .24-.45V11.4a2.533 2.533 0 0 1 5.067 0v.074a.548.548 0 0 0 .332.501l.009.004a.549.549 0 0 0 .603-.108l.046-.046a2.533 2.533 0 0 1 4.327 1.792 2.535 2.535 0 0 1-.743 1.792l-.046.046a.549.549 0 0 0-.108.603c.024.054.042.11.054.168a.548.548 0 0 0 .451.24h.142a2.533 2.533 0 1 1 0 5.067h-.074a.548.548 0 0 0-.501.333l-.777-.333z" fill="#0129BD"/>
</svg>
