<svg width="22" height="22" viewBox="0 0 22 22" fill="none" xmlns="http://www.w3.org/2000/svg">
    <path fill-rule="evenodd" clip-rule="evenodd" d="M11 3c-4.416 0-8 3.584-8 8s3.584 8 8 8 8-3.584 8-8-3.584-8-8-8zm-6.4 8c0 3.528 2.872 6.4 6.4 6.4 3.528 0 6.4-2.872 6.4-6.4 0-3.528-2.872-6.4-6.4-6.4A6.408 6.408 0 0 0 4.6 11z" fill="#1A1A1A" fill-opacity=".7"/>
    <path d="M13.094 7.239c-.563-.478-1.305-.739-2.093-.739s-1.53.263-2.093.739C8.323 7.734 8 8.399 8 9.113v.138c0 .08.068.145.15.145h.9c.083 0 .15-.065.15-.145v-.138c0-.8.809-1.452 1.8-1.452.993 0 1.802.652 1.802 1.452 0 .564-.413 1.081-1.053 1.32a2.03 2.03 0 0 0-1.35 1.92v.389c0 .08.067.145.15.145h.9c.083 0 .15-.065.15-.145v-.412a.857.857 0 0 1 .16-.493.902.902 0 0 1 .42-.32C13.285 11.105 14 10.162 14 9.113c.002-.713-.32-1.38-.906-1.874zm-2.843 7.535c0 .193.079.377.22.513a.763.763 0 0 0 1.061 0c.14-.136.22-.32.22-.513a.714.714 0 0 0-.22-.513.763.763 0 0 0-.531-.213.763.763 0 0 0-.53.213.714.714 0 0 0-.22.513z" fill="#1A1A1A" fill-opacity=".7"/>
</svg>
