<svg width="32" height="32" viewBox="0 0 32 32" fill="none" xmlns="http://www.w3.org/2000/svg">
<path d="M16 32C24.8366 32 32 24.8366 32 16C32 7.16344 24.8366 0 16 0C7.16344 0 0 7.16344 0 16C0 24.8366 7.16344 32 16 32Z" fill="black"/>
<g clip-path="url(#clip0_305_22166)">
<path d="M4 16C4 14.5215 5.19733 13.3242 6.67582 13.3242C8.15431 13.3242 9.35165 12.1268 9.35165 10.6484C9.35165 9.16986 10.5538 7.96768 12.0323 7.96768C13.5108 7.96768 14.7081 9.16502 14.7081 10.6435C14.7081 12.122 13.5108 13.3193 12.0323 13.3193C10.5538 13.3193 9.35649 14.5167 9.35649 15.9952C9.35649 17.4736 10.5538 18.671 12.0323 18.671C13.5108 18.671 14.7081 19.8683 14.7081 21.3468C14.7081 22.8253 13.5108 24.0226 12.0323 24.0226C10.5538 24.0226 9.35649 22.8253 9.35649 21.3468C9.35649 19.8683 8.15916 18.671 6.68067 18.671C5.20218 18.671 4 17.4785 4 16Z" fill="white"/>
<path d="M28.0002 16C28.0002 17.4785 26.8028 18.6758 25.3243 18.6758C23.8459 18.6758 22.6485 19.8732 22.6485 21.3516C22.6485 22.8301 21.4512 24.0275 19.9727 24.0275C18.4942 24.0275 17.2969 22.8301 17.2969 21.3516C17.2969 19.8732 18.4942 18.6758 19.9727 18.6758C21.4512 18.6758 22.6485 17.4785 22.6485 16C22.6485 14.5215 21.4512 13.3242 19.9727 13.3242C18.4942 13.3242 17.2969 12.1268 17.2969 10.6484C17.2969 9.16986 18.4894 7.96768 19.9679 7.96768C21.4463 7.96768 22.6437 9.16502 22.6437 10.6435C22.6437 12.122 23.841 13.3193 25.3195 13.3193C26.8028 13.3242 28.0002 14.5215 28.0002 16Z" fill="white"/>
<path d="M18.63 16C18.63 17.4349 17.4666 18.6031 16.0269 18.6031C14.5872 18.6031 13.4238 17.4397 13.4238 16C13.4238 14.5651 14.5872 13.3969 16.0269 13.3969C17.4618 13.3969 18.63 14.5603 18.63 16Z" fill="white"/>
</g>
<defs>
<clipPath id="clip0_305_22166">
<rect width="24" height="16.0646" fill="white" transform="translate(4 7.96768)"/>
</clipPath>
</defs>
</svg>
