<svg width="38" height="38" viewBox="0 0 38 38" fill="none" xmlns="http://www.w3.org/2000/svg">
    <circle cx="19" cy="19" r="19" fill="#0129BD"/>
    <path fill-rule="evenodd" clip-rule="evenodd" d="M18.999 11.353c-4.364 0-7.647 3.135-7.647 6.588a1.176 1.176 0 0 1-2.353 0c0-5.017 4.617-8.941 10-8.941 3.018 0 5.478 1.405 7.132 2.728.18.145.352.289.515.431v-1.982a1.176 1.176 0 1 1 2.353 0v4.94a1.175 1.175 0 0 1-1.19 1.177h-4.222a1.176 1.176 0 1 1 0-2.353h1.523c-.142-.124-.292-.25-.449-.375-1.434-1.148-3.386-2.213-5.662-2.213zm8.824 7.53c.65 0 1.176.526 1.176 1.176 0 5.017-4.617 8.941-10 8.941-3.018 0-5.478-1.405-7.132-2.728a15.54 15.54 0 0 1-.515-.431v1.982a1.177 1.177 0 0 1-2.353 0v-4.94a1.172 1.172 0 0 1 1.068-1.172c.041-.004.082-.006.122-.005h4.222a1.177 1.177 0 0 1 0 2.353h-1.523c.142.124.292.25.449.375 1.434 1.148 3.386 2.213 5.662 2.213 4.364 0 7.647-3.135 7.647-6.588 0-.65.527-1.177 1.177-1.177z" fill="#fff"/>
</svg>
