<svg width="38" height="38" viewBox="0 0 38 38" fill="none" xmlns="http://www.w3.org/2000/svg">
    <path fill-rule="evenodd" clip-rule="evenodd" d="M11.453 11.837a.854.854 0 0 0-.255-.608.877.877 0 0 0-1.232 0 .854.854 0 0 0-.255.608v14.326c0 .474.39.859.87.859h16.837c.23 0 .452-.09.616-.252a.854.854 0 0 0 0-1.215.877.877 0 0 0-.616-.252H11.453V11.837zm16.58 2.9a.854.854 0 0 0-.021-1.194.876.876 0 0 0-1.21-.021l-5.48 5.409-2.868-2.83a.877.877 0 0 0-1.23 0l-3.774 3.724a.853.853 0 0 0 .021 1.194.877.877 0 0 0 1.21.02l3.158-3.117 2.868 2.831a.877.877 0 0 0 1.23 0l6.096-6.017z" fill="#0129BD"/>
</svg>
