<svg width="32" height="32" viewBox="0 0 32 32" fill="none" xmlns="http://www.w3.org/2000/svg">
    <circle cx="16" cy="16" r="16" fill="#F5F5F5"/>
    <path d="M16 28c6.627 0 12-5.373 12-12S22.627 4 16 4 4 9.373 4 16s5.373 12 12 12z" fill="#00B1FF"/>
    <path d="m17.716 16.87-.845.845 5.83 5.829.844-.845-5.83-5.829zM9.298 8.452l-.845.845 5.83 5.829.844-.845-5.83-5.829zM22.708 8.456l-5.825 5.833.845.844L23.553 9.3l-.845-.844zM14.278 16.87l-5.825 5.833.845.844 5.825-5.833-.845-.844z" fill="#fff"/>
</svg>
