<svg width="38" height="38" viewBox="0 0 38 38" fill="none" xmlns="http://www.w3.org/2000/svg">
<circle cx="19" cy="19" r="19" fill="#B1B6CA"/>
<path fill-rule="evenodd" clip-rule="evenodd" d="M11.4526 11.8371C11.4526 11.6091 11.3609 11.3905 11.1975 11.2293C11.0342 11.0681 10.8127 10.9775 10.5818 10.9775C10.3508 10.9775 10.1293 11.0681 9.966 11.2293C9.80269 11.3905 9.71094 11.6091 9.71094 11.8371V26.1625C9.71094 26.6369 10.1011 27.022 10.5818 27.022H27.4179C27.6488 27.022 27.8703 26.9314 28.0337 26.7702C28.197 26.609 28.2887 26.3904 28.2887 26.1625C28.2887 25.9345 28.197 25.7159 28.0337 25.5547C27.8703 25.3935 27.6488 25.3029 27.4179 25.3029H11.4526V11.8371ZM28.0333 14.7365C28.1871 14.5736 28.2708 14.3581 28.2669 14.1354C28.2629 13.9127 28.1715 13.7003 28.0119 13.5428C27.8524 13.3853 27.6371 13.2951 27.4115 13.2912C27.1859 13.2872 26.9676 13.3699 26.8025 13.5217L21.322 18.931L18.4541 16.1003C18.2908 15.9393 18.0695 15.8489 17.8387 15.8489C17.6079 15.8489 17.3866 15.9393 17.2233 16.1003L13.4497 19.8249C13.2959 19.9878 13.2121 20.2033 13.2161 20.426C13.2201 20.6487 13.3115 20.8612 13.4711 21.0186C13.6306 21.1761 13.8459 21.2663 14.0715 21.2703C14.2971 21.2742 14.5154 21.1915 14.6805 21.0397L17.8387 17.9225L20.7067 20.7532C20.8699 20.9141 21.0913 21.0046 21.322 21.0046C21.5528 21.0046 21.7742 20.9141 21.9374 20.7532L28.0333 14.7365V14.7365Z" fill="white"/>
</svg>
