<svg width="32" height="32" viewBox="0 0 32 32" fill="none" xmlns="http://www.w3.org/2000/svg">
    <path d="M16.001 5C9.923 4.998 5 9.822 5 15.777c0 4.71 3.08 8.712 7.369 10.182.577.142.489-.26.489-.535v-1.868c-3.336.383-3.47-1.78-3.694-2.142-.453-.757-1.522-.95-1.202-1.311.76-.383 1.533.096 2.43 1.395.65.943 1.915.784 2.557.627.14-.567.44-1.073.853-1.465-3.456-.608-4.897-2.675-4.897-5.133 0-1.193.401-2.29 1.188-3.174-.502-1.458.046-2.707.12-2.892 1.428-.126 2.913 1.002 3.028 1.091.811-.214 1.738-.327 2.775-.327 1.042 0 1.971.118 2.79.335.277-.208 1.654-1.176 2.981-1.058.071.185.607 1.405.135 2.843.796.887 1.202 1.993 1.202 3.189 0 2.463-1.45 4.533-4.916 5.13.297.287.533.628.694 1.005.16.376.243.78.243 1.189v2.71c.02.217 0 .432.369.432C23.866 24.561 27 20.53 27 15.78 27 9.822 22.075 5 16.001 5z" fill="#0129BD" opacity=".7"/>
</svg>
