<svg width="20" height="21" viewBox="0 0 20 21" fill="none" xmlns="http://www.w3.org/2000/svg">
    <path d="M10 3.52a7.813 7.813 0 1 0 7.813 7.813 7.821 7.821 0 0 0-7.812-7.812zm0 13.75a5.938 5.938 0 1 1 5.938-5.937A5.944 5.944 0 0 1 10 17.271zM2.54 6.373A.94.94 0 0 1 1.21 5.043l2.5-2.5a.94.94 0 1 1 1.328 1.329l-2.5 2.5zm16.25 0a.938.938 0 0 1-1.328 0l-2.5-2.5a.94.94 0 0 1 1.328-1.329l2.5 2.5a.937.937 0 0 1 0 1.329zm-5.039 4.024a.938.938 0 0 1 0 1.875H10a.938.938 0 0 1-.937-.938v-3.75a.938.938 0 0 1 1.875 0v2.813h2.813z" fill="#1A1A1A" fill-opacity=".7"/>
</svg>
