<svg width="29" height="28" viewBox="0 0 29 28" fill="none" xmlns="http://www.w3.org/2000/svg">
<path d="M15.7463 5.47965C16.041 5.17253 16.4407 5 16.8573 5C17.274 5 17.6737 5.17253 17.9684 5.47965L25.0399 12.8517C25.3345 13.1589 25.5 13.5755 25.5 14.0099C25.5 14.4443 25.3345 14.8609 25.0399 15.1681L17.9684 22.5401C17.672 22.8385 17.275 23.0037 16.863 22.9999C16.451 22.9962 16.0568 22.8239 15.7655 22.5202C15.4741 22.2164 15.3088 21.8055 15.3053 21.376C15.3017 20.9465 15.4601 20.5327 15.7463 20.2237L20.0003 15.6481H5.07145C4.65468 15.6481 4.25497 15.4755 3.96027 15.1683C3.66556 14.8611 3.5 14.4444 3.5 14.0099C3.5 13.5754 3.66556 13.1587 3.96027 12.8515C4.25497 12.5443 4.65468 12.3717 5.07145 12.3717H20.0003L15.7463 7.7961C15.4517 7.48889 15.2862 7.07227 15.2862 6.63788C15.2862 6.20348 15.4517 5.78686 15.7463 5.47965Z" fill="#0129BD"/>
</svg>
