<svg width="32" height="32" viewBox="0 0 32 32" fill="none" xmlns="http://www.w3.org/2000/svg">
<circle cx="16" cy="16" r="16" fill="white"/>
<path d="M16 32C24.8366 32 32 24.8366 32 16C32 7.16344 24.8366 0 16 0C7.16344 0 0 7.16344 0 16C0 24.8366 7.16344 32 16 32Z" fill="#00B1FF"/>
<path d="M18.2873 17.1599L17.1611 18.2861L24.9333 26.0583L26.0595 24.9321L18.2873 17.1599Z" fill="white"/>
<path d="M7.06368 5.93618L5.9375 7.06236L13.7097 14.8345L14.8358 13.7083L7.06368 5.93618Z" fill="white"/>
<path d="M24.9454 5.94103L17.1787 13.7186L18.3057 14.844L26.0724 7.06643L24.9454 5.94103Z" fill="white"/>
<path d="M13.7042 17.1598L5.9375 24.9374L7.06447 26.0628L14.8312 18.2852L13.7042 17.1598Z" fill="white"/>
</svg>
