<svg width="28" height="28" viewBox="0 0 28 28" fill="none" xmlns="http://www.w3.org/2000/svg">
    <circle cx="14" cy="14" r="14" fill="#0129BD"/>
    <path fill-rule="evenodd" clip-rule="evenodd" d="M7 10a1.5 1.5 0 0 1 1.5 1.5V17h11v-5.5a1.5 1.5 0 0 1 3 0v6A2.5 2.5 0 0 1 20 20H8a2.5 2.5 0 0 1-2.5-2.5v-6A1.5 1.5 0 0 1 7 10z" fill="#fff"/>
    <path d="M13.54 15.902a1.21 1.21 0 0 1-.4-.256l-2.774-2.747a1.265 1.265 0 0 1 0-1.783 1.245 1.245 0 0 1 1.769 0l.654.72V7.221c0-.324.127-.634.354-.863a1.207 1.207 0 0 1 1.713 0c.228.229.355.54.355.863v4.615l.654-.72a1.245 1.245 0 0 1 1.769 0 1.265 1.265 0 0 1 0 1.783l-2.774 2.747a1.21 1.21 0 0 1-.4.256 1.131 1.131 0 0 1-.92 0z" fill="#fff"/>
</svg>
