<svg width="24" height="24" viewBox="0 0 24 24" fill="none" xmlns="http://www.w3.org/2000/svg">
    <path d="m3.127 18.52 7.959-13.998c.09-.158.222-.29.383-.382a1.073 1.073 0 0 1 1.062 0c.161.092.293.224.383.382l7.958 13.998a.969.969 0 0 1-.018.991c-.092.15-.223.273-.38.359a1.07 1.07 0 0 1-.515.13H4.04a1.07 1.07 0 0 1-.515-.13 1.02 1.02 0 0 1-.38-.359.972.972 0 0 1-.019-.99zm9.98-5.187.559-3.223a.642.642 0 0 0-.155-.54.715.715 0 0 0-.528-.236h-1.966a.715.715 0 0 0-.528.236.658.658 0 0 0-.155.54l.558 3.223h2.216zm.416 2.532c0-.389-.16-.762-.446-1.037A1.554 1.554 0 0 0 12 14.4c-.404 0-.791.155-1.077.43a1.439 1.439 0 0 0-.446 1.036c0 .39.16.762.446 1.037.286.275.673.43 1.077.43.404 0 .791-.155 1.077-.43.286-.275.446-.648.446-1.037z" fill="#fff"/>
</svg>
